<svg width="60" height="60" viewBox="0 0 60 60" fill="none" xmlns="http://www.w3.org/2000/svg">
<g clip-path="url(#clip0_78_4375)">
<mask id="mask0_78_4375" style="mask-type:luminance" maskUnits="userSpaceOnUse" x="0" y="0" width="60" height="60">
<path d="M60 0H0V60H60V0Z" fill="white"/>
</mask>
<g mask="url(#mask0_78_4375)">
<path d="M41.6646 15.1571C39.9932 15.1571 32.336 15.4428 31.586 14.8928C31.4075 14.7571 31.3718 14.3928 31.4075 14.0928L33.7503 3.56427L44.9932 4.17141L42.6075 14.5714C42.436 14.9286 42.1217 15.0428 41.6575 15.1571H41.6646Z" fill="#0375EC"/>
<path d="M32.6649 56.4714C31.3149 55.2643 30.2435 54.0285 29.1006 52.6643L35.7363 24.15C35.7863 23.9357 35.7221 23.7785 35.6935 23.7C35.6363 23.5643 35.4221 23.4643 35.1792 23.4571L20.1435 23.3285C18.5863 21.8428 17.1292 20.3571 15.6863 18.6285C17.0292 18.4214 18.1863 18.4643 19.4863 18.5071L37.4863 19.0714C38.8006 19.1143 39.9935 19.1714 41.2363 19.4785C41.3363 20.0785 41.2078 20.5214 41.0721 21.1285L33.3149 54.8714C33.0649 55.4428 33.1435 55.9 32.6721 56.4785L32.6649 56.4714Z" fill="#0375EC"/>
<path d="M27.1002 50.3213C25.7431 48.9999 23.8859 47.7714 24.3074 45.8714L26.6502 35.2214C26.9074 34.0429 27.8288 30.7928 27.3859 30.0357C27.2931 29.8786 27.0002 29.8214 26.7074 29.7286C25.3645 28.6 24.0359 27.4786 23.0859 25.8143C26.3217 25.55 29.3431 25.9571 32.5359 26.2071C31.9217 29.6 31.1859 32.6928 30.4288 35.9714L27.1074 50.3285L27.1002 50.3213Z" fill="#35A4AF"/>
</g>
</g>
<defs>
<clipPath id="clip0_78_4375">
<rect width="60" height="60" fill="white"/>
</clipPath>
</defs>
</svg>
