<svg width="299" height="111" viewBox="0 0 299 111" fill="none" xmlns="http://www.w3.org/2000/svg">
<path d="M148.733 3.95512C148.879 2.30542 148.599 2.70229 149.578 1.4742C152.966 -0.330106 163.061 -0.074737 167.095 0.17772C183.928 1.23157 193.395 14.0694 189.009 28.6152C187.437 33.7116 183.672 38.022 178.558 40.5778C171.836 43.9816 158.799 44.0529 151.031 43.2315C149.939 43.1162 149.802 42.5906 149.315 41.8332C147.319 38.0991 147.756 8.62704 148.733 3.95512ZM157.068 36.1642C160.076 35.6425 162.306 35.6436 165.367 35.5716C170.253 35.1642 174.253 35.5236 177.979 31.7964C182.852 26.9207 182.168 14.7253 176.587 10.5739C171.92 7.10392 162.886 8.66306 157.107 7.71034C157.835 12.849 158.281 31.358 157.068 36.1642Z" fill="#63A6AD"/>
<path d="M148.733 3.95703L149.745 4.10108C151.287 6.22005 150.931 37.3473 150.189 41.4521C149.68 41.9082 149.973 41.8049 149.315 41.8351C147.319 38.101 147.756 8.62895 148.733 3.95703Z" fill="#87B9C0"/>
<path d="M157.067 36.1668C160.075 35.6452 162.304 35.6462 165.366 35.5742C166.925 35.6393 168.484 35.7132 170.042 35.7965C168.595 38.8885 159.858 38.3582 156.827 37.5986L156.47 37.0613C156.679 36.6543 156.715 36.4516 157.067 36.1668Z" fill="#87B9C0"/>
<path d="M23.7852 20.8475C27.4973 16.6893 38.0865 1.03508 43.1016 0.32573C43.9493 0.205685 44.3286 0.282074 45.0339 0.754977C46.7398 1.89904 47.4559 4.84377 47.7529 6.62552C48.7051 12.3422 48.7167 32.131 47.7437 37.9957C47.4892 39.5297 46.9835 41.3006 45.9049 42.5443C45.3839 43.1449 44.669 43.5763 43.8237 43.6447C42.8451 43.724 40.9669 42.9423 40.2577 42.3308C38.2559 40.6054 39.1643 25.8501 39.1751 22.8043L39.0844 13.9508C35.0343 20.3677 30.0466 27.9931 23.7675 32.6483C18.7738 28.8491 11.4266 18.9265 9.17361 13.4939C8.49565 22.0131 10.3533 31.2936 9.05319 39.585C6.64481 47.1791 0.233725 43.2911 0.519519 37.3835C0.987145 27.7214 -1.24783 10.9646 1.07666 2.03036C1.7514 0.973972 2.56744 0.834646 3.8218 0.426131C6.26991 0.378841 7.38539 1.15549 9.01225 2.71825C14.7976 8.27486 18.0521 15.0934 23.7852 20.8475Z" fill="#63A6AD"/>
<path d="M133.25 29.3283C132.927 26.7604 132.63 24.19 132.361 21.6171C131.802 15.8924 131.561 10.1906 131.968 4.45724C132.119 2.32372 132.798 0.845352 135.264 0.428833C137.881 -0.0127851 140.206 1.6642 140.557 3.95341C141.323 8.94982 141.046 14.0208 141.072 19.0459C141.104 25.265 141.104 31.4633 141.034 37.679C141.008 40.4415 139.923 41.6343 137.758 43.475C137.116 43.5401 136.446 43.5918 135.813 43.4426C131.439 42.4113 113.496 18.8466 110.48 14.493C111.145 18.8309 111.889 39.3153 109.778 42.5405C108.134 43.6231 105.268 43.9552 103.703 42.5983C102.468 39.4899 101.936 7.62096 103.109 2.48087C103.362 1.37318 104.936 0.783147 106.102 0.337891C113.199 1.20585 121.84 16.422 126.363 21.3486C128.521 23.6993 131.149 26.8867 133.25 29.3283Z" fill="#63A6AD"/>
<path d="M212.143 6.24029C212.105 4.35741 212.28 1.98053 213.764 0.52726C216.47 -0.54914 219.801 1.24571 221.37 3.14605C228.287 11.5306 237.237 21.5412 243.165 30.4264C242.772 25.3437 240.943 4.93653 244.314 1.49271C244.969 0.824094 246.054 0.187495 247.061 0.163122C248.061 0.139113 248.815 0.543628 249.457 1.20751C251.781 3.6124 251.421 35.2365 250.697 40.318C250.562 41.2686 250.399 42.1504 249.945 43.0267C247.918 44.1551 246.708 43.6371 244.288 43.2002C238.604 37.9317 225.014 20.8261 220.85 13.9603C220.473 22.1524 222.123 33.7192 219.812 41.7782C219.018 44.5462 215.011 44.0907 213.096 41.9885C210.935 38.9419 211.876 11.902 212.143 6.24029Z" fill="#63A6AD"/>
<path d="M212.143 6.24023C213.051 7.5509 213.825 10.0911 213.845 11.5797C213.911 16.4742 215.436 39.0099 213.096 41.9884C210.935 38.9418 211.876 11.902 212.143 6.24023Z" fill="#87B9C0"/>
<path d="M278.514 0.0913539C282.802 -0.0061369 286.981 0.665018 291.042 1.91603C294.05 2.84219 298.577 5.76364 297.067 9.08815C293.534 11.3272 283.61 6.25292 277.473 7.43117C265.709 9.68983 264.893 17.8529 265.736 27.2127C265.993 30.0767 270.36 34.1567 273.159 35.5791C278.404 38.2444 284.584 36.8377 290.015 35.5314C289.987 32.5383 289.976 29.5456 289.983 26.5525C286.683 26.8253 283.804 26.603 280.519 26.4204C279.348 25.185 278.161 24.0883 278.211 22.4226C278.642 21.1508 279.206 20.8802 280.37 20.0624C284.545 18.675 293.203 18.2621 297.283 20.002C299.586 20.9842 298.801 28.6354 298.942 30.881C299.415 38.3896 297.066 41.4525 288.937 42.8261C280.784 44.3358 272.945 44.3962 265.713 39.9742C255.569 33.7719 254.45 17.3967 261.204 8.71129C265.733 2.88803 270.922 1.19285 278.514 0.0913539Z" fill="#63A6AD"/>
<path d="M204.519 53.2393C218.503 51.8424 230.236 58.3805 227.233 72.5825C226.455 76.2591 223.581 79.3599 220.13 81.313C213.516 83.508 206.854 82.9518 199.814 82.8962C199.6 78.468 199.772 73.5618 199.71 69.047C199.644 64.2776 199.225 58.6711 199.547 54.0301L204.519 53.2393ZM206.445 77.2242C208.171 76.8681 208.533 76.7815 210.286 76.8674C219.793 76.9983 224.184 68.5777 218.537 61.633C216.521 59.1535 209.571 58.9512 206.068 58.7486C206.29 62.8425 206.685 73.2202 206.445 77.2242Z" fill="#63A6AD"/>
<path d="M206.445 77.2254C208.17 76.8693 208.533 76.7827 210.286 76.8686L212.435 77.2374C212.589 77.6463 212.445 77.7056 212.242 78.2251C210.592 79.0665 207.42 80.1691 206.18 78.4455C206.234 78.0326 206.234 77.5554 206.445 77.2254Z" fill="#87B9C0"/>
<path d="M102.414 69.6668C104.451 66.2673 106.658 62.925 108.828 59.5939C111.048 56.1869 114.926 50.1806 119.404 54.9453C120.483 61.1331 120.744 73.9542 119.359 80.0878C119.109 81.7666 118.973 82.1798 117.41 82.9197C115.864 82.9539 115.434 83.0357 114.054 82.3817C112.523 80.8408 113.121 66.1611 113.137 63.4379C110.996 67.4285 108.058 74.0299 104.22 76.6654C102.778 77.6559 101.353 77.2314 99.5587 76.9604C97.6195 73.9058 95.2437 68.6711 93.2852 65.2008C92.7791 69.904 93.4016 74.3976 93.1054 79.1088C92.8995 82.3839 89.1119 84.2453 86.4579 81.9081C85.576 74.4627 86.6514 65.3281 86.3824 57.738C86.3299 56.26 87.2414 54.6143 88.5472 53.6827C93.5743 52.7514 100.568 65.9781 102.414 69.6668Z" fill="#63A6AD"/>
<path d="M119.403 54.9453C120.482 61.1331 120.743 73.9542 119.358 80.0878C119.283 79.9386 119.209 79.7891 119.136 79.6392C116.685 74.5886 117.111 60.3273 119.403 54.9453Z" fill="#87B9C0"/>
<path d="M163.19 63.0289C163.425 66.9817 164.812 78.1334 163.039 82.0727C162.516 83.2328 159.641 83.4321 158.152 82.558C156.964 81.0549 156.678 58.6444 157.477 56.0431C160.752 45.3896 175.095 70.0908 177.566 71.3306C177.586 66.9529 175.168 56.4512 178.789 53.7429C180.345 53.708 182.04 53.5374 183.424 54.1311C184.188 56.0161 183.944 65.3771 183.79 67.9457C183.641 70.436 186.247 87.4064 179.023 82.909C176.088 81.0818 173.318 76.7046 171.366 73.8289C168.955 70.2764 165.233 66.599 163.19 63.0289Z" fill="#63A6AD"/>
<path d="M177.567 71.3298C177.586 66.9522 175.168 56.4505 178.789 53.7422C180.116 56.1991 179.874 70.7074 178.925 73.36L178.29 73.5837C177.564 72.9228 177.549 72.7802 177.365 71.854L177.567 71.3298Z" fill="#87B9C0"/>
<path d="M64.9531 0.85216C70.9712 0.21556 76.356 1.67283 82.281 1.70739C84.8768 1.76087 93.8106 -0.159486 95.7064 1.43274C103.576 8.04284 90.6637 11.9065 87.0768 12.7609C80.2334 12.8101 74.3506 10.734 68.0387 10.5248C64.4008 10.4044 55.6135 16.8792 54.612 8.35822C53.9244 2.51023 60.1456 1.1901 64.9531 0.85216Z" fill="#E9C252"/>
<path d="M64.1964 33.5482C71.6909 33.0924 78.0964 35.0866 85.5085 35.0386C88.8498 35.0172 95.2223 31.4213 96.5513 36.3438C98.2271 42.5498 91.8682 43.9226 86.8179 45.2344C84.2939 45.5869 81.8297 45.1918 79.3415 44.855C70.8949 43.7109 66.7935 42.7222 58.5817 45.2482C55.4573 43.4767 52.1534 40.7044 54.9463 37.075C57.0002 34.4056 60.8946 34.0455 64.1964 33.5482Z" fill="#E9C252"/>
<path d="M64.6685 18.2856C71.796 17.2612 77.8696 20.4544 85.2757 20.1073C89.0697 19.9295 91.6117 18.0953 94.6965 19.0768C95.9087 19.5322 96.7376 20.6774 97.0872 21.757C98.9982 27.6647 92.0111 28.5741 87.4477 29.5847C80.1844 30.76 74.5267 27.9943 67.5059 27.8415C63.3932 27.752 59.7819 30.3119 55.5367 28.4541C53.9416 26.9215 53.9817 22.7385 55.3188 21.1725C57.186 18.9844 61.8113 18.6559 64.6685 18.2856Z" fill="#E9C252"/>
<path d="M199.035 0.281449C200.771 0.262533 202.408 0.341109 203.587 1.64741C205.166 6.24294 204.55 34.5451 204.272 41.0406C204.22 42.2319 201.616 43.2665 200.369 43.7925C200.192 43.77 200.014 43.7485 199.837 43.7219C198.735 43.5564 198.017 43.3196 197.357 42.4418C194.746 38.97 194.861 8.43575 195.95 3.23781C196.279 1.67105 197.659 1.09702 199.035 0.281449Z" fill="#63A6AD"/>
<path d="M141.772 81.1587C140.181 83.2351 137.727 83.9081 135.741 81.8786C134.388 75.3445 135.441 61.6595 135.873 54.6994C136.014 52.4299 140.042 53.8496 141.571 54.894C143.124 59.332 143.477 76.9695 141.772 81.1587Z" fill="#63A6AD"/>
<path d="M141.572 54.8945C143.125 59.3325 143.478 76.97 141.773 81.1592C139.245 77.8019 139.341 58.4155 141.572 54.8945Z" fill="#87B9C0"/>
<path d="M44.5526 99.6074C45.884 99.6151 48.6476 100.417 50.0521 100.771C52.3047 105.502 52.8558 107.71 47.1616 110.648C43.6783 110.747 43.0116 110.174 39.8161 108.808C38.8327 102.989 38.8174 102.57 44.5526 99.6074ZM46.3809 108.783C50.3788 105.356 49.7683 103.165 44.8199 101.404C40.4017 104.744 39.8502 107.325 46.3809 108.783Z" fill="#010202"/>
<path d="M55.474 99.1994L58.3407 99.0859C60.1366 99.4304 62.8825 100.437 64.3247 101.45C64.4584 103.08 64.6302 104.516 63.3076 105.802C62.4546 106.692 62.3142 106.544 62.1981 107.585C63.8146 108.988 63.8094 108.023 64.3669 109.537L64.1136 110.009C60.2169 110.156 60.3224 106.684 56.7239 107.097L57.3955 108.624C57.1518 109.549 56.9078 109.657 56.0717 110.261C54.8928 110.2 55.3383 110.365 54.4135 109.583C53.6657 107.757 54.0791 103.378 54.0675 101.279C54.0611 100.096 54.6479 99.8335 55.474 99.1994ZM61.3873 104.372C61.12 103.155 59.9949 102.387 58.9862 101.49C57.8262 102.46 57.9052 102.124 57.5074 103.358C58.3998 104.654 59.0733 104.565 60.6993 104.517L61.3873 104.372Z" fill="#010202"/>
<path d="M55.474 99.1994L58.3407 99.0859C58.5499 99.8888 58.765 100.69 58.9862 101.49C57.8262 102.46 57.9052 102.124 57.5074 103.358C58.3998 104.654 59.0733 104.565 60.6993 104.517C58.8919 104.73 56.6489 104.739 55.5426 105.967C55.9039 106.945 55.6313 106.689 56.4714 107.103L56.7239 107.097L57.3955 108.624C57.1518 109.549 56.9078 109.657 56.0717 110.261C54.8928 110.2 55.3383 110.365 54.4135 109.583C53.6657 107.757 54.0791 103.378 54.0675 101.279C54.0611 100.096 54.6479 99.8335 55.474 99.1994Z" fill="#56585A"/>
<path d="M58.3389 99.0859C60.1347 99.4304 62.8807 100.437 64.3229 101.45C60.9431 102.517 63.7192 103.456 61.3855 104.372C61.1181 103.155 59.993 102.387 58.9843 101.49C58.7631 100.69 58.548 99.8888 58.3389 99.0859Z" fill="#202223"/>
<path d="M22.5831 99.1621C29.2884 99.1719 33.6664 101.637 29.455 106.227C29.3053 106.39 30.1932 109.046 30.265 109.794L29.5381 110.177C28.1095 109.966 28.6004 110.218 27.678 109.256C27.0422 108.091 25.8208 107.129 24.4107 106.913C22.9388 107.819 23.5268 109.504 22.3431 110.496C19.7545 108.642 20.827 101.494 22.5831 99.1621ZM28.4792 104.377L28.5125 103.365C27.0354 102.18 25.5169 102.251 23.4565 102.061C23.2619 103.514 23.0604 103.176 23.7716 104.225C25.1966 104.731 26.9118 104.394 28.4792 104.377Z" fill="#010202"/>
<path d="M8.85321 110.743C8.91583 107.81 7.90392 102.207 10.0165 99.9719C10.8401 99.1003 13.2846 99.2905 14.5771 99.3167C15.8291 100.026 17.9428 101.002 18.5935 102.22C19.2534 103.455 18.5923 104.002 18.3229 105.18C16.914 107.12 15.8845 107.165 13.3605 107.748C11.8661 109.255 10.7542 109.74 8.85321 110.743ZM15.638 104.239C15.874 103.896 15.9298 103.477 15.7905 103.093C15.6517 102.71 15.3317 102.402 14.9179 102.253C14.321 102.038 13.6399 102.191 13.2224 102.632C12.8046 103.074 12.7431 103.708 13.0687 104.209C13.3946 104.711 14.036 104.969 14.6646 104.852C15.0684 104.777 15.42 104.555 15.638 104.239Z" fill="#77767A"/>
<path d="M14.5784 99.3164C15.8304 100.026 17.9441 101.002 18.5948 102.22C19.2547 103.455 18.5936 104.002 18.3243 105.18L15.6393 104.239C15.8753 103.896 15.9311 103.477 15.7919 103.093C15.653 102.709 15.3331 102.402 14.9192 102.252C13.813 100.92 13.8555 101.369 13.8242 100.004L14.5784 99.3164Z" fill="#010202"/>
<path d="M14.666 104.852C15.0698 104.777 15.4214 104.555 15.6394 104.238L18.3243 105.179C16.9154 107.119 15.8859 107.164 13.3619 107.748C12.1212 107.454 11.2698 107.307 11.1426 106.094C12.309 104.885 12.9384 104.929 14.666 104.852Z" fill="#010202"/>
<path d="M252.419 108.374C250.993 109.193 250.306 109.835 248.802 109.868L248.379 109.304C248.308 106.468 251.078 100.293 254.849 100.033C256.001 100.636 255.616 100.277 256.199 101.599L256.71 102.802C257.148 104.6 259.152 109.122 259.108 109.722C258.545 109.735 254.543 108.612 252.419 108.374Z" fill="#010202"/>
<path d="M256.711 102.803C255.662 104.308 256.481 109.512 251.695 107.038L251.48 106.143C252.362 103.592 253.932 103.044 256.2 101.6L256.711 102.803Z" fill="#77767A"/>
<path d="M147.853 103.357C150.54 100.726 150.972 100.461 154.751 98.9766C154.764 101.046 154.958 109.092 154.527 110.671C151.589 110.251 151.158 109.366 149.444 107.326C147.032 107.249 147.009 107.153 146.02 105.261C146.84 104.844 147.297 104.08 147.853 103.357Z" fill="#56585A"/>
<path d="M149.444 107.326C150.39 105.408 152.106 104.685 154.103 103.6C154.158 105.314 154.186 109.193 154.527 110.672C151.589 110.252 151.158 109.366 149.444 107.326Z" fill="#969696"/>
<path d="M118.253 99.4694L118.984 99.8867C120.241 101.784 120.263 107.86 118.781 109.669C116.376 110.402 115.245 107.917 113.924 106.437C112.955 105.352 113.805 104.716 113.162 103.262L112.429 103.365C111.049 104.757 111.515 108.194 111.596 110.114L110.573 110.551L110.005 110.146C109.342 107.971 109.361 101.657 109.31 99.0605C111.096 100.204 113.395 101.554 114.807 103.042C115.897 104.19 115.749 105.826 116.886 106.6C118.469 105.123 117.23 101.577 118.253 99.4694Z" fill="#010202"/>
<path d="M222.838 105.004C222.497 103.057 221.567 100.064 224.511 99.6387C225.769 100.034 225.942 100.397 226.675 101.362L227.413 104.338C229.029 104.803 229.106 105.092 230.486 104.755C230.775 105.637 231.014 106.028 230.719 106.902C229.868 106.853 228.885 106.623 228.038 106.456C225.16 108.687 227.915 109.964 224.195 110.148L223.323 109.402C222.612 108.043 222.8 106.521 222.838 105.004Z" fill="#434648"/>
<path d="M222.838 105.004C222.497 103.057 221.567 100.064 224.511 99.6387C225.769 100.034 225.942 100.397 226.675 101.362C225.357 102.368 224.945 103.855 224.358 105.335L223.245 104.483L222.838 105.004Z" fill="#56585A"/>
<path d="M222.839 105.003L223.246 104.482L224.358 105.334C224.357 106.644 224.38 108.883 224.196 110.147L223.324 109.401C222.613 108.042 222.801 106.52 222.839 105.003Z" fill="#77767A"/>
<path d="M227.413 104.336C229.029 104.802 229.107 105.09 230.487 104.754C230.776 105.635 231.015 106.027 230.72 106.9C229.868 106.851 228.885 106.621 228.038 106.455L227.413 104.336Z" fill="#434648"/>
<path d="M289.868 107.033C285.83 106.274 286.402 108.591 283.089 110.335L282.495 109.975C281.982 108.298 281.77 101.475 282.756 99.8898L283.39 99.7461C285.826 100.958 287.426 105.017 289.752 104.601C290.06 103.503 290.179 102.477 290.338 101.357L290.382 105.125C290.278 106.068 290.412 106.309 289.868 107.033Z" fill="#434648"/>
<path d="M197.586 108.439C196.294 108.805 193.533 109.763 192.373 109.555C192.916 106.939 195.526 99.6534 199.193 100.182C202.092 102.205 201.065 106.158 204.329 109.175L204.234 109.71C202.619 110.123 199.715 108.699 197.872 108.337L198.093 108.181C199.561 107.117 201.638 105.645 200.338 103.796C198.495 103.033 196.375 103.552 195.329 105.16C195.266 106.744 196.101 106.892 197.586 108.439Z" fill="#010202"/>
<path d="M185.805 109.513C185.756 107.668 185.724 105.862 185.528 104.019C185.316 102.028 183.852 102.163 181.777 100.746L182.101 100.185C184.272 99.168 189.373 98.6042 191.64 99.917C192.068 100.165 191.912 100.813 191.914 101.296C191.123 102.585 190.452 102.295 188.551 103.252C187.645 104.564 187.947 104.796 187.873 106.581C188.024 108.459 188.142 108.949 187.154 110.561L186.336 110.839C186.042 110.355 185.777 110.056 185.805 109.513Z" fill="#666868"/>
<path d="M185.805 109.513C186.033 107.242 185.318 102.017 186.695 100.299L187.308 100.496C187.767 101.862 187.798 105.026 187.873 106.581C188.024 108.459 188.142 108.949 187.154 110.561L186.337 110.839C186.042 110.356 185.777 110.056 185.805 109.513Z" fill="#010202"/>
<path d="M271.165 99.2441C273.391 99.2736 275.9 99.5173 278.148 99.6265C279.696 99.7014 279.53 99.7862 280.377 100.684L280.301 101.467C279.268 102.544 278.186 102.429 276.771 103.301C276.11 104.999 276.27 107.268 276.268 109.114L275.692 110.63L275.003 110.851C273.669 109.325 273.891 104.479 273.864 102.438C272.649 102.176 271.259 102.01 270.384 101.241C270.283 100.082 270.33 100.408 271.165 99.2441Z" fill="#434648"/>
<path d="M236.277 100.817C239.095 99.8422 241.509 99.1478 244.58 99.7891C245.223 100.243 245.933 100.653 245.369 101.557C242.9 101.121 240.075 100.538 238.676 103.014C238.939 106.04 241.851 106.09 244.652 106.326C243.257 106.501 239.566 106.697 238.93 107.408C240.005 108.497 243.427 109.196 245.192 109.659L244.87 109.542L245.122 109.958C243.049 110.092 239.354 110.605 237.678 109.848C236.825 109.121 236.789 108.721 236.435 107.712C237.626 106.222 236.706 102.484 236.277 100.817Z" fill="#434648"/>
<path d="M157.947 99.6663L160.099 99.168C160.529 100.055 160.882 100.748 161.187 101.688C160.358 103.41 160.335 103.742 160.277 105.638C162.397 105.833 163.081 105.676 165.204 105.324L165.884 106.077L165.603 106.483C164.461 106.601 163.641 106.664 162.481 106.697C161.685 106.94 160.765 107.197 159.992 107.465L160.667 108.498C159.016 108.76 158.726 108.686 157.858 110.211C157.067 108.118 156.294 101.415 157.947 99.6663Z" fill="#666868"/>
<path d="M157.947 99.666C158.839 102.372 157.567 106.289 159.436 107.434L159.992 107.465L160.667 108.497C159.016 108.759 158.726 108.686 157.858 110.21C157.067 108.118 156.294 101.415 157.947 99.666Z" fill="#77767A"/>
<path d="M165.204 105.324L165.883 106.077L165.602 106.482C164.461 106.6 163.641 106.664 162.481 106.697C161.504 106.665 160.432 106.772 159.739 106.252L160.277 105.638C162.397 105.833 163.081 105.676 165.204 105.324Z" fill="#202223"/>
<path d="M145.467 104.686C143.443 106.997 146 108.966 143.451 110.835C141.877 109.65 140.636 100.067 144.167 99.373C145.869 100.336 146.149 100.417 147.265 101.849L147.853 103.357C147.297 104.081 146.84 104.845 146.019 105.262L145.467 104.686Z" fill="#56585A"/>
<path d="M147.263 101.848L147.851 103.357C147.295 104.08 146.839 104.844 146.018 105.261L145.465 104.685C144.679 103.982 144.901 104.342 144.716 103.243C145.349 102.375 146.156 102.234 147.263 101.848Z" fill="#666868"/>
<path d="M66.7494 102.981C66.7807 101.439 66.5788 101.072 67.445 99.9121C68.5825 99.5105 69.5985 99.9986 70.7557 100.381C70.095 103.997 71.3614 107.668 69.3837 110.024C68.1506 110.571 68.5725 110.587 67.4502 110.377C66.0293 108.66 66.9613 105.263 66.7494 102.981Z" fill="#666868"/>
<path d="M35.5255 99.459C36.1087 99.5827 36.228 99.702 36.7494 99.9748C37.3378 101.183 37.337 109.434 36.5037 110.599C35.9795 110.513 34.3924 110.268 34.1287 109.813C32.7153 107.373 33.0284 104.006 33.5254 101.388C33.7489 100.211 34.3185 100.195 35.5255 99.459Z" fill="#202223" fill-opacity="0.984314"/>
<path d="M95.6931 103.005C97.0807 101.927 98.1745 100.891 99.9595 100.516C99.2049 103.738 94.7767 105.901 94.018 108.235C95.8661 109.14 98.2917 108.375 100.016 109.318L100.087 109.839C98.4426 110.924 93.1061 110.608 91.1436 110.077C90.2024 108.256 94.4162 104.679 95.6931 103.005Z" fill="#010202"/>
<path d="M125.717 100.363C126.302 100.862 126.617 101.022 126.765 101.733C124.591 106.24 124.479 108.614 130.691 108.71C131.737 108.842 131.992 108.837 132.871 109.351C130.758 110.891 128.784 110.62 126.092 110.649C122.357 107.651 120.847 103.144 125.717 100.363Z" fill="#010202"/>
<path d="M206.502 110.384C206.244 108.067 205.067 100.568 207.74 99.7656C211.962 101.595 208.323 106.021 209.63 108.521C207.962 108.892 207.695 109.236 206.502 110.384Z" fill="#434648"/>
<path d="M261.812 101.645C262.437 100.522 262.968 98.9739 264.501 99.1809C265.808 101.219 265.142 106.063 264.379 108.297C263.193 108.885 263.112 109.041 262.505 110.121C261.769 107.094 261.866 104.716 261.812 101.645Z" fill="#56585A"/>
<path d="M244.651 106.326C241.85 106.091 238.938 106.041 238.676 103.015C240.074 100.539 242.899 101.121 245.368 101.557C244.69 103.588 244.693 104.209 244.651 106.326Z" fill="#969696" fill-opacity="0.988235"/>
<path d="M169.167 99.9832C169.894 99.1229 169.546 99.2659 170.489 99.1367L171.242 99.8821C175.877 103.117 174.956 105.254 176.828 106.892L174.97 107.664C173.226 106.465 173.451 105.73 172.107 104.228L171.207 104.37C171.104 102.933 170.504 102.836 169.234 102.379L169.167 99.9832Z" fill="#202223"/>
<path d="M176.828 106.892C177.849 104.476 176.756 102.36 177.808 100.3L178.583 100.189C179.518 100.891 179.509 100.755 179.613 102.176C179.76 104.179 179.904 108.76 178.823 110.399C177.954 110.31 175.823 108.351 174.97 107.664L176.828 106.892Z" fill="#010202"/>
<path d="M230.486 104.757C230.521 103.243 230.344 101.485 231.291 100.297L232.072 99.918C233.944 101.544 233.335 108.09 232.393 110.195L231.828 110.543C230.49 109.35 230.624 108.538 230.719 106.903C231.014 106.03 230.775 105.638 230.486 104.757Z" fill="#010202"/>
<path d="M76.3065 102.514C74.5773 102.423 73.1884 102.485 72.4619 100.917L72.9183 100.227C75.8469 98.7752 80.2642 99.0273 82.9255 100.832L82.7709 101.285C81.2372 101.879 80.6343 101.788 78.9497 101.739L78.4632 101.221C77.2188 101.29 77.088 101.484 76.3065 102.514Z" fill="#666868"/>
<path d="M95.6936 103.001C94.0675 102.167 90.5533 102.573 90.5822 100.347C92.4916 98.6642 97.7391 98.9956 99.96 100.512C98.175 100.887 97.0812 101.923 95.6936 103.001Z" fill="#77767A"/>
<path d="M102.995 99.7441C103.943 99.8693 103.993 99.9555 104.783 100.498C106.318 103.153 105.663 107.346 105.495 110.463C104.982 110.691 104.899 110.65 104.326 110.714C103.14 109.407 103.395 102.37 102.995 99.7441Z" fill="#010202"/>
<path d="M85.3077 99.7246L86.3377 100.113C87.3962 101.818 87.1766 109.175 85.9776 111C83.8679 109.451 84.4748 101.818 85.3077 99.7246Z" fill="#010202"/>
<path d="M76.3057 102.513C77.0872 101.484 77.218 101.289 78.4624 101.221L78.9489 101.739C78.7397 104.861 78.8513 107.042 77.8105 110.011L77.3144 110.238C76.0295 107.845 76.4767 105.137 76.3057 102.513Z" fill="#202223"/>
<path d="M197.587 108.441C196.102 106.893 195.267 106.746 195.329 105.161C196.375 103.553 198.496 103.034 200.339 103.797C201.639 105.646 199.562 107.119 198.094 108.182L197.873 108.339L197.587 108.441Z" fill="#969696" fill-opacity="0.976471"/>
<path d="M161.187 101.687C163.072 101.497 163.98 101.519 165.658 102.51C165.245 103.518 164.755 104.331 165.204 105.324C163.081 105.676 162.397 105.833 160.277 105.638C160.335 103.742 160.358 103.409 161.187 101.687Z" fill="#969696" fill-opacity="0.988235"/>
<path d="M127.921 105.337C129.966 105.195 131.99 105.068 134.033 105.372C134.333 107.198 134.512 108.002 132.872 109.353C131.994 108.839 131.739 108.844 130.693 108.712L131.035 107.819C130.158 106.501 129.478 107.535 127.91 106.195L127.921 105.337Z" fill="#202223"/>
<path d="M128.788 101.521C130.171 101.349 131.791 102.393 133.081 103.05C133.312 103.745 133.593 104.813 134.032 105.371C131.989 105.068 129.966 105.195 127.921 105.337C128.041 103.805 128.329 103.005 128.788 101.521Z" fill="#969696" fill-opacity="0.988235"/>
<path d="M160.1 99.168C162.172 99.2127 164.245 99.2793 166.316 99.3673C166.884 99.9665 167.246 100.284 167.635 100.986L165.659 102.51C163.981 101.519 163.073 101.498 161.188 101.688C160.883 100.748 160.53 100.055 160.1 99.168Z" fill="#77767A"/>
<path d="M169.234 102.379C170.504 102.836 171.104 102.934 171.207 104.37C171.462 106.691 171.828 107.911 170.821 110.079L170.326 110.166C168.556 108.05 169.1 104.999 169.234 102.379Z" fill="#010202"/>
<path d="M236.436 107.711C236.003 108.421 236.439 108.718 235.35 109.734L234.859 109.383C234.602 107.645 234.83 102.968 235.265 101.258L236.278 100.816C236.707 102.483 237.626 106.221 236.436 107.711Z" fill="#010202" fill-opacity="0.113725"/>
<path d="M125.719 100.364C129.611 97.8756 132.051 98.9199 133.082 103.05C131.791 102.393 130.171 101.348 128.788 101.52L126.766 101.734C126.619 101.023 126.303 100.864 125.719 100.364Z" fill="#434648"/>
<path d="M160.667 108.498C163.298 108.681 164.734 108.548 167.048 109.546L167.121 109.904L166.718 110.106L166.62 109.404L166.099 110.254C163.904 110.525 159.928 110.909 157.858 110.211C158.726 108.687 159.016 108.76 160.667 108.498Z" fill="#010202"/>
<path d="M209.63 108.521C211.263 108.557 213.05 108.423 214.358 109.253L214.29 109.805C211.738 110.946 209.346 110.748 206.502 110.384C207.695 109.236 207.962 108.892 209.63 108.521Z" fill="#010202"/>
<path d="M264.378 108.297C265.956 108.569 269.21 108.729 270.197 109.761L269.8 110.337C267.201 110.552 265.104 110.627 262.504 110.121C263.111 109.041 263.192 108.885 264.378 108.297Z" fill="#010202"/>
<path d="M290.382 105.124L292.276 104.482C292.122 106.727 292.452 107.689 291.767 109.863L291.305 110.121C290.346 109.211 290.064 108.276 289.868 107.032C290.412 106.307 290.278 106.067 290.382 105.124Z" fill="#010202"/>
<path d="M290.338 101.357L290.635 100.223L291.412 99.8477C293.024 101.043 292.54 102.852 292.276 104.483L290.381 105.125L290.338 101.357Z" fill="#010202"/>
<path d="M190.135 105.57L190.912 105.787C191.595 106.685 191.276 106.946 191.113 108.299L190.572 108.346C189.812 107.593 190.12 106.881 190.135 105.57Z" fill="#010202" fill-opacity="0.74902"/>
</svg>
