<svg width="401" height="107" viewBox="0 0 401 107" fill="none" xmlns="http://www.w3.org/2000/svg">
<path d="M50.3602 79.9667C64.0032 78.6795 69.7672 86.5914 65.8688 99.3675C64.7813 102.932 60.9965 104.606 57.6146 105.935C43.9908 107.312 37.9773 98.7483 42.4197 86.0281C43.5373 82.8278 47.113 80.9871 50.3602 79.9667ZM48.2244 99.9988C51.4402 101.622 53.4648 101.888 57.0946 101.567C59.7622 100.333 60.0289 99.942 61.0462 97.1701C62.7423 92.5475 61.7797 86.0319 56.3255 84.1792C55.1495 83.7799 52.3198 84.0309 51.0431 84.1191C45.5466 87.2166 46.7645 95.0945 48.2244 99.9988Z" fill="#9B675A"/>
<path d="M133.475 93.7232C135.068 90.8277 136.432 87.3573 139.444 85.7706C144.268 85.3086 142.344 93.5536 143.638 94.8449C146.331 93.5689 148.121 86.0194 152.427 86.2099C153.735 86.7836 153.696 86.5252 154.261 87.5262C153.928 88.3442 153.989 88.0984 153.418 88.7199C150.064 92.3677 147.728 109.085 139.55 106.059C137.85 103.952 138.974 97.3676 139.327 94.7784L137.157 94.8651C135.353 103.688 126.164 112.718 126.375 98.9162C125.519 96.6527 125.479 88.3397 127.723 86.5315C129.167 86.1752 128.614 86.1214 129.86 86.6084C131.423 88.6564 130.583 92.6303 130.845 95.3458L130.873 95.621L133.475 93.7232Z" fill="#AA6F61"/>
<path d="M126.375 98.9145C125.519 96.651 125.479 88.338 127.723 86.5298C129.167 86.1735 128.614 86.1197 129.86 86.6068C131.423 88.6548 130.583 92.6286 130.845 95.3441L130.873 95.6194C130.225 96.158 130.21 96.2379 129.796 96.9723L129.327 96.446L129.355 96.1315L128.99 96.198L129.493 96.4691L128.327 96.5513C127.734 98.5119 128.192 100.352 127.063 101.375C126.793 100.273 126.812 99.5697 126.785 98.4588L126.375 98.9145Z" fill="#8B6B58"/>
<path d="M133.474 93.7227L134.199 94.5179C133.887 96.0534 132.391 99.4748 131.131 100.566L130.57 100.562C129.725 99.2134 130.162 98.3543 129.796 96.9734C130.209 96.239 130.225 96.1591 130.872 95.6205L133.474 93.7227Z" fill="#C6877C"/>
<path d="M137.157 94.8651C137.152 93.104 138.048 90.8946 140.011 90.5469C141.083 91.8041 140.348 94.7202 139.965 96.3379L139.41 96.4981L139.564 96.6169L139.327 94.7784L137.157 94.8651Z" fill="#C6877C"/>
<path d="M186.23 78.1348C189.88 79.9624 185.919 82.868 187.192 86.2606C193.213 85.629 198.556 85.2372 197.291 92.8043C196.688 96.4054 195.791 107.963 189.669 105.735C189.32 105.196 188.968 104.688 189.155 103.964C190.294 99.5392 191.913 95.4163 191.941 90.7716C191.517 89.8098 191.806 90.0854 190.928 89.6241C190.379 89.7317 188.366 90.1235 187.989 90.4018C183.498 93.7138 185.177 103.378 180.44 106.084C178.877 106.219 179.515 106.302 177.991 105.639C176.967 103.662 181.716 82.8751 182.445 79.3001L186.23 78.1348Z" fill="#9B675A"/>
<path d="M104.415 85.8983C107.642 85.9794 110.079 87.6408 112.434 89.4886C112.798 91.4256 113.482 94.3697 113.37 96.2485C111.064 98.2158 104.781 95.9575 101.164 97.0403C100.506 97.9106 100.444 99.1447 100.676 99.9788C101.711 103.696 109.887 100.425 112.206 102.113C112.22 102.893 111.892 103.778 111.26 104.298C105.936 108.674 99.3787 105.688 95.2669 102.095C92.828 94.2793 93.5356 89.5315 101.472 85.8105L104.415 85.8983Z" fill="#AA6F61"/>
<path d="M101.563 88.9678C104.299 88.7889 106.873 88.6436 108.316 91.9152C108.759 92.9204 108.541 93.2648 108.066 94.1675L107.006 94.4977C104.571 94.5773 101.907 94.491 99.4482 94.4548C99.803 91.9212 99.7948 90.8231 101.563 88.9678Z" fill="#F1C5C1"/>
<path d="M282.324 80.0811C284.871 79.8809 291.953 79.9791 293.192 82.2475C291.072 86.1336 284.61 82.6987 281.513 84.8035C280.964 85.7093 280.996 85.9375 280.954 86.9945C282.491 90.4596 293.087 92.5962 293.712 97.5367C294.455 103.416 290.252 105.187 285.071 105.972C281.767 106.129 274.571 106.87 274.949 102.096C277.905 99.7348 285.284 103.494 288.736 99.9078C289.944 94.3476 272.424 96.0837 276.949 82.6404C278.9 81.0956 279.884 80.6313 282.324 80.0811Z" fill="#9B675A"/>
<path d="M299.114 85.2754C305.291 87.9968 303.214 96.2052 302.864 101.801C304.425 101.799 308.61 101.887 309.532 100.774C312.261 97.4816 309.47 87.9591 313.403 85.495L314.234 85.6676C316.207 87.4384 315.811 90.5442 315.96 93.4158C316.11 96.5235 316.632 102.423 315.819 105.139C314.537 105.688 301.809 106.019 299.498 105.265C296.757 102.649 296.913 97.4607 297.393 94.0004C297.864 90.61 296.685 87.9826 299.114 85.2754Z" fill="#9B675A"/>
<path d="M245.983 101.494C245.542 92.2843 247.853 88.0337 257.239 85.707C260.278 86.5814 265.783 88.0094 263.673 92.7112C262.656 94.9762 259.609 96.0169 257.25 96.7183C255.514 97.4262 252.696 98.7749 250.977 99.0569C251.195 100.525 251.075 100.977 252.541 101.886C255.437 102.027 259.441 101.383 260.875 102.885C260.813 105.633 258.11 105.881 255.938 106.134C250.508 106.222 249.012 106.07 245.983 101.494Z" fill="#9B675A"/>
<path d="M252.541 101.886C255.436 102.027 259.441 101.383 260.875 102.885C260.813 105.633 258.11 105.881 255.938 106.134C255.097 104.608 253.864 103.684 252.536 102.528L252.541 101.886Z" fill="#8B6B58"/>
<path d="M250.977 99.0558C250.665 98.0947 250.37 96.8233 250.867 95.9179C252.921 94.7805 254.386 96.2462 256.949 96.669L257.25 96.7172C255.514 97.425 252.697 98.7738 250.977 99.0558Z" fill="#AA6F61"/>
<path d="M215.859 101.341C218.174 101.57 219.449 101.341 220.559 103.54C220.394 105.655 218.046 106.593 216.046 106.54C206.115 106.279 212.302 96.0549 212.192 90.7603C212.154 88.9233 210.731 89.2965 210.799 87.3519C212.952 85.5673 216.625 81.7929 219.008 81.8885C219.638 83.3927 218.358 84.1883 218.848 85.9247C221.205 86.2859 222.426 86.485 224.742 87.17C223.748 88.6342 219.371 90.485 217.651 91.2664C216.815 94.476 216.265 98.0599 215.859 101.341Z" fill="#9B675A"/>
<path d="M168.467 84.4038C169.53 83.5395 170.206 82.8661 171.541 82.4668C174.049 83.1791 172.017 84.374 173.314 86.1482C174.881 86.326 177.134 86.4022 178.367 87.2161C178.482 88.6186 177.447 88.9596 176.229 89.4643C173.186 90.7447 172.954 90.8691 171.674 93.7664C171.374 95.1245 169.698 100.729 169.904 101.611C171.743 102.575 172.086 101.515 174.222 102.265L174.488 103.072C174.386 103.517 174.005 104.926 173.521 105.1C161.151 109.539 165.276 98.1119 165.886 92.1517C164.319 87.1227 164.288 87.5642 168.467 84.4038Z" fill="#9B675A"/>
<path d="M165.886 92.1522C164.319 87.1231 164.288 87.5646 168.467 84.4043C168.821 85.7971 168.266 90.5023 167.95 91.8855C167.083 92.9093 167.512 92.6934 166.371 92.8872L165.886 92.1522Z" fill="#AA6F61"/>
<path d="M171.674 93.767C171.105 92.751 171.006 91.4445 171.136 90.3176C172.535 88.1919 174.071 88.7182 176.229 89.4648C173.186 90.7453 172.954 90.8696 171.674 93.767Z" fill="#C6877C"/>
<path d="M228.46 80.9808C228.887 79.6309 228.951 79.4535 230.169 78.6478C231.64 78.3613 231.064 78.2795 232.346 78.9097C233.662 80.8075 233.642 83.3956 232.421 85.3245C233.616 86.2803 233.098 86.1167 234.424 86.2209C235.442 88.825 236.772 88.5513 236.992 89.7689C236.447 89.9934 235.197 90.5806 234.694 90.6008C228.221 94.0263 230.627 106.032 225.208 107C221.342 105.183 225.665 91.9544 226.649 88.1329C227.503 85.4025 227.968 83.7792 228.46 80.9808Z" fill="#9B675A"/>
<path d="M234.694 90.6025C233.491 88.6139 230.679 89.5234 230.563 86.5991C231.263 85.7718 231.378 85.7079 232.421 85.3262C233.616 86.282 233.098 86.1184 234.424 86.2226C235.442 88.8268 236.773 88.553 236.993 89.7707C236.448 89.9951 235.198 90.5823 234.694 90.6025Z" fill="#C6877C"/>
<path d="M75.9836 86.478C82.2046 85.9909 89.9462 84.6676 90.3617 93.1068C90.561 97.1527 90.3879 101.218 90.3229 105.269C88.6144 105.723 86.8024 106.247 85.0676 106.554C84.9975 104.556 84.4971 93.9226 85.1487 92.7774C83.4762 89.3828 81.7183 90.2927 78.4981 91.0637C77.6722 88.6067 75.9719 89.5143 75.0254 86.3641L75.9836 86.478Z" fill="url(#paint0_linear_3793_4176)"/>
<path d="M75.0254 86.3633L75.9836 86.4772C76.6725 86.5724 78.0059 86.5874 78.2914 87.0565C79.8515 89.6177 83.5478 88.4042 85.3151 89.9621C85.7764 90.8757 85.6241 91.8906 85.1487 92.7766C83.4762 89.382 81.7183 90.2919 78.4981 91.0629C77.6722 88.6059 75.9719 89.5135 75.0254 86.3633Z" fill="#AA6F61"/>
<path d="M328.992 86.127C339.557 85.5525 339.988 87.4978 340.325 96.9792C340.404 99.2094 340.72 103.335 339.684 105.329C338.57 105.949 338.264 106.19 336.93 106.215C332.193 104.026 335.925 92.4626 333.205 90.1655C331.623 89.7378 331.13 89.7976 329.478 89.8644L327.282 88.8051L328.992 86.127Z" fill="#9B675A"/>
<path d="M324.064 85.9767C325.714 85.9801 327.353 85.9494 328.992 86.1283L327.282 88.8065L329.478 89.8657C329.021 90.1683 327.998 90.8731 327.892 91.3281C326.655 96.6776 328.053 99.9107 326.618 105.64C325.225 105.97 323.711 106.433 322.303 106.281C320.8 104.307 320.996 87.582 322.241 86.0155L324.064 85.9767Z" fill="#AA6F61"/>
<path d="M234.424 86.221C238.467 85.5334 241.963 86.459 242.655 91.0073C243.305 95.2747 241.817 101.372 239.981 105.288C239.59 106.094 237.143 106.401 236.265 106.301C233.903 103.95 237.816 94.2965 236.993 89.7691C236.773 88.5514 235.442 88.8252 234.424 86.221Z" fill="#9B675A"/>
<path d="M161.435 86.0797L162.027 85.8164C162.431 87.7116 158.74 103.581 157.974 105.123C156.53 106.132 154.436 106.366 153.15 105.014C153.055 103.024 156.578 88.3892 157.635 86.9859C158.736 86.0517 159.942 86.1582 161.435 86.0797Z" fill="#8B6B58"/>
<path d="M78.4982 91.0629C74.581 94.5205 79.2661 103.062 75.0564 105.894C73.9294 106.185 73.7805 106.221 72.6782 105.875C71.3973 102.095 71.3205 92.0116 72.435 87.8181C72.6911 86.8556 74.0695 86.6449 75.0254 86.3633C75.9719 89.5135 77.6723 88.6059 78.4982 91.0629Z" fill="#9B675A"/>
<path d="M161.436 86.082C160.382 84.1184 158.44 82.4323 158.343 81.453C159.286 79.8577 160.899 78.8738 162.825 79.7938C164.427 82.2176 162.138 83.2458 162.027 85.8186L161.436 86.082Z" fill="#727A64"/>
<path d="M170.006 0.445146L170.054 0.643121C172.491 10.9481 169.035 57.6019 171.719 61.2228C175.763 59.1262 187.421 3.23608 190.43 1.113C195.088 -0.240997 229.512 -0.288813 233.383 1.40509L233.641 1.51602C236.329 2.69559 238.979 5.15371 241.632 6.72174C244.275 12.7118 244.682 18.005 242.129 24.1392C238.522 32.8067 231.136 35.7989 222.6 38.464C224.989 43.7907 233.481 58.3071 237.487 62.223C241.502 48.2359 244.144 33.8604 248.854 20.0712C250.381 15.6006 252.048 4.56094 254.544 1.18734C259.485 -0.896891 305.116 1.69121 314.7 0.367086C314.082 2.98955 312.555 12.9031 311.205 14.244C307.936 15.0807 304.314 14.8723 300.949 14.8909C289.332 14.9559 277.505 14.5951 265.905 15.2667C265.33 18.3011 264.763 21.7439 263.937 24.6879C272.892 24.4743 281.85 24.3857 290.808 24.4224C295.471 24.4582 303.072 24.4687 307.517 25.1813C307.077 28.0795 306.18 35.9573 304.719 38.1021C301.166 39.6047 266.379 38.7273 259.409 39.0104C259.03 42.4853 258.746 44.7447 257.402 48.0518C262.859 46.9996 296.429 46.8394 300.445 48.0275C301.806 49.9997 299.222 58.737 298.574 61.3707C300.61 61.1802 302.642 60.9579 304.67 60.7036C304.271 56.1803 318.439 4.35737 320.229 1.52611C324.133 -0.426639 358.31 0.429466 364.944 0.56057C367.537 0.611742 376.992 0.374182 379.533 0.529565C379.202 4.32786 378.014 10.6904 376.997 14.4648C362.137 15.3672 346.715 14.6668 331.479 15.2428C331.18 18.0722 330.899 21.5268 329.806 24.1717L330.103 24.5508C336.645 24.9064 369.282 23.3466 372.572 25.3543C373.381 27.1692 372.266 38.2724 369.857 38.4405C355.359 39.4512 340.332 38.7352 325.712 38.8566C324.676 42.1611 324.064 44.6521 323.331 48.0384C328.861 46.799 359.493 46.6451 366.11 48.5994C366.493 48.7126 366.758 49.3621 366.723 49.8283C366.39 54.3198 364.804 63.1124 363.72 67.3712C353.389 68.0608 339.822 66.9421 328.775 66.9096L246.029 66.9477L116.97 67.0874C111.766 67.1161 106.6 67.456 101.416 67.4983C67.6124 67.9028 33.8049 67.9435 0 67.6211L0 38.8177L0.605949 38.5047C1.40877 26.8536 2.27956 12.3518 3.74416 0.887398C4.44018 0.741353 5.14091 0.615849 5.84529 0.512011C8.65445 0.102636 17.5246 -0.299268 19.8437 1.31545C21.3477 4.13065 19.3653 25.3752 18.848 29.37C24.4906 22.3258 30.9007 7.97975 37.5467 1.43161C39.41 -0.404225 52.0036 0.328237 55.3432 0.658053C54.9359 6.55851 54.3857 13.8697 54.78 19.7399C55.2296 22.7587 53.7337 25.3722 54.3211 26.7852L55.1579 26.8416C59.2721 19.0082 64.1252 10.4633 69.0625 2.9959C71.1831 -0.211868 82.0301 -0.369118 84.5814 1.13168C85.0344 4.31853 54.7977 54.1734 50.9451 61.3266C53.6044 61.0259 55.5766 60.9023 58.2547 60.8205C60.6243 55.2357 91.8581 1.72631 93.614 0.905693C97.6949 -1.00223 107.306 0.807833 112.29 0.120187C112.891 6.94472 112.217 60.3469 113.357 61.2803C116.716 60.5004 122.683 47.5674 124.779 44.0182C128.691 37.3912 132.453 30.5342 136.45 23.9222C141.205 15.9711 144.683 7.61743 150.913 0.646472C157.497 -0.0482703 163.421 0.254278 170.006 0.445146ZM190.4 61.1231C196.607 60.9385 202.817 60.8747 209.027 60.9318C212.687 60.8993 213.086 60.9199 216.657 61.4813C210.819 53.3655 206.202 45.3203 201.453 36.5923C200.933 35.6365 198.921 31.6245 198.418 31.0441C195.672 39.6219 192.921 52.0044 190.4 61.1231ZM216.58 24.614C220.221 24.6607 222.028 25.0043 224.878 22.3975C228.196 19.3623 229.034 14.3583 223.088 13.8425C219.042 13.4914 214.878 13.5078 210.813 13.6434L202.812 13.9332C201.854 17.6363 200.838 21.3774 200.079 25.1186C203.623 24.3518 212.626 24.5729 216.58 24.614ZM153.996 25.2691C153.111 26.6556 147.343 36.0933 147.209 37.0364L147.704 37.1585L148.037 36.7985C150.738 35.9398 151.201 36.3633 153.882 37.5082C153.695 35.5771 154.079 25.4555 153.996 25.2691ZM138.635 50.9212C136.169 54.483 135.683 57.5257 132.563 61.3812C137.896 61.135 143.492 61.2848 148.688 60.9568C150.183 60.9677 152.361 61.206 153.473 60.404C154.44 59.0638 154.003 54.0329 154.396 51.0246C149.371 50.814 143.667 50.6384 138.635 50.9212ZM83.8424 51.0228C82.3645 51.0874 81.5006 50.8353 80.6387 51.9356C78.6094 54.5267 78.4015 57.3912 76.4744 60.3148L76.5159 61.0185C79.5187 61.727 87.7416 61.8268 90.7589 61.3061C92.581 61.2149 95.4632 61.3737 96.6568 60.3017C96.7821 60.0604 96.7257 52.8291 96.9806 51.0157C92.1052 51.1008 89.0409 50.5824 83.8424 51.0228ZM33.5455 60.8821C33.1014 57.2781 35.6701 34.5043 34.6708 33.5481C33.7157 36.1407 30.0474 40.952 28.2282 43.542C24.7611 48.4784 20.6038 56.1105 17.0137 60.6913L17.2461 61.1682L17.6021 61.2314C23.0722 61.0962 28.0515 61.2844 33.5455 60.8821Z" fill="#14AB30"/>
<path d="M54.7797 19.7402C55.2293 22.759 53.7334 25.3725 54.3208 26.7855L55.1576 26.8419L55.3209 27.3129C54.3873 29.9384 53.7529 30.9544 52.3091 33.3598C51.8948 27.5408 53.1875 25.1443 54.7797 19.7402Z" fill="#69D373"/>
<path d="M98.1025 21.6602C98.0908 26.2907 98.4922 31.3339 98.1805 35.9337C98.045 37.9336 97.4799 38.1255 95.6558 38.4733C95.6018 37.609 95.6068 36.8843 95.6147 36.026C95.1334 33.2164 95.6523 28.1261 96.0278 25.1346C96.0787 24.7275 97.7462 22.2014 98.1025 21.6602Z" fill="#69D373"/>
<path d="M95.6559 38.472C92.892 38.3514 91.4685 38.4194 88.9399 37.3179L89.1028 36.5563C91.2477 35.7155 93.2942 35.9549 95.6148 36.0247C95.607 36.8831 95.6019 37.6077 95.6559 38.472Z" fill="#69D373"/>
<path d="M390.299 4.88477C392.151 4.95984 394.661 5.41964 395.249 7.39928C394.066 7.86095 390.759 5.60267 388.711 6.12783L388.535 6.71836C389.504 8.77719 390.894 8.32523 393.576 9.4469C394.622 10.4868 394.747 11.6805 395.08 13.098C394.681 13.6613 394.943 13.4447 394.215 13.7013C392.629 12.1127 393.306 9.23923 389.367 9.84993C388.562 9.97469 388.911 9.79054 388.353 10.5148L388.678 12.3898L388.088 12.8175L387.489 12.5863C387.016 10.8835 387.993 9.83163 387.942 9.4921C387.778 8.39471 387.11 8.64945 387.509 6.64142C388.632 5.58138 388.859 5.49323 390.299 4.88477Z" fill="#14AB30" fill-opacity="0.976471"/>
<path d="M383.547 5.72712C388.092 0.276753 387.449 0.983445 395.174 0.84375C396.552 1.85113 398.13 2.84879 399.066 4.22147L397.034 4.60507L394.751 2.35165C392.644 2.48499 390.071 2.71471 387.996 2.69006C383.326 7.24883 383.299 11.1267 387.463 16.0691C392.828 16.2308 395.416 16.6604 399.442 12.7444L399.955 13.4051C398.859 15.2268 396.677 16.4288 394.853 17.5844C392.268 17.6169 389.462 17.5164 386.859 17.4675C385.41 15.3848 384.915 14.7677 383.067 12.9603C383.04 9.97215 383.057 8.65923 383.547 5.72712Z" fill="#14AB30" fill-opacity="0.984314"/>
<path d="M397.033 4.60236L399.066 4.21875L401 6.36125V13.0084L399.955 13.4024L399.442 12.7417C399.547 8.95907 399.567 7.46499 397.033 4.60236Z" fill="#14AB30" fill-opacity="0.988235"/>
<defs>
<linearGradient id="paint0_linear_3793_4176" x1="91.6967" y1="98.0701" x2="77.3847" y2="92.0974" gradientUnits="userSpaceOnUse">
<stop stop-color="#AA705D"/>
<stop offset="1" stop-color="#7F6953"/>
</linearGradient>
</defs>
</svg>
