<svg width="60" height="60" viewBox="0 0 60 60" fill="none" xmlns="http://www.w3.org/2000/svg">
<g clip-path="url(#clip0_78_4403)">
<path fill-rule="evenodd" clip-rule="evenodd" d="M32.7707 23.8318H32.602V23.7477H32.2925V23.8318H32.0956V23.9439H31.8987V24.028H31.7018V24.1402H31.6174V24.2243H31.5331V24.3084H31.4205V24.4206H31.3361V24.6168H31.2236V24.7009H31.1392V24.785H31.0549V24.9813H30.9423V25.0935H30.8579V25.2617H30.661V25.3738H30.5767V25.5701H30.4641V25.6542H30.3797V25.7383H30.2954C30.2934 25.7458 30.2917 25.7533 30.2897 25.7607L30.2672 25.7664V25.9346H30.1828V26.0467H30.0985V26.215H29.9015V26.5234H29.7046V26.6075H29.6203V26.8037H29.5077V26.8878H29.4233V27.0841H29.3108V27.1682H29.2264V27.2804H29.1421V27.4766H29.0295V27.5607H28.9451V27.6449H28.8608C28.8588 27.6524 28.8571 27.6599 28.8551 27.6673L28.8326 27.6729V27.8411H28.7482V28.0374H28.5513V28.2336H28.4669V28.3178H28.3544V28.514H28.27V28.5981H28.1857V28.7103H28.0731V28.8785H27.9887V28.9907H27.9044V29.0748H27.7918V29.1869H27.7075V29.3551H27.5949V29.4673H27.5105V29.5514H27.4262V29.7477H27.3136V29.8318H27.2293V29.9439H27.1167V30.1402H27.0323V30.2243H26.948V30.3084H26.8354V30.5047H26.7511V30.6168H26.6385V30.7009H26.5541V30.8972H26.3572V31.0935H26.2729V31.1776H26.1603V31.2617H26.0759V31.4579H25.9916V31.5701H25.879V31.7383H25.7947V31.8505H25.6821V31.9346H25.5977V32.0467H25.5134V32.215H25.4008V32.3271H25.2039V32.6075H25.1195V32.6916H24.9226V32.8878H24.8383V33H24.7257V33.1682H24.6413V33.2804H24.557V33.3645H24.4444V33.5607H24.3601V33.6449H24.2757L24.2475 33.757H24.1632V33.9533H24.0788V34.0374H23.9662V34.1215H23.8819V34.2336H23.7693V34.4299H23.6849V34.514H23.6006V34.5981H23.488V34.7944H23.4037V34.8785H23.3193V34.9907H23.2067V35.1869H23.1224V35.271H23.0098V35.4673H22.9255V35.5514H22.8411V35.6636H22.7286V35.8318H22.6442V35.9439H22.5316V36.028H22.4473V36.2243H22.3629V36.3084H22.2504V36.5047H22.166V36.6168H22.0534V36.7009H21.9691V36.8972H21.8847V36.9813H21.7722V37.0935H21.6878V37.2617H21.6034L21.5752 37.3738H21.4909V37.5701H21.4065V37.7383H21.294V37.9346H21.2096V38.1308H21.097V38.3271H21.0127V38.5234H20.9283V39H21.0127V39.1121H21.097C21.0959 39.1682 21.0958 39.2243 21.097 39.2804L21.2096 39.3084V39.4766H21.294V39.6729H21.4065V39.8692H21.4909V39.9533H21.5752V40.1495H21.6878V40.2617H21.7722V40.3458H21.8847V40.4299H21.9691V40.7383H22.166V40.9065H22.2504V41.0187H22.3629V41.215H22.5316V41.3832H22.6442V41.5794H22.7286V41.6916H22.8411V41.7757H22.9255V41.8598H23.0098V42.0561H23.1224V42.1682H23.2067V42.2523H23.3193V42.4486H23.4037V42.5327H23.488V42.6168L23.6006 42.6449V42.729H23.6849V42.9252H23.7693V43.0093H23.8819V43.2056H24.0788V43.4019H24.1632V43.5701H24.2475V43.6822H24.3601V43.7664H24.4444V43.9626H24.557V44.0467H24.6413V44.1589H24.7257V44.243H24.8383V44.4393H24.9226V44.5234H25.0352V44.6355H25.1195V44.8318H25.2039V45H25.4008V45.1963H25.5134V45.3084H25.5977V45.4766H25.6821V45.5888H25.7947V45.6729H25.879V45.8692H25.9916V45.9533H26.0759V46.0654H26.1603V46.1495H26.2729V46.3458H26.3572V46.5421H26.4698V46.6262H26.5541V46.7383H26.6385V46.9065H26.7511V47.0187H26.8354V47.1028H26.948V47.2991H27.0323V47.3832H27.1167V47.4953H27.2293V47.5794H27.3136V47.7757H27.4262V47.972H27.5949V48.1402L27.7075 48.1682V48.3364H27.7918V48.4486H27.9044V48.5327H27.9887V48.6449H28.0731V48.8131H28.1857V48.9252H28.2686C28.2688 48.9402 28.2691 48.957 28.2695 48.9762C28.2696 48.9866 28.2698 48.9976 28.27 49.0093H28.3544V49.0935H28.4669V49.2897H28.5513V49.4019H28.6639V49.486H28.7482V49.6822H28.8326V49.7663H28.9451V49.8785H29.0295V49.9626H29.1421V50.1589H29.2264V50.243H29.3108V50.3551H29.4233V50.4392H29.5077V50.6355H29.6203V50.7196H29.7046V50.8318H29.789C29.7879 50.8878 29.7879 50.9439 29.789 51H29.9015V51.1963H29.9859V51.3084H30.1828V51.5888H30.2672V51.6729H30.3797V51.785H30.4641V51.8692H30.5767V51.9533H30.661V52.1495H30.7454V52.2336L30.8579 52.2617V52.3458H30.9423V52.5421H31.0549V52.6262H31.1392V52.8224H31.2236V52.9065H31.3361V53.1028H31.4205V53.215H31.5331V53.2991H31.6174V53.4953H31.7018V53.6636L31.8143 53.6916V53.8598H31.8987V54.0561H32.0112V55.6822H32.0956V56.4393H32.18V56.7196H32.2925V56.8318H32.3769V56.9159H32.7707V57H39.3812V56.9159H39.6624V56.8318H39.8594V56.7196H39.9437V56.6355H40.0563V56.5234H40.1406V56.4393H40.225V56.243H40.3376V56.1589H40.4219V56.0467H40.5345V55.9626H40.6188V55.7664H40.7032V55.6822H40.8158V55.5701H40.9001V55.486H41.0127V55.2897H41.097V55.2056H41.1814V55.0935H41.2939V55.0093H41.3783V54.8131H41.4909V54.729H41.5752V54.6449H41.6596V54.4486H41.7721V54.3364H41.8565V54.2523H41.9691V54.0561H42.0534V53.972H42.1378V53.7757H42.3347V53.6916H42.4191C42.4201 53.6878 42.421 53.6841 42.4219 53.6804C42.4229 53.6767 42.4238 53.6729 42.4248 53.6692C42.4279 53.6683 42.4313 53.6675 42.4349 53.6666C42.4387 53.6657 42.4428 53.6647 42.4473 53.6636V53.3832H42.616V53.215H42.7285V53.1028H42.8129V53.0187H42.8973V52.8224H43.0098V52.7383H43.0942V52.6262H43.2068V52.4299H43.2911V52.3458H43.3755V52.2617H43.488V52.0654H43.5724V51.9533H43.685V51.8692H43.7693V51.785H43.8537V51.5888H43.9662V51.4766H44.0506V51.3925H44.1631V51.3084H44.2475V51.1121H44.3319V51H44.4444V50.9159H44.5288V50.7196H44.6413V50.6355H44.7257V50.5234H44.8101V50.4392H44.9226V50.243H45.007V50.1589H45.1195V50.0467H45.2039V49.8785H45.2883V49.7663H45.4008V49.5701H45.4852V49.486H45.5977V49.4019H45.6821V49.2056H45.7665V49.0935H45.879V49.0093H45.9634V48.9252H46.0478C46.0498 48.9177 46.0515 48.9101 46.0534 48.9028L46.076 48.8972V48.729H46.1603V48.6449H46.2447V48.5327H46.3572V48.3364H46.4416V48.2523H46.5541V48.1682H46.6385V47.972H46.7229V47.8598H46.8354V47.6916H46.9198V47.5794H47.0323V47.4953H47.1167V47.2991H47.3136V47.1028H47.398V47.0187H47.4824V46.8224H47.5949V46.7383H47.6793V46.6262H47.7918V46.5421H47.8762V46.3458H47.9606V46.2617H48.0731V46.1495H48.1575V45.9533H48.27V45.8692H48.3544V45.785H48.4388V45.6729H48.5513V45.4766H48.6357V45.3925H48.7482V45.3084H48.8326V45.1121H48.917V44.9159H49.0295V44.8318H49.1139V44.7196H49.2264V44.6355H49.3108V44.4393H49.3952V44.3551H49.5077V44.243H49.5921V44.1589H49.7046V44.0467H49.789V43.8785H49.8734V43.7664H49.9859V43.5701H50.0703V43.486H50.1828V43.4019H50.2672V43.2897H50.3516V43.0935H50.4641V43.0093H50.5485V42.9252H50.6329L50.661 42.8131H50.7454V42.6449H50.8298V42.5327H50.9423V42.4486H51.0267V42.2523H51.1392V42.1682H51.2236V42.0561H51.308V41.8598H51.4205V41.7757H51.5049V41.5794H51.5893V41.4953H51.7862V41.2991H51.8987V41.215H51.9831V41.1028H52.0675V40.9065H52.18V40.8224H52.2644V40.6262H52.3769V40.5421H52.4613V40.4299H52.5457V40.2617H52.6582V40.1495H52.7426V40.0654H52.8551V39.9533H52.9395V39.785H53.0239V39.6729H53.1364V39.5888H53.2208V39.3925H53.4177V39.1963H53.5021V39.1121H53.6146V38.9159H53.699V38.8318H53.7834L53.8115 38.7196H53.8959V38.6355H53.9803V38.4393H54.0928V38.3551H54.1772V38.243H54.2897V38.1589H54.3741V37.9626H54.4585V37.8785H54.571V37.7664H54.6554V37.5701H54.7679V37.486H54.8523V37.4019H54.9367V37.2056H55.0492V37.0935H55.1336V37.0093H55.2461V36.8131H55.4149V36.5336C55.4523 36.5336 55.49 36.5336 55.5274 36.5327H55.6118V36.4486H55.6962C55.6972 36.4448 55.6981 36.4411 55.699 36.4374C55.6999 36.4337 55.7008 36.43 55.7018 36.4262C55.7094 36.4242 55.7167 36.4225 55.7243 36.4206V36.2523H55.8087V36.1682H55.8931V35.972H56.0056V35.8598H56.09V35.7757H56.1744V35.6916H56.2869V35.4953H56.3713V35.3832H56.4838V35.215H56.5682V35.1028H56.6526V35.0187H56.7651V34.9065H56.8495V34.7383H57.0464V34.5421H57.1308V34.4299H57.2433V34.3458H57.3277V34.2617L57.4402 34.2336V34.0654H57.5246V33.9533H57.609V33.785H57.7215V33.6729H57.8059V33.5888H57.9184V33.3925H58.0028V33.3084H58.0872V33.1963H58.1997V33.1122H58.2841V32.9159H58.3966V32.8318H58.481V32.7196H58.5654V32.6355H58.6779V32.4393H58.7623V32.243H58.8748V32.1589H58.9592V32.0467H59.0436V31.8785H59.1561V31.7664H59.2405V31.6822H59.353V31.486H59.4374V31.2897H59.5218V31.0935H59.6343V30.9252H59.7187V30.2243H59.6343V30.1402H49.2827V30.2243H49.0858V30.3084H49.0014V30.5047H48.917V30.6168H48.8045V30.7009H48.7201V30.785H48.6076V30.8972H48.5232V31.0935H48.3263V31.1776H48.2419V31.3738H48.1294V31.4579H48.045V31.5701H47.9606V31.7383H47.8481V31.8505H47.7637V31.9346H47.6512V32.0467H47.5668V32.215H47.4824V32.3271H47.3699V32.4112H47.2855V32.5234H47.173V32.6916H47.0886V32.8037H47.0042V32.8878H46.8917V33H46.8073V33.1682H46.7229L46.6948 33.2804H46.6104V33.3645H46.526V33.5607H46.4135V33.6449H46.3291V33.757H46.2166V33.8411H46.1322V34.0374H46.0478V34.1215H45.9353V34.2336H45.8509V34.3178H45.7384V34.4299H45.654V34.5981H45.5696V34.7103H45.4571V34.7944H45.3727V34.9907H45.2883V35.0748H45.1758V35.1869H45.0914V35.3551H44.9789V35.4673H44.8945V35.5514H44.8101V35.6636H44.6976V35.8318H44.6132V35.9439H44.5007V36.028H44.4163V36.1402H44.3319V36.3084H44.2194V36.4206H44.135V36.5047H44.0225V36.7009H43.9381V36.785H43.8537V36.8972H43.7412V36.9813H43.6568V37.1776H43.5443V37.2617H43.4599V37.3738H43.3755V37.5701H43.263V37.6542H43.1786V37.7383H43.0942L43.0661 37.8505H42.9817V38.0467H42.8973V38.1308H42.7848V38.3271H42.7004V38.4112H42.5879V38.5234H42.5035V38.6916H42.4191V38.8037H42.3066V38.8878H42.2222V39H42.1097V39.0841H42.0253V39.1682H41.9409V39.3645H41.8284V39.4766H41.744V39.6449H41.6596L41.654 39.6673C41.6464 39.6693 41.6391 39.6709 41.6315 39.6729L41.6399 39.7234L41.6315 39.757H41.5471V39.8411H41.4627V40.0374H41.3502V40.1215H41.2658V40.2336H41.1533V40.3178H41.0689V40.514H40.9845V40.5981H40.872V40.7103H40.7876V40.7944H40.7032V40.9907H40.5907V41.0748H40.5063V41.1869H40.3938V41.3551H40.3094V41.4673H40.225V41.6635H40.0281V41.8318H39.9156V41.9439H39.8312V42.028H39.7468V42.2243H39.6343V42.3084H39.5499V42.4206H39.4374V42.6168H39.353V42.7009H39.2686V42.8972H39.1561V42.9813H39.0717V43.0935H38.9592V43.1776H38.8748V43.3738H38.7904V43.4579H38.6779V43.5701H38.5935V43.6542H38.481V43.7383H38.3966V43.9346H38.3122V44.0467H38.1997V44.1308H38.1153V44.3271H38.0028V44.4112H37.9184V44.5234H37.834V44.6916H37.7215V44.8037H37.6653V44.6916H37.5527V44.6075H37.4684V44.5234H37.384V44.3271H37.2714V44.215H37.1871V44.1308H37.0745V44.0467H36.9902V43.8505H36.9058V43.7664L36.7932 43.7383V43.6542H36.71C36.7097 43.6304 36.7094 43.6026 36.7089 43.5701V43.4579H36.5963V43.3738H36.512V43.2617H36.4276V43.0935H36.315V42.9813H36.2307V42.785H36.1181V42.7009H36.0338V42.6168H35.9494V42.4206H35.8368V42.3084H35.7525V42.2243H35.6399V42.1402H35.5556V41.9439H35.4712V41.8598L35.3587 41.8318V41.6635H35.2743V41.5514H35.1617V41.3551H35.0774V41.271H34.993V41.1869H34.8804V40.9907H34.7961V40.8785H34.6835V40.7944H34.5992V40.7103H34.5148V40.514H34.4023V40.3178H34.3179V40.2336H34.2053V40.1215H34.121V39.9533H34.0366V39.8411H33.924V39.6449H33.8397V39.5607H33.7553V39.1963H33.8397V39.1121H33.924V39H34.0366V38.9159H34.121V38.7196H34.2053V38.6355H34.3179V38.5234H34.4023V38.4393H34.5148V38.243H34.5992V38.1589H34.6835V38.0467H34.7961V37.9626H34.8804V37.8785H34.993V37.7664H35.0774V37.5701H35.1617V37.486H35.2743V37.2897H35.3587V37.2056H35.5556V37.0093H35.6399V36.9252H35.7525V36.8131H35.8368V36.729H35.9494V36.5327H36.0338V36.4486H36.1181V36.3364H36.2307V36.2523H36.315V36.0561H36.4276V35.972H36.512V35.8598H36.5963V35.7757H36.7089V35.5794H36.7932V35.4953H36.8776L36.9058 35.3832H36.9902V35.215H37.0745V35.1028H37.1871V35.0187H37.2714V34.9065H37.384V34.7383H37.4684V34.6262H37.5527V34.5421H37.6653V34.3458H37.7496V34.2617H37.834C37.8349 34.2583 37.8357 34.2549 37.8366 34.2516C37.8376 34.2474 37.8386 34.2433 37.8397 34.2392L37.8622 34.2336V34.0654H37.9466V33.9533H38.0309V33.8692H38.1435V33.6729H38.2278V33.5888H38.3404V33.3925H38.4248V33.3084H38.5091V33.1122H38.6217V32.9159H38.706V32.8318H38.7904V32.4393H38.903V31.7383H38.7904V31.4579H38.706V31.2617H38.6217V31.1776H38.5091V30.9813H38.4248V30.8972H38.3404V30.7009H38.2278V30.6168H38.1435V30.4206H38.0309V30.3084H37.9466V30.2243H37.8622V30.1402H37.7496V29.9439H37.6653V29.7477H37.4684V29.5514H37.384V29.3832L37.2714 29.3551V29.271H37.1871V29.1869H37.0745V29.0748H36.9902V28.8785H36.9058V28.7944H36.7932V28.7103H36.7089V28.514H36.5963V28.3178H36.4276V28.1215H36.315V27.9533H36.2307V27.8411H36.1181V27.757H36.0338V27.6449H35.9494V27.4766H35.8368V27.3645H35.7525V27.2804H35.6399V27.0841H35.5556V27H35.4712V26.8878H35.3587V26.6916H35.2743V26.6075H35.1617V26.4112H35.0774V26.3271H34.993V26.243L34.8804 26.215V26.0467H34.7961V25.9346H34.6835V25.8505H34.5992V25.7383H34.5148V25.5701H34.4023V25.4579H34.3179V25.3738H34.2053V25.2617H34.121V25.0935H34.0366V24.9813H33.924V24.8972H33.8397V24.785H33.7553V24.7009H33.6428V24.6168H33.5584V24.5047H33.4459V24.4206H33.3615V24.3084H33.2771V24.2243H33.1646V24.1402H33.0802V24.028H32.9677V23.9439H32.7989L32.7882 23.9018C32.79 23.8949 32.7918 23.888 32.7936 23.881C32.7954 23.874 32.7972 23.8669 32.7989 23.8598L32.7766 23.8554L32.7707 23.8318ZM58.2841 20.3271H58.1997V20.215H51.1955V20.3271H50.8017V20.4112H50.7173V20.6075H50.6329V28.2617H50.7173V28.6262H50.8017V28.7103L50.8242 28.7159L50.8298 28.7383H50.9986V28.8224H58.0872V28.7383H58.2841V28.6262H58.3966V23.271H58.2841V20.3271Z" fill="black"/>
<path d="M50.9423 3.08411H59.9156V3.16822H60V3.58879H59.9156V3.6729H59.8312L59.8031 3.78505H59.7187V3.86916H59.6343V4.06542H59.5218V4.14953H59.4374V4.26168H59.353V4.42991H59.2405V4.54206H59.1561V4.62617H59.0436V4.82243H58.9592V4.90654H58.8748V5.01869H58.7623V5.1028H58.6779V5.29907H58.5654V5.38318H58.481V5.49533H58.3966V5.57944H58.2841V5.85981H58.1997V5.97196H58.0872V6.05607H58.0028V6.25234H57.9184V6.33645H57.8059V6.4486H57.7215V6.64486H57.609V6.72897H57.5246V6.92523H57.4402V7.00935H57.3277V7.09346H57.2433V7.28972H57.1308V7.40187H57.0464V7.57009H56.962V7.68224H56.8495V7.8785H56.7651V7.96262H56.6526V8.04673H56.5682V8.15888H56.4838V8.35514H56.3713V8.43925H56.2869V8.52336H56.1744V8.71963H56.09V8.83178H56.0056V8.91589H55.8931V9.11215H55.8087V9.19626H55.7243L55.6962 9.30841H55.6118V9.39252H55.5274V9.58878H55.4149V9.6729H55.3305V9.86916H55.2461V9.95327H55.0492V10.2617H54.8523V10.3458H54.7679V10.5421H54.6554V10.6262H54.571V10.8224H54.4585V10.9065H54.3741V11.1028H54.2897L54.2616 11.215H54.1772V11.2991H54.0928V11.3832H53.9803V11.5794H53.8959V11.6916H53.8115V11.7757H53.699V11.8598H53.6146V12.0561H53.5021V12.1682H53.4177V12.2523H53.3333V12.4206L53.3108 12.4261C53.3089 12.4336 53.3072 12.4411 53.3052 12.4486H53.2208V12.5327H53.1364V12.729H53.0239V12.8131H52.9395V12.9252H52.8551V13.0093H52.7426V13.0935H52.6582V13.2056H52.5457V13.4019H52.4613V13.486H52.3769V13.6822H52.2644V13.7664H52.18V13.9626H52.0675V14.0467H51.9831V14.1589H51.8987V14.243H51.7862V14.4393H51.7018V14.5234H51.5893V14.6355H51.5049V14.8318H51.4205V14.9159H51.308V15H51.2236V15.1963H51.1392L51.1111 15.3084H51.0267V15.4766H50.9423V15.5888H50.8298V15.6729H50.7454V15.8692H50.661V15.9533H50.5485V16.0654H50.4641V16.1495H50.3516V16.3458H50.2672V16.5421H50.1828V16.6262H50.0703V16.7383H49.9859V16.8224H49.8734V17.0187H49.789V17.1028H49.7046L49.6765 17.215H49.5921V17.3832H49.5077V17.4953H49.3108V17.6916H49.2264V17.7757H49.1139V17.972H49.0295V18.0561H48.917V18.1682H48.8326V18.2523H48.7482V18.4206L48.7257 18.4261C48.7238 18.4336 48.7221 18.4411 48.7201 18.4486H48.6357V18.5327H48.5513V18.729H48.4388V18.8131H48.3544V18.9252H48.27V19.0093H48.1575V19.2056H48.0731V19.2897H47.9606V19.4019H47.8762V19.5701H47.7918V19.6822H47.6793V19.7664H47.5949V19.8785H47.4824V19.9626H47.398V20.1589H47.3136V20.243H47.2011V20.3551H47.1167V20.5234H47.0323V20.6355H46.9198V20.7196H46.8354V20.8318H46.7229V21H46.6385V21.1121H46.5541V21.1963H46.4416V21.3925H46.3572V21.4766H46.2447V21.5888H46.1603V21.6263C46.1634 21.6765 46.1612 21.7273 46.1603 21.785H46.076V21.8692H45.9634V22.0654H45.879V22.1495H45.7665V22.2617H45.6821V22.4299H45.5977V22.5421H45.4852V22.6262H45.4008V22.7383H45.2883V22.9065H45.2039V23.0187H45.1195V23.1869L45.097 23.1925C45.0951 23.2 45.0934 23.2074 45.0914 23.215H45.007V23.2991H44.9226V23.4953H44.8101V23.5794H44.7257V23.6916H44.6413V23.8598H44.5288V23.972H44.4444V24.0561H44.3319V24.2523H44.2475V24.4486H44.1631V24.5327H44.0506V24.6449H43.9662V24.729H43.8537V24.9252H43.7693V25.0093H43.685V25.0935H43.5724V25.2056H43.488V25.4019H43.3755V25.486H43.2911V25.5701H43.2068V25.6822H43.0942V25.8785H43.0098V25.9626H42.8973V26.0467H42.8129V26.1589H42.7285V26.243H42.616V26.3551H42.5316V26.4393H42.4473V26.5234H42.3347V26.6355H42.2504V26.7196H42.1378V26.8318H41.5471V26.7196H41.4627V26.6355H41.3502C41.3491 26.5701 41.3491 26.5047 41.3502 26.4393H41.2734C41.234 26.4401 41.1941 26.44 41.1533 26.4393V26.3551H41.0689V26.1589H40.9845V26.0467H40.872V25.9626H40.7876V25.8785H40.7032V25.6822H40.5063V25.486H40.3938V25.4019H40.3094V25.2056H40.225V25.0935H40.1125V25.0093H40.0281V24.8131H39.9156V24.6449H39.7468V24.4486H39.6343V24.3364H39.5499V24.2523H39.4374V24.0561H39.353V23.972H39.2686V23.7757H39.1561V23.6916H39.0717V23.5794H38.9592V23.4953H38.8748V23.2991H38.7904V23.215H38.6779V23.1028H38.5935V22.9065H38.481V22.8224H38.3966V22.7383H38.3122V22.6262H38.1997V22.4299H38.1153V22.3458H38.0028V22.1495H37.834V21.9533H37.7215V21.8692H37.6371V21.785L37.5246 21.757V21.5888H37.4402V21.3925H37.3558V21.3084L37.2433 21.2804V21.1963H37.1589V21.1121H37.0464V20.9168C37.0194 20.917 36.9916 20.9164 36.962 20.9159V20.8318H36.8776V20.7196H36.7651V20.6355H36.6807V20.4393H36.5963V20.3551H36.4838V20.243H36.3994V20.0467H36.2869V19.9626H36.2025V19.8785H36.1181V19.7664H36.0056V19.5701H35.9212V19.486H35.8087V19.4019H35.7243V19.2056H35.6399V19.0935H35.5274V18.9252H35.443V18.8131H35.3305V18.729H35.2461V18.5327H35.1617V18.4486H35.0492V18.3364H34.9648V18.1682L34.8523 18.1402V18.0561H34.7679V17.8598H34.6835V17.7757H34.571V17.6916H34.4866V17.4953H34.3741V17.3832H34.2897V17.2991H34.2053V17.1028H34.0928V17.0187H34.0084V16.9065H33.8959V16.8224H33.8115V16.7383H33.7271V16.5421H33.6146V16.4299H33.5302V16.3458H33.4177V16.2617H33.3333V16.1495H33.2489V16.0654H33.1364V15.8692H33.052V15.785L33.0214 15.7774L32.9677 15.785L32.962 15.7626L32.9395 15.757V15.6729H32.8551V15.5888H32.7707V15.3925H32.6582V15.3084L32.5755 15.3102C32.4895 15.3084 32.4894 15.3084 32.4613 15.2804C32.4602 15.2243 32.4602 15.1682 32.4613 15.1121H32.3769V14.9159H32.18V14.8318H32.0956V14.7196H32.0112V14.5234H31.8987V14.4393H31.7018V14.3551H31.6456V14.5234H31.5331V14.6355H31.4487V14.7196H31.3643L31.3361 14.8318H31.2518V15H31.1674V15.1121H31.0549V15.1963H30.9705V15.3084H30.8861V15.3546C30.8877 15.3923 30.887 15.4308 30.8861 15.4729L30.8861 15.4766H30.7736V15.5888H30.6892V15.6729H30.5767V15.785H30.4923V15.9533H30.4079V16.0654C30.3094 16.0673 30.2574 16.0683 30.2194 16.0654H30.211V16.2617H30.0985V16.3458H30.0141V16.4299H29.9297V16.5421H29.8172V16.7383H29.7328V16.8224H29.6484V17.0187H29.5359V17.1028H29.4515V17.215H29.339V17.3832H29.2546V17.4953H29.1702V17.5794H29.0577V17.6537C29.0593 17.6913 29.0586 17.7299 29.0577 17.7719L29.0577 17.7757H28.9733V17.8598H28.8608V17.972H28.7764V18.1682H28.692V18.2523H28.5795V18.4486H28.4951V18.5327H28.3826V18.6449H28.2982V18.8131H28.2138L28.1857 18.9252H28.1013V19.0093H28.0169V19.2056H27.9044V19.2897H27.82V19.4019H27.7356V19.486H27.6231V19.6822H27.5387V19.7664H27.4262V19.8785H27.3418V19.9626H27.2574V20.1589H27.1449V20.243H27.0605V20.3551H26.948V20.5234H26.8636V20.6355H26.7792V20.7196H26.6667V20.8318H26.5823V21H26.4698V21.1121H26.3854V21.1963H26.301V21.3925H26.1885V21.4766H26.1041V21.5888H25.9916V21.6729H25.9072V21.785H25.8228V21.9533H25.7103V22.0654H25.6259V22.1495H25.5134V22.3458H25.429V22.4299H25.3446V22.5421H25.2321V22.7383H25.1477V22.8224H25.0633V22.9065H24.9508V23.0187H24.8664V23.1028H24.7539V23.2991H24.6695V23.3832H24.5851L24.557 23.4953H24.4726V23.5794H24.3882V23.7757H24.2757V23.972H24.1069V24.1402L24.0844 24.1458L24.0788 24.1682H23.9944V24.2523H23.91V24.3364H23.7975V24.4486H23.7131V24.6449H23.6287V24.729H23.5162V24.8131H23.4318V25.0093H23.3193V25.0935H23.2349V25.2897H23.1505L23.1224 25.4019H23.038V25.486H22.9536V25.6822H22.8411V25.7664H22.7567V25.8785H22.6723V25.9626H22.5598V26.1589H22.4754V26.243H22.3629V26.3551H22.2785V26.5234H22.1941V26.6355H22.0816V26.8318H21.8847V27H21.8003V27.1963H21.6034V27.3925H21.519V27.5888H21.4065V27.6729H21.3221V27.785H21.2388C21.2388 27.7953 21.2387 27.8056 21.2385 27.8159L21.2377 27.8692H21.1252V28.0654H21.0408V28.1495H20.9564L20.9283 28.2617H20.8439V28.3458H20.7595V28.5421H20.647V28.6262H20.5626V28.7383H20.4782V28.8224H20.3657V28.9065H20.2813V29.0187H20.1688V29.1028H20.0844V29.2991H20V29.3832H19.3812V29.2991H19.2968V29.215H19.2124V29.1028H19.0999V29.0187H19.0155V28.9065H18.903V28.8224H18.8186V28.7383H18.7342V28.5421H18.6217V28.4299H18.5373V28.3458H18.4248V28.2617H18.3404V28.1495H18.256V27.9533H18.1435V27.8692H18.0591V27.785L17.9466 27.757V27.5888H17.8622V27.4766H17.7778V27.3925H17.6653V27.3084H17.5809V27.1963H17.4684V27.1121H17.384V26.9159H17.2996V26.8318H17.1871V26.7196H17.1027V26.5234H16.9902V26.4393H16.9058V26.243H16.8214V26.1589H16.7089V26.0467H16.6245V25.8785H16.512V25.6822H16.4276V25.5701H16.3432V25.486H16.2307V25.4019H16.1463V25.2056H16.0338V25.0093H15.865V24.8131H15.7525V24.6449H15.6681V24.5327H15.5556V24.4486H15.4712V24.2523H15.3868V24.1682L15.2743 24.1402V24.0561H15.1899V23.8598H15.0774V23.6916H14.993V23.5794H14.7961V23.3832H14.7117V23.215H14.6273V23.1028H14.5148V23.0187H14.4304V22.9065H14.3179V22.7383H14.2335V22.6262H14.1491V22.4299H14.0366V22.3458H13.9522V22.2617L13.8397 22.2336V22.1495H13.7553V22.0654H13.6709V21.8692H13.5584V21.785H13.474V21.6729H13.3615V21.5888H13.2771V21.3925H13.1927V21.1963H13.0802V21.1121H12.9958V21H12.8833V20.9159H12.7989V20.7196H12.7145V20.6355H12.602V20.5234H12.5176V20.3551H12.4051V20.243H12.3207V20.1589H12.2363V19.9626H12.1238V19.8785H12.0394V19.7664H11.9269V19.5701H11.8425V19.4019H11.7581V19.2897H11.6456V19.2056H11.5612V19.0935H11.4487V18.9252H11.3643V18.8131H11.2799V18.729H11.1674V18.5327H11.083V18.4486H10.9705V18.3364H10.8861V18.1682H10.8017V18.0561H10.6892V17.972H10.6048V17.7757H10.5204V17.6916H10.4079V17.4953H10.3235V17.3832H10.211V17.2991H10.1266V17.215H10.0422V17.0187H9.92968V16.9065H9.84529V16.8224H9.73277V16.7383H9.64838V16.5421H9.56399V16.3458H9.36709V16.1495H9.25457V16.0654H9.17018V15.9533H9.08579V15.785H8.97328V15.6729H8.88889V15.5904L8.82976 15.5898L8.77637 15.5888V15.3925H8.69198V15.3084H8.60759V15.1121H8.49508V15H8.41069V14.9159H8.29817V14.7196H8.21378V14.6355H8.1294V14.5234H8.01688V14.4393H7.93249V14.243H7.81997C7.8184 14.1592 7.81755 14.1133 7.81997 14.0793V14.0467H7.73558V13.9626H7.6512V13.8785H7.53868V13.7664H7.45429V13.5701H7.34177V13.486H7.25738V13.4019H7.173V13.2056H7.06048V13.0935H6.97609V13.0093H6.86357V12.9252H6.77918V12.729H6.6948V12.6449L6.58228 12.6168V12.5327H6.49789V12.3364H6.38537V12.1682H6.30098V12.0561H6.2166V11.972H6.10408V11.8598H6.01969V11.6916H5.9353V11.5794H5.82278V11.4953H5.7384V11.2991H5.62588V11.215H5.54149V11.1028H5.4571V10.9065H5.34458V10.8224H5.2602V10.7383L5.14768 10.7103V10.5421H5.06329V10.4299H4.9789V10.2617H4.86638V10.1495H4.782V10.0654H4.66948V9.86916H4.58509V9.78505H4.5007V9.6729H4.38819V9.47664H4.3038V9.39252H4.19128V9.19626H4.10689V9.11215H4.0225V9H3.90999V8.83178H3.8256V8.71963H3.71308V8.63551H3.62869V8.43925H3.5443V8.35514H3.43179V8.24299H3.3474V8.04673H3.23488V7.96262H3.15049V7.76636H3.0661V7.68224H2.95359V7.57009H2.8692V7.40187H2.75668V7.28972H2.67229V7.20561H2.5879V7.00935H2.47539V6.81308H2.391V6.72897H2.27848V6.64486H2.19409V6.53271H2.1097V6.33645H1.99719V6.16822H1.9128V6.05607H1.82841V5.97196H1.71589V5.7757H1.6315V5.69159L1.51899 5.66355V5.57944H1.4346V5.38318H1.35021V5.21495H1.15331V5.01869H1.04079V4.90654H0.956399V4.82243H0.872011V4.73832H0.759494V4.54206H0.675106V4.42991H0.562588V4.34579H0.4782V4.14953H0.393812V4.06542H0.281294V3.86916H0.196906V3.78505L0.0843882 3.75701V3.6729H0V3.08411H0.984529V3.16822H1.51899V3.08411H6.4135V3.16822H11.1674V3.08411H12.0675V3.16822H12.1251C12.1679 3.16635 12.2113 3.1672 12.2563 3.16807L12.2644 3.16822V3.36449H12.3488V3.47664H12.4332V3.64486H12.5457V3.84112H12.7145V4.03738H12.827V4.23364H12.9114V4.31776H13.0239V4.42991H13.1083V4.59813H13.1927V4.71028H13.3052V4.8785H13.3896V4.99065H13.5021V5.07477H13.5865V5.27103H13.6709V5.35514H13.7834V5.5514H13.8678V5.66355H13.9803L14.0044 5.83178H14.0647V5.94393H14.1491V6.02804H14.2616V6.2243H14.346V6.30841L14.4585 6.33645V6.42056H14.5429V6.61682H14.6273V6.78505H14.7398V6.8972H14.8242V6.98131H14.9367V7.09346H15.0211V7.26168H15.1055V7.37383H15.218V7.45794H15.3024V7.57009H15.4149V7.85047H15.5837V8.04673H15.6962V8.13084H15.7806V8.3271H15.8931V8.41121H15.9775V8.52336H16.0619V8.69159H16.1744V8.80374H16.2588V8.88785H16.3713V9.08411H16.4557V9.28037H16.5401V9.36449H16.6526V9.47664H16.737V9.56075H16.8214V9.75701H16.9339V9.84112H17.0183V9.95327H17.1308V10.1215H17.2152V10.3178H17.4121V10.514H17.4965V10.7103H17.609V10.7944H17.6934V10.8785H17.7778V11.0748H17.8903V11.271H17.9747V11.3551L18.0872 11.3832V11.4673H18.1716V11.6636H18.256V11.7477H18.3685V11.9439H18.4529V12.028H18.5654V12.2243H18.6498V12.3084H18.7342V12.5047H18.8467V12.6168H18.9311V12.7009H19.0436V12.785H19.128V12.8972H19.2124V12.9813H19.3249V13.1776H19.4093V13.2617L19.5218 13.2897V13.3738H19.6906V13.5701H19.9719V13.4579H20.0563V13.3738H20.1406L20.1688 13.2617H20.2532V13.0935H20.3376V12.9813H20.4501V12.8972H20.5345V12.785H20.6188V12.7009H20.7314V12.5047H20.8158V12.4206H20.9283V12.3084H21.0127V12.2243H21.097V12.1402H21.2096V11.9439H21.294V11.8318H21.4065V11.7477H21.4909V11.5514H21.5752V11.3832L21.5977 11.3776L21.6034 11.3551H21.6878V11.271H21.7722V11.1869H21.8847V11.0748H21.9691V10.8785H22.0534V10.7944H22.166V10.7103H22.2504V10.514H22.3629V10.4299H22.4473V10.3178H22.5316V10.1215H22.6442V10.0374H22.7286V9.95327H22.8411V9.75701H23.0098V9.56075H23.1224V9.47664H23.2067V9.36449H23.3193V9.28037H23.4037V9.08411H23.488V9H23.6006V8.88785H23.6849V8.80374H23.7693V8.60748H23.9662V8.52336H24.0788V8.3271H24.1632V8.21495H24.2475V8.13084H24.3601V7.93458H24.4444V7.85047H24.557V7.73832H24.6413V7.57009H24.8383V7.37383H24.9226V7.17757H25.0352V7.09346H25.1195V6.98131H25.2039V6.81308L25.2264 6.80748L25.2321 6.78505H25.3165V6.70093H25.4008V6.61682H25.5134V6.42056H25.5977V6.30841H25.6821V6.2243H25.7947V6.14019H25.879V5.94393H25.9916V5.74766H26.1603V5.57944L26.1828 5.57383L26.1885 5.5514H26.2729V5.35514H26.4698V5.18692H26.5541V5.07477H26.6385V4.99065H26.7511V4.79439H26.8354V4.71028H26.948V4.59813H27.0323V4.42991H27.1167V4.31776H27.2293V4.23364H27.3136V4.03738H27.4262V3.95327H27.5105V3.84112H27.5949V3.75701H27.7075V3.64486H27.7918V3.47664H27.9887V3.36449H28.0731V3.16822H28.27V3.08411H29.339V3.16822H35.5556V3.28037H35.6399V3.36449H35.7525V3.47664H35.8368V3.56075H35.9494V3.84112H36.0338V3.95327H36.1181V4.03738H36.2307V4.23364H36.315V4.31776H36.4276C36.4295 4.41586 36.4304 4.46775 36.4276 4.50567V4.51402H36.512V4.59813H36.5963V4.71028H36.7089V4.8785H36.7932V4.99065H36.9058V5.07477H36.9902V5.27103H37.0745V5.35514H37.1871V5.46729H37.2714V5.66355H37.384V5.83178H37.4684V5.94393H37.5527V6.02804H37.6653V6.2243H37.7496V6.42056H37.9466V6.61682H38.0309V6.70093H38.1435V6.8972H38.2278V7.09346H38.3404V7.17757H38.4248V7.37383H38.5091V7.45794H38.6217V7.65421H38.706V7.73832H38.7904V7.93458H38.903V8.13084H38.9873V8.21495L39.0999 8.24299V8.3271H39.1842V8.52336H39.2686V8.60748H39.3812V8.69159H39.4655V8.88785H39.5781V9.08411H39.6624V9.16822H39.7468V9.28037H39.8594V9.36449H39.9437V9.56075H40.0563V9.64486H40.225V9.95327H40.4219V10.0374H40.5345V10.2336H40.6188V10.4299H40.7032V10.514H40.8158V10.7103H40.9001V10.7944H41.0127V10.9907H41.097V11.0748H41.1814V11.1869H41.2939V11.3551H41.3783V11.4673H41.4909V11.6636H41.5752V11.7477H41.6596V11.8318L41.7721 11.8598V12.028H41.8565V12.1402H41.9691V12.2243H42.0534V12.4206H42.1378V12.5047H42.2504V12.6168H42.3347V12.7009H42.4473V12.9813H42.5316V13.0935H42.5879V12.9813H42.7004V12.8972H42.7848V12.785H42.8973V12.6168H42.9817V12.5047H43.0661V12.4206H43.1786V12.2243H43.263V12.1402H43.3755V11.9439H43.4599V11.8318H43.5443V11.7477H43.6568V11.5514H43.7412V11.4673H43.8537V11.3551H43.9381V11.0748H44.0225V10.9907H44.135V10.7944H44.2194V10.7103H44.3319V10.514H44.4163V10.4299H44.5007V10.3178H44.6132V10.2336H44.6976V10.0374H44.8101V9.95327H44.8945V9.84112H44.9789V9.64486H45.0914V9.56075H45.1758V9.36449H45.2883V9.28037H45.3727V9.16822H45.4571V9H45.5696V8.88785H45.654V8.80374H45.7384V8.60748H45.8509V8.52336H45.9353V8.41121H46.0478V8.3271H46.1322V8.21495H46.2166V8.04673H46.3291V7.93458H46.4135V7.85047H46.526V7.65421H46.6104V7.57009H46.6948V7.45794H46.8073V7.37383H46.8917V7.17757H47.0042V7.09346H47.173V6.81308L47.1955 6.80748C47.1975 6.80005 47.1992 6.79256 47.2011 6.78505H47.2855V6.70093H47.3699V6.61682H47.4824V6.50467H47.5668V6.30841H47.6512V6.2243H47.7637V6.14019H47.8481V6.02804H47.9606V5.83178H48.045V5.74766H48.1294V5.66355H48.2419V5.46729H48.3263V5.27103H48.4388V5.18692H48.5232V5.07477H48.6076V4.8785H48.7201V4.79439H48.8045V4.59813H49.0014V4.31776H49.0858V4.23364H49.1983V4.1215H49.2827V4.03738H49.3952V3.84112H49.4796V3.75701H49.564V3.64486H49.6765V3.47664H49.7609V3.36449H49.8453V3.28037H49.9578V3.16822H50.0422V3.08411H50.1547V3H50.9423V3.08411Z" fill="#0288F4"/>
</g>
<defs>
<clipPath id="clip0_78_4403">
<rect width="60" height="54" fill="white" transform="translate(0 3)"/>
</clipPath>
</defs>
</svg>
