<svg width="60" height="60" viewBox="0 0 60 60" fill="none" xmlns="http://www.w3.org/2000/svg">
<path fill-rule="evenodd" clip-rule="evenodd" d="M46.4935 34.0743L38.1722 18.8055C33.6078 10.439 29.7807 3.57145 29.6753 3.57145C29.57 3.6063 25.7429 10.4738 21.1785 18.8403L12.8571 34.0743L16.1927 34.1789C19.142 34.2486 19.5282 34.3532 19.3527 34.8761C18.6505 37.1769 14.2616 54.2934 14.3669 54.3631C14.5776 54.5723 18.7558 49.2735 20.406 46.7984C23.3553 42.2665 26.3398 35.9917 27.042 32.9239L27.2878 31.8084H25.6727C24.7949 31.8084 24.0576 31.7038 24.0576 31.5295C24.0576 30.2048 25.2513 24.0345 25.9887 21.5943C26.9016 18.3871 29.254 12.9838 29.6753 12.9838C30.0264 12.9838 31.6767 16.7487 32.8704 20.165C33.8535 23.0933 34.6962 26.7536 35.0824 29.9608L35.3282 31.8084H33.7131C32.5544 31.8084 32.1331 31.9478 32.1331 32.3313C32.1331 34.1092 36.4166 43.0683 39.2606 47.3213C40.946 49.7964 44.8082 54.5723 44.9837 54.398C45.054 54.3282 43.9304 49.7964 42.4909 44.3233C42.1637 43.0874 41.8492 41.9001 41.5586 40.8028C40.5704 37.0716 39.8575 34.3801 39.8575 34.3532C39.8575 34.3184 41.3322 34.2138 43.158 34.1789L46.4935 34.0743Z" fill="#4BC2ED"/>
<path d="M30.8691 25.3941C31.9927 26.5096 31.3958 27.9389 29.7456 28.1481C28.5518 28.2875 27.9198 27.66 27.9198 26.3353C27.9198 24.906 29.7807 24.3134 30.8691 25.3941Z" fill="#578AC9"/>
<path d="M29.7456 37.2118C32.3178 45.5679 33.8522 49.8361 36.8152 56.4286C31.119 53.8689 28.0072 53.837 22.6759 56.4286C25.7524 49.5855 27.3359 45.4433 29.7456 37.2118Z" fill="#578AC9"/>
</svg>
