<svg width="557" height="372" viewBox="0 0 557 372" fill="none" xmlns="http://www.w3.org/2000/svg">
<path d="M278 219H338C342.418 219 346 215.418 346 211V163" stroke="white" stroke-width="1.4" stroke-dasharray="4 4"/>
<g filter="url(#filter0_d_87_23)">
<rect x="127" y="122" width="151" height="151" rx="30" fill="#E6F3FF"/>
<rect x="128" y="123" width="149" height="149" rx="29" stroke="white" stroke-width="2"/>
</g>
<path d="M127 158H72C67.5817 158 64 161.582 64 166V219" stroke="white" stroke-width="1.4" stroke-dasharray="4 4"/>
<g filter="url(#filter1_dd_87_23)">
<rect x="136" y="131" width="133" height="133" rx="26" fill="#EAF4FF"/>
<rect x="136.5" y="131.5" width="132" height="132" rx="25.5" stroke="white"/>
</g>
<g filter="url(#filter2_d_87_23)">
<path d="M298 79C298 71.268 304.268 65 312 65H382C389.732 65 396 71.268 396 79V149C396 156.732 389.732 163 382 163H312C304.268 163 298 156.732 298 149V79Z" fill="#E6F1FC" fill-opacity="0.4" shape-rendering="crispEdges"/>
<path d="M312 65.5H382C389.456 65.5 395.5 71.5442 395.5 79V149C395.5 156.456 389.456 162.5 382 162.5H312C304.544 162.5 298.5 156.456 298.5 149V79C298.5 71.5442 304.544 65.5 312 65.5Z" stroke="white" stroke-opacity="0.6" shape-rendering="crispEdges"/>
</g>
<g filter="url(#filter3_d_87_23)">
<path d="M182 18C182 10.268 188.268 4 196 4H266C273.732 4 280 10.268 280 18V88C280 95.732 273.732 102 266 102H196C188.268 102 182 95.732 182 88V18Z" fill="#E6F1FC" fill-opacity="0.48" shape-rendering="crispEdges"/>
<path d="M196 4.5H266C273.456 4.5 279.5 10.5442 279.5 18V88C279.5 95.4558 273.456 101.5 266 101.5H196C188.544 101.5 182.5 95.4558 182.5 88V18C182.5 10.5442 188.544 4.5 196 4.5Z" stroke="white" stroke-opacity="0.6" shape-rendering="crispEdges"/>
</g>
<path d="M243.75 36H219.25C216.351 36 214 38.3505 214 41.25V65.75C214 68.6495 216.351 71 219.25 71H243.75C246.649 71 249 68.6495 249 65.75V41.25C249 38.3505 246.649 36 243.75 36Z" fill="#1DA1F2"/>
<path d="M243.873 46.3906C243.063 46.9282 242.111 47.2136 241.139 47.2109C242.178 46.5984 242.957 45.6253 243.326 44.4766C242.464 45.2051 241.378 45.6154 240.25 45.6387C239.506 44.8767 238.535 44.3766 237.483 44.2134C236.431 44.0502 235.354 44.2326 234.414 44.7333C233.474 45.234 232.722 46.026 232.271 46.9904C231.819 47.9548 231.693 49.0396 231.91 50.082C229.996 49.9809 228.124 49.4783 226.416 48.6068C224.708 47.7354 223.203 46.5145 221.998 45.0234C221.408 46.0905 221.236 47.3386 221.513 48.5257C221.791 49.7129 222.5 50.7546 223.502 51.4492C222.746 51.4599 221.997 51.2961 221.314 50.9707C221.333 52.0718 221.72 53.135 222.414 53.9901C223.108 54.8453 224.069 55.4429 225.143 55.6875C224.428 55.8742 223.68 55.8975 222.955 55.7558C223.268 56.7314 223.877 57.585 224.698 58.1977C225.519 58.8103 226.511 59.1516 227.535 59.1738C225.372 60.486 222.887 61.1723 220.357 61.1562C222.476 62.5395 224.937 63.3076 227.467 63.3751C229.996 63.4425 232.495 62.8067 234.684 61.5383C236.874 60.2699 238.669 58.4188 239.868 56.191C241.068 53.9632 241.626 51.4461 241.48 48.9199C242.383 48.1822 243.187 47.3322 243.873 46.3906Z" fill="white"/>
<g filter="url(#filter4_d_87_23)">
<path d="M107 55C107 47.268 113.268 41 121 41H152C159.732 41 166 47.268 166 55V86C166 93.732 159.732 100 152 100H121C113.268 100 107 93.732 107 86V55Z" fill="#E9F4FF" fill-opacity="0.42" shape-rendering="crispEdges"/>
<path d="M121 41.5H152C159.456 41.5 165.5 47.5442 165.5 55V86C165.5 93.4558 159.456 99.5 152 99.5H121C113.544 99.5 107.5 93.4558 107.5 86V55C107.5 47.5442 113.544 41.5 121 41.5Z" stroke="white" stroke-opacity="0.6" shape-rendering="crispEdges"/>
</g>
<g filter="url(#filter5_d_87_23)">
<path d="M20 43C20 35.268 26.268 29 34 29H77C84.732 29 91 35.268 91 43V86C91 93.732 84.732 100 77 100H34C26.268 100 20 93.732 20 86V43Z" fill="#E9F4FF" fill-opacity="0.42" shape-rendering="crispEdges"/>
<path d="M34 29.5H77C84.4558 29.5 90.5 35.5442 90.5 43V86C90.5 93.4558 84.4558 99.5 77 99.5H34C26.5442 99.5 20.5 93.4558 20.5 86V43C20.5 35.5442 26.5442 29.5 34 29.5Z" stroke="white" stroke-opacity="0.6" shape-rendering="crispEdges"/>
</g>
<g filter="url(#filter6_d_87_23)">
<path d="M117 304C117 296.268 123.268 290 131 290H177C184.732 290 191 296.268 191 304V350C191 357.732 184.732 364 177 364H131C123.268 364 117 357.732 117 350V304Z" fill="#E6F1FC" fill-opacity="0.4" shape-rendering="crispEdges"/>
<path d="M131 290.5H177C184.456 290.5 190.5 296.544 190.5 304V350C190.5 357.456 184.456 363.5 177 363.5H131C123.544 363.5 117.5 357.456 117.5 350V304C117.5 296.544 123.544 290.5 131 290.5Z" stroke="white" stroke-opacity="0.6" shape-rendering="crispEdges"/>
</g>
<g filter="url(#filter7_d_87_23)">
<rect x="298" y="270" width="54" height="54" rx="14" fill="#E6F1FC" fill-opacity="0.2" shape-rendering="crispEdges"/>
<rect x="298.5" y="270.5" width="53" height="53" rx="13.5" stroke="white" stroke-opacity="0.6" shape-rendering="crispEdges"/>
</g>
<g filter="url(#filter8_d_87_23)">
<path d="M44 314C44 306.268 50.268 300 58 300H84C91.732 300 98 306.268 98 314V340C98 347.732 91.732 354 84 354H58C50.268 354 44 347.732 44 340V314Z" fill="#E6F1FC"/>
<path d="M58 300.5H84C91.4558 300.5 97.5 306.544 97.5 314V340C97.5 347.456 91.4558 353.5 84 353.5H58C50.5442 353.5 44.5 347.456 44.5 340V314L44.5049 313.651C44.6898 306.357 50.6607 300.5 58 300.5Z" stroke="white" stroke-opacity="0.6"/>
</g>
<path d="M136 64C138.761 64 141 66.2386 141 69M141.659 74.6549L146 79M144 69C144 73.4183 140.418 77 136 77C131.582 77 128 73.4183 128 69C128 64.5817 131.582 61 136 61C140.418 61 144 64.5817 144 69Z" stroke="#0A66C2" stroke-width="1.5" stroke-linecap="round" stroke-linejoin="round"/>
<g filter="url(#filter9_d_87_23)">
<path d="M27 131C27 123.268 33.268 117 41 117H96C103.732 117 110 123.268 110 131V186C110 193.732 103.732 200 96 200H41C33.268 200 27 193.732 27 186V131Z" fill="#E0EEFF"/>
<path d="M41 117.5H96C103.456 117.5 109.5 123.544 109.5 131V186C109.5 193.456 103.456 199.5 96 199.5H41C33.5442 199.5 27.5 193.456 27.5 186V131L27.5049 130.651C27.6898 123.357 33.6607 117.5 41 117.5Z" stroke="white" stroke-opacity="0.6"/>
</g>
<g filter="url(#filter10_d_87_23)">
<rect x="301" y="189" width="225" height="64" rx="14" fill="#D7E8FB"/>
<rect x="301.5" y="189.5" width="224" height="63" rx="13.5" stroke="white" stroke-opacity="0.6"/>
</g>
<g filter="url(#filter11_d_87_23)">
<path d="M6 233C6 225.268 12.268 219 20 219H96C103.732 219 110 225.268 110 233V269C110 276.732 103.732 283 96 283H20C12.268 283 6 276.732 6 269V233Z" fill="#E9F4FF" fill-opacity="0.4" shape-rendering="crispEdges"/>
<path d="M20 219.5H96C103.456 219.5 109.5 225.544 109.5 233V269C109.5 276.456 103.456 282.5 96 282.5H20C12.5442 282.5 6.5 276.456 6.5 269V233C6.5 225.544 12.5442 219.5 20 219.5Z" stroke="white" stroke-opacity="0.6" shape-rendering="crispEdges"/>
</g>
<path d="M338.773 217.273C338.705 216.697 338.428 216.25 337.943 215.932C337.458 215.614 336.864 215.455 336.159 215.455C335.644 215.455 335.193 215.538 334.807 215.705C334.424 215.871 334.125 216.1 333.909 216.392C333.697 216.684 333.591 217.015 333.591 217.386C333.591 217.697 333.665 217.964 333.812 218.188C333.964 218.407 334.157 218.591 334.392 218.739C334.627 218.883 334.873 219.002 335.131 219.097C335.388 219.187 335.625 219.261 335.841 219.318L337.023 219.636C337.326 219.716 337.663 219.826 338.034 219.966C338.409 220.106 338.767 220.297 339.108 220.54C339.453 220.778 339.737 221.085 339.96 221.46C340.184 221.835 340.295 222.295 340.295 222.841C340.295 223.47 340.131 224.038 339.801 224.545C339.475 225.053 338.998 225.456 338.369 225.756C337.744 226.055 336.985 226.205 336.091 226.205C335.258 226.205 334.536 226.07 333.926 225.801C333.32 225.532 332.843 225.157 332.494 224.676C332.15 224.195 331.955 223.636 331.909 223H333.364C333.402 223.439 333.549 223.803 333.807 224.091C334.068 224.375 334.398 224.587 334.795 224.727C335.197 224.864 335.629 224.932 336.091 224.932C336.629 224.932 337.112 224.845 337.54 224.67C337.968 224.492 338.307 224.246 338.557 223.932C338.807 223.614 338.932 223.242 338.932 222.818C338.932 222.432 338.824 222.117 338.608 221.875C338.392 221.633 338.108 221.436 337.756 221.284C337.403 221.133 337.023 221 336.614 220.886L335.182 220.477C334.273 220.216 333.553 219.843 333.023 219.358C332.492 218.873 332.227 218.239 332.227 217.455C332.227 216.803 332.403 216.235 332.756 215.75C333.112 215.261 333.589 214.883 334.188 214.614C334.79 214.341 335.462 214.205 336.205 214.205C336.955 214.205 337.621 214.339 338.205 214.608C338.788 214.873 339.25 215.237 339.591 215.699C339.936 216.161 340.117 216.686 340.136 217.273H338.773ZM345.976 226.182C345.188 226.182 344.497 225.994 343.902 225.619C343.311 225.244 342.849 224.72 342.516 224.045C342.186 223.371 342.021 222.583 342.021 221.682C342.021 220.773 342.186 219.979 342.516 219.301C342.849 218.623 343.311 218.097 343.902 217.722C344.497 217.347 345.188 217.159 345.976 217.159C346.764 217.159 347.453 217.347 348.044 217.722C348.639 218.097 349.101 218.623 349.43 219.301C349.764 219.979 349.93 220.773 349.93 221.682C349.93 222.583 349.764 223.371 349.43 224.045C349.101 224.72 348.639 225.244 348.044 225.619C347.453 225.994 346.764 226.182 345.976 226.182ZM345.976 224.977C346.574 224.977 347.067 224.824 347.453 224.517C347.839 224.21 348.125 223.807 348.311 223.307C348.497 222.807 348.589 222.265 348.589 221.682C348.589 221.098 348.497 220.555 348.311 220.051C348.125 219.547 347.839 219.14 347.453 218.83C347.067 218.519 346.574 218.364 345.976 218.364C345.377 218.364 344.885 218.519 344.499 218.83C344.112 219.14 343.826 219.547 343.641 220.051C343.455 220.555 343.362 221.098 343.362 221.682C343.362 222.265 343.455 222.807 343.641 223.307C343.826 223.807 344.112 224.21 344.499 224.517C344.885 224.824 345.377 224.977 345.976 224.977ZM355.523 226.182C354.705 226.182 354 225.989 353.409 225.602C352.818 225.216 352.364 224.684 352.045 224.006C351.727 223.328 351.568 222.553 351.568 221.682C351.568 220.795 351.731 220.013 352.057 219.335C352.386 218.653 352.845 218.121 353.432 217.739C354.023 217.352 354.712 217.159 355.5 217.159C356.114 217.159 356.667 217.273 357.159 217.5C357.652 217.727 358.055 218.045 358.369 218.455C358.684 218.864 358.879 219.341 358.955 219.886H357.614C357.511 219.489 357.284 219.136 356.932 218.83C356.583 218.519 356.114 218.364 355.523 218.364C355 218.364 354.542 218.5 354.148 218.773C353.758 219.042 353.453 219.422 353.233 219.915C353.017 220.403 352.909 220.977 352.909 221.636C352.909 222.311 353.015 222.898 353.227 223.398C353.443 223.898 353.746 224.286 354.136 224.562C354.53 224.839 354.992 224.977 355.523 224.977C355.871 224.977 356.188 224.917 356.472 224.795C356.756 224.674 356.996 224.5 357.193 224.273C357.39 224.045 357.53 223.773 357.614 223.455H358.955C358.879 223.97 358.691 224.434 358.392 224.847C358.097 225.256 357.705 225.581 357.216 225.824C356.731 226.062 356.167 226.182 355.523 226.182ZM360.915 226V217.273H362.256V226H360.915ZM361.597 215.818C361.335 215.818 361.11 215.729 360.92 215.551C360.735 215.373 360.642 215.159 360.642 214.909C360.642 214.659 360.735 214.445 360.92 214.267C361.11 214.089 361.335 214 361.597 214C361.858 214 362.081 214.089 362.267 214.267C362.456 214.445 362.551 214.659 362.551 214.909C362.551 215.159 362.456 215.373 362.267 215.551C362.081 215.729 361.858 215.818 361.597 215.818ZM367.28 226.205C366.727 226.205 366.225 226.1 365.774 225.892C365.323 225.68 364.965 225.375 364.7 224.977C364.435 224.576 364.303 224.091 364.303 223.523C364.303 223.023 364.401 222.617 364.598 222.307C364.795 221.992 365.058 221.746 365.388 221.568C365.717 221.39 366.081 221.258 366.479 221.17C366.88 221.08 367.284 221.008 367.689 220.955C368.219 220.886 368.649 220.835 368.979 220.801C369.312 220.763 369.554 220.701 369.706 220.614C369.861 220.527 369.939 220.375 369.939 220.159V220.114C369.939 219.553 369.786 219.117 369.479 218.807C369.176 218.496 368.715 218.341 368.098 218.341C367.458 218.341 366.956 218.481 366.592 218.761C366.229 219.042 365.973 219.341 365.825 219.659L364.553 219.205C364.78 218.674 365.083 218.261 365.462 217.966C365.844 217.667 366.261 217.458 366.712 217.341C367.166 217.22 367.613 217.159 368.053 217.159C368.333 217.159 368.655 217.193 369.018 217.261C369.386 217.326 369.74 217.46 370.081 217.665C370.426 217.869 370.712 218.178 370.939 218.591C371.166 219.004 371.28 219.557 371.28 220.25V226H369.939V224.818H369.871C369.78 225.008 369.628 225.21 369.416 225.426C369.204 225.642 368.922 225.826 368.57 225.977C368.217 226.129 367.787 226.205 367.28 226.205ZM367.484 225C368.015 225 368.462 224.896 368.825 224.688C369.193 224.479 369.469 224.21 369.655 223.881C369.844 223.551 369.939 223.205 369.939 222.841V221.614C369.882 221.682 369.757 221.744 369.564 221.801C369.375 221.854 369.155 221.902 368.905 221.943C368.659 221.981 368.418 222.015 368.183 222.045C367.952 222.072 367.765 222.095 367.621 222.114C367.272 222.159 366.946 222.233 366.643 222.335C366.344 222.434 366.102 222.583 365.916 222.784C365.734 222.981 365.643 223.25 365.643 223.591C365.643 224.057 365.816 224.409 366.161 224.648C366.509 224.883 366.95 225 367.484 225ZM375.068 214.364V226H373.727V214.364H375.068ZM382.206 214.364H383.888L387.842 224.023H387.979L391.933 214.364H393.615V226H392.297V217.159H392.183L388.547 226H387.274L383.638 217.159H383.524V226H382.206V214.364ZM399.918 226.182C399.077 226.182 398.351 225.996 397.741 225.625C397.135 225.25 396.668 224.727 396.338 224.057C396.012 223.383 395.849 222.598 395.849 221.705C395.849 220.811 396.012 220.023 396.338 219.341C396.668 218.655 397.126 218.121 397.713 217.739C398.304 217.352 398.993 217.159 399.781 217.159C400.236 217.159 400.685 217.235 401.128 217.386C401.571 217.538 401.974 217.784 402.338 218.125C402.702 218.462 402.991 218.909 403.207 219.466C403.423 220.023 403.531 220.708 403.531 221.523V222.091H396.804V220.932H402.168C402.168 220.439 402.069 220 401.872 219.614C401.679 219.227 401.402 218.922 401.043 218.699C400.687 218.475 400.266 218.364 399.781 218.364C399.247 218.364 398.785 218.496 398.395 218.761C398.009 219.023 397.711 219.364 397.503 219.784C397.295 220.205 397.19 220.655 397.19 221.136V221.909C397.19 222.568 397.304 223.127 397.531 223.585C397.762 224.04 398.082 224.386 398.491 224.625C398.901 224.86 399.376 224.977 399.918 224.977C400.27 224.977 400.588 224.928 400.872 224.83C401.16 224.727 401.408 224.576 401.616 224.375C401.825 224.17 401.986 223.917 402.099 223.614L403.395 223.977C403.259 224.417 403.029 224.803 402.707 225.136C402.385 225.466 401.988 225.723 401.514 225.909C401.041 226.091 400.509 226.182 399.918 226.182ZM408.866 226.182C408.139 226.182 407.497 225.998 406.94 225.631C406.384 225.259 405.948 224.737 405.634 224.062C405.319 223.384 405.162 222.583 405.162 221.659C405.162 220.742 405.319 219.947 405.634 219.273C405.948 218.598 406.385 218.078 406.946 217.71C407.507 217.343 408.154 217.159 408.889 217.159C409.457 217.159 409.906 217.254 410.236 217.443C410.569 217.629 410.823 217.841 410.997 218.08C411.175 218.314 411.313 218.508 411.412 218.659H411.526V214.364H412.866V226H411.571V224.659H411.412C411.313 224.818 411.173 225.019 410.991 225.261C410.81 225.5 410.55 225.714 410.213 225.903C409.876 226.089 409.427 226.182 408.866 226.182ZM409.048 224.977C409.586 224.977 410.041 224.837 410.412 224.557C410.783 224.273 411.065 223.881 411.259 223.381C411.452 222.877 411.548 222.295 411.548 221.636C411.548 220.985 411.454 220.415 411.264 219.926C411.075 219.434 410.795 219.051 410.423 218.778C410.052 218.502 409.594 218.364 409.048 218.364C408.48 218.364 408.007 218.509 407.628 218.801C407.253 219.089 406.971 219.481 406.781 219.977C406.596 220.47 406.503 221.023 406.503 221.636C406.503 222.258 406.598 222.822 406.787 223.33C406.98 223.833 407.264 224.235 407.639 224.534C408.018 224.83 408.488 224.977 409.048 224.977ZM415.509 226V217.273H416.849V226H415.509ZM416.19 215.818C415.929 215.818 415.704 215.729 415.514 215.551C415.329 215.373 415.236 215.159 415.236 214.909C415.236 214.659 415.329 214.445 415.514 214.267C415.704 214.089 415.929 214 416.19 214C416.452 214 416.675 214.089 416.861 214.267C417.05 214.445 417.145 214.659 417.145 214.909C417.145 215.159 417.05 215.373 416.861 215.551C416.675 215.729 416.452 215.818 416.19 215.818ZM421.874 226.205C421.321 226.205 420.819 226.1 420.368 225.892C419.917 225.68 419.559 225.375 419.294 224.977C419.029 224.576 418.896 224.091 418.896 223.523C418.896 223.023 418.995 222.617 419.192 222.307C419.389 221.992 419.652 221.746 419.982 221.568C420.311 221.39 420.675 221.258 421.072 221.17C421.474 221.08 421.877 221.008 422.283 220.955C422.813 220.886 423.243 220.835 423.572 220.801C423.906 220.763 424.148 220.701 424.3 220.614C424.455 220.527 424.533 220.375 424.533 220.159V220.114C424.533 219.553 424.379 219.117 424.072 218.807C423.769 218.496 423.309 218.341 422.692 218.341C422.052 218.341 421.55 218.481 421.186 218.761C420.822 219.042 420.567 219.341 420.419 219.659L419.146 219.205C419.374 218.674 419.677 218.261 420.055 217.966C420.438 217.667 420.855 217.458 421.305 217.341C421.76 217.22 422.207 217.159 422.646 217.159C422.927 217.159 423.249 217.193 423.612 217.261C423.98 217.326 424.334 217.46 424.675 217.665C425.019 217.869 425.305 218.178 425.533 218.591C425.76 219.004 425.874 219.557 425.874 220.25V226H424.533V224.818H424.464C424.374 225.008 424.222 225.21 424.01 225.426C423.798 225.642 423.516 225.826 423.163 225.977C422.811 226.129 422.381 226.205 421.874 226.205ZM422.078 225C422.608 225 423.055 224.896 423.419 224.688C423.786 224.479 424.063 224.21 424.249 223.881C424.438 223.551 424.533 223.205 424.533 222.841V221.614C424.476 221.682 424.351 221.744 424.158 221.801C423.968 221.854 423.749 221.902 423.499 221.943C423.252 221.981 423.012 222.015 422.777 222.045C422.546 222.072 422.358 222.095 422.214 222.114C421.866 222.159 421.54 222.233 421.237 222.335C420.938 222.434 420.696 222.583 420.51 222.784C420.328 222.981 420.237 223.25 420.237 223.591C420.237 224.057 420.41 224.409 420.754 224.648C421.103 224.883 421.544 225 422.078 225ZM439.366 217.273C439.298 216.697 439.022 216.25 438.537 215.932C438.052 215.614 437.457 215.455 436.753 215.455C436.238 215.455 435.787 215.538 435.401 215.705C435.018 215.871 434.719 216.1 434.503 216.392C434.291 216.684 434.185 217.015 434.185 217.386C434.185 217.697 434.259 217.964 434.406 218.188C434.558 218.407 434.751 218.591 434.986 218.739C435.221 218.883 435.467 219.002 435.724 219.097C435.982 219.187 436.219 219.261 436.435 219.318L437.616 219.636C437.92 219.716 438.257 219.826 438.628 219.966C439.003 220.106 439.361 220.297 439.702 220.54C440.046 220.778 440.33 221.085 440.554 221.46C440.777 221.835 440.889 222.295 440.889 222.841C440.889 223.47 440.724 224.038 440.395 224.545C440.069 225.053 439.592 225.456 438.963 225.756C438.338 226.055 437.579 226.205 436.685 226.205C435.851 226.205 435.13 226.07 434.52 225.801C433.914 225.532 433.437 225.157 433.088 224.676C432.743 224.195 432.548 223.636 432.503 223H433.957C433.995 223.439 434.143 223.803 434.401 224.091C434.662 224.375 434.991 224.587 435.389 224.727C435.791 224.864 436.223 224.932 436.685 224.932C437.223 224.932 437.705 224.845 438.134 224.67C438.562 224.492 438.901 224.246 439.151 223.932C439.401 223.614 439.526 223.242 439.526 222.818C439.526 222.432 439.418 222.117 439.202 221.875C438.986 221.633 438.702 221.436 438.349 221.284C437.997 221.133 437.616 221 437.207 220.886L435.776 220.477C434.866 220.216 434.147 219.843 433.616 219.358C433.086 218.873 432.821 218.239 432.821 217.455C432.821 216.803 432.997 216.235 433.349 215.75C433.705 215.261 434.183 214.883 434.781 214.614C435.384 214.341 436.056 214.205 436.798 214.205C437.548 214.205 438.215 214.339 438.798 214.608C439.382 214.873 439.844 215.237 440.185 215.699C440.529 216.161 440.711 216.686 440.73 217.273H439.366ZM446.82 217.273V218.409H442.297V217.273H446.82ZM443.615 215.182H444.956V223.5C444.956 223.879 445.011 224.163 445.121 224.352C445.234 224.538 445.378 224.663 445.553 224.727C445.731 224.788 445.918 224.818 446.115 224.818C446.263 224.818 446.384 224.811 446.479 224.795C446.573 224.777 446.649 224.761 446.706 224.75L446.979 225.955C446.888 225.989 446.761 226.023 446.598 226.057C446.435 226.095 446.229 226.114 445.979 226.114C445.6 226.114 445.229 226.032 444.865 225.869C444.505 225.706 444.206 225.458 443.967 225.125C443.732 224.792 443.615 224.371 443.615 223.864V215.182ZM448.837 226V217.273H450.132V218.591H450.223C450.382 218.159 450.67 217.809 451.087 217.54C451.503 217.271 451.973 217.136 452.496 217.136C452.594 217.136 452.717 217.138 452.865 217.142C453.013 217.146 453.125 217.152 453.2 217.159V218.523C453.155 218.511 453.051 218.494 452.888 218.472C452.729 218.445 452.56 218.432 452.382 218.432C451.958 218.432 451.579 218.521 451.246 218.699C450.916 218.873 450.655 219.116 450.462 219.426C450.272 219.733 450.178 220.083 450.178 220.477V226H448.837ZM457.358 226.205C456.805 226.205 456.303 226.1 455.852 225.892C455.402 225.68 455.044 225.375 454.778 224.977C454.513 224.576 454.381 224.091 454.381 223.523C454.381 223.023 454.479 222.617 454.676 222.307C454.873 221.992 455.136 221.746 455.466 221.568C455.795 221.39 456.159 221.258 456.557 221.17C456.958 221.08 457.362 221.008 457.767 220.955C458.297 220.886 458.727 220.835 459.057 220.801C459.39 220.763 459.633 220.701 459.784 220.614C459.939 220.527 460.017 220.375 460.017 220.159V220.114C460.017 219.553 459.864 219.117 459.557 218.807C459.254 218.496 458.794 218.341 458.176 218.341C457.536 218.341 457.034 218.481 456.67 218.761C456.307 219.042 456.051 219.341 455.903 219.659L454.631 219.205C454.858 218.674 455.161 218.261 455.54 217.966C455.922 217.667 456.339 217.458 456.79 217.341C457.244 217.22 457.691 217.159 458.131 217.159C458.411 217.159 458.733 217.193 459.097 217.261C459.464 217.326 459.818 217.46 460.159 217.665C460.504 217.869 460.79 218.178 461.017 218.591C461.244 219.004 461.358 219.557 461.358 220.25V226H460.017V224.818H459.949C459.858 225.008 459.706 225.21 459.494 225.426C459.282 225.642 459 225.826 458.648 225.977C458.295 226.129 457.866 226.205 457.358 226.205ZM457.562 225C458.093 225 458.54 224.896 458.903 224.688C459.271 224.479 459.547 224.21 459.733 223.881C459.922 223.551 460.017 223.205 460.017 222.841V221.614C459.96 221.682 459.835 221.744 459.642 221.801C459.453 221.854 459.233 221.902 458.983 221.943C458.737 221.981 458.496 222.015 458.261 222.045C458.03 222.072 457.843 222.095 457.699 222.114C457.35 222.159 457.025 222.233 456.722 222.335C456.422 222.434 456.18 222.583 455.994 222.784C455.813 222.981 455.722 223.25 455.722 223.591C455.722 224.057 455.894 224.409 456.239 224.648C456.587 224.883 457.028 225 457.562 225ZM467.601 217.273V218.409H463.078V217.273H467.601ZM464.396 215.182H465.737V223.5C465.737 223.879 465.792 224.163 465.902 224.352C466.016 224.538 466.16 224.663 466.334 224.727C466.512 224.788 466.699 224.818 466.896 224.818C467.044 224.818 467.165 224.811 467.26 224.795C467.355 224.777 467.43 224.761 467.487 224.75L467.76 225.955C467.669 225.989 467.542 226.023 467.379 226.057C467.216 226.095 467.01 226.114 466.76 226.114C466.381 226.114 466.01 226.032 465.646 225.869C465.286 225.706 464.987 225.458 464.749 225.125C464.514 224.792 464.396 224.371 464.396 223.864V215.182ZM473.183 226.182C472.342 226.182 471.617 225.996 471.007 225.625C470.401 225.25 469.933 224.727 469.604 224.057C469.278 223.383 469.115 222.598 469.115 221.705C469.115 220.811 469.278 220.023 469.604 219.341C469.933 218.655 470.392 218.121 470.979 217.739C471.57 217.352 472.259 217.159 473.047 217.159C473.501 217.159 473.95 217.235 474.393 217.386C474.837 217.538 475.24 217.784 475.604 218.125C475.967 218.462 476.257 218.909 476.473 219.466C476.689 220.023 476.797 220.708 476.797 221.523V222.091H470.07V220.932H475.433C475.433 220.439 475.335 220 475.138 219.614C474.945 219.227 474.668 218.922 474.308 218.699C473.952 218.475 473.532 218.364 473.047 218.364C472.513 218.364 472.051 218.496 471.661 218.761C471.274 219.023 470.977 219.364 470.768 219.784C470.56 220.205 470.456 220.655 470.456 221.136V221.909C470.456 222.568 470.57 223.127 470.797 223.585C471.028 224.04 471.348 224.386 471.757 224.625C472.166 224.86 472.642 224.977 473.183 224.977C473.536 224.977 473.854 224.928 474.138 224.83C474.426 224.727 474.674 224.576 474.882 224.375C475.09 224.17 475.251 223.917 475.365 223.614L476.661 223.977C476.524 224.417 476.295 224.803 475.973 225.136C475.651 225.466 475.253 225.723 474.78 225.909C474.306 226.091 473.774 226.182 473.183 226.182ZM482.359 229.455C481.712 229.455 481.155 229.371 480.689 229.205C480.223 229.042 479.835 228.826 479.524 228.557C479.217 228.292 478.973 228.008 478.791 227.705L479.859 226.955C479.981 227.114 480.134 227.295 480.32 227.5C480.505 227.708 480.759 227.888 481.081 228.04C481.407 228.195 481.833 228.273 482.359 228.273C483.064 228.273 483.645 228.102 484.104 227.761C484.562 227.42 484.791 226.886 484.791 226.159V224.386H484.678C484.579 224.545 484.439 224.742 484.257 224.977C484.079 225.208 483.821 225.415 483.484 225.597C483.151 225.775 482.7 225.864 482.132 225.864C481.428 225.864 480.795 225.697 480.234 225.364C479.678 225.03 479.236 224.545 478.911 223.909C478.589 223.273 478.428 222.5 478.428 221.591C478.428 220.697 478.585 219.919 478.899 219.256C479.214 218.589 479.651 218.074 480.212 217.71C480.772 217.343 481.42 217.159 482.155 217.159C482.723 217.159 483.174 217.254 483.507 217.443C483.844 217.629 484.102 217.841 484.28 218.08C484.462 218.314 484.602 218.508 484.7 218.659H484.837V217.273H486.132V226.25C486.132 227 485.962 227.61 485.621 228.08C485.284 228.553 484.829 228.9 484.257 229.119C483.689 229.343 483.056 229.455 482.359 229.455ZM482.314 224.659C482.852 224.659 483.306 224.536 483.678 224.29C484.049 224.044 484.331 223.689 484.524 223.227C484.717 222.765 484.814 222.212 484.814 221.568C484.814 220.939 484.719 220.384 484.53 219.903C484.34 219.422 484.06 219.045 483.689 218.773C483.318 218.5 482.859 218.364 482.314 218.364C481.746 218.364 481.272 218.508 480.893 218.795C480.518 219.083 480.236 219.47 480.047 219.955C479.861 220.439 479.768 220.977 479.768 221.568C479.768 222.174 479.863 222.71 480.053 223.176C480.246 223.638 480.53 224.002 480.905 224.267C481.284 224.528 481.753 224.659 482.314 224.659ZM489.45 229.273C489.223 229.273 489.02 229.254 488.842 229.216C488.664 229.182 488.541 229.148 488.473 229.114L488.814 227.932C489.14 228.015 489.428 228.045 489.678 228.023C489.928 228 490.149 227.888 490.342 227.688C490.539 227.491 490.719 227.17 490.882 226.727L491.132 226.045L487.905 217.273H489.359L491.768 224.227H491.859L494.268 217.273H495.723L492.018 227.273C491.852 227.723 491.645 228.097 491.399 228.392C491.153 228.691 490.867 228.913 490.541 229.057C490.219 229.201 489.856 229.273 489.45 229.273Z" fill="#0A66C2"/>
<path d="M37.4091 256V244.364H41.4773C42.2879 244.364 42.9564 244.504 43.483 244.784C44.0095 245.061 44.4015 245.434 44.6591 245.903C44.9167 246.369 45.0455 246.886 45.0455 247.455C45.0455 247.955 44.9564 248.367 44.7784 248.693C44.6042 249.019 44.3731 249.277 44.0852 249.466C43.8011 249.655 43.4924 249.795 43.1591 249.886V250C43.5152 250.023 43.8731 250.148 44.233 250.375C44.5928 250.602 44.8939 250.928 45.1364 251.352C45.3788 251.777 45.5 252.295 45.5 252.909C45.5 253.492 45.3674 254.017 45.1023 254.483C44.8371 254.949 44.4186 255.318 43.8466 255.591C43.2746 255.864 42.5303 256 41.6136 256H37.4091ZM38.8182 254.75H41.6136C42.5341 254.75 43.1875 254.572 43.5739 254.216C43.964 253.856 44.1591 253.42 44.1591 252.909C44.1591 252.515 44.0587 252.152 43.858 251.818C43.6572 251.481 43.3712 251.212 43 251.011C42.6288 250.807 42.1894 250.705 41.6818 250.705H38.8182V254.75ZM38.8182 249.477H41.4318C41.8561 249.477 42.2386 249.394 42.5795 249.227C42.9242 249.061 43.197 248.826 43.3977 248.523C43.6023 248.22 43.7045 247.864 43.7045 247.455C43.7045 246.943 43.5265 246.509 43.1705 246.153C42.8144 245.794 42.25 245.614 41.4773 245.614H38.8182V249.477ZM48.9744 244.364V256H47.6335V244.364H48.9744ZM54.9759 256.182C54.188 256.182 53.4967 255.994 52.902 255.619C52.3111 255.244 51.849 254.72 51.5156 254.045C51.1861 253.371 51.0213 252.583 51.0213 251.682C51.0213 250.773 51.1861 249.979 51.5156 249.301C51.849 248.623 52.3111 248.097 52.902 247.722C53.4967 247.347 54.188 247.159 54.9759 247.159C55.7637 247.159 56.4531 247.347 57.044 247.722C57.6387 248.097 58.1009 248.623 58.4304 249.301C58.7637 249.979 58.9304 250.773 58.9304 251.682C58.9304 252.583 58.7637 253.371 58.4304 254.045C58.1009 254.72 57.6387 255.244 57.044 255.619C56.4531 255.994 55.7637 256.182 54.9759 256.182ZM54.9759 254.977C55.5743 254.977 56.0668 254.824 56.4531 254.517C56.8395 254.21 57.1255 253.807 57.3111 253.307C57.4967 252.807 57.5895 252.265 57.5895 251.682C57.5895 251.098 57.4967 250.555 57.3111 250.051C57.1255 249.547 56.8395 249.14 56.4531 248.83C56.0668 248.519 55.5743 248.364 54.9759 248.364C54.3774 248.364 53.8849 248.519 53.4986 248.83C53.1122 249.14 52.8262 249.547 52.6406 250.051C52.455 250.555 52.3622 251.098 52.3622 251.682C52.3622 252.265 52.455 252.807 52.6406 253.307C52.8262 253.807 53.1122 254.21 53.4986 254.517C53.8849 254.824 54.3774 254.977 54.9759 254.977ZM64.5 259.455C63.8523 259.455 63.2955 259.371 62.8295 259.205C62.3636 259.042 61.9754 258.826 61.6648 258.557C61.358 258.292 61.1136 258.008 60.9318 257.705L62 256.955C62.1212 257.114 62.2746 257.295 62.4602 257.5C62.6458 257.708 62.8996 257.888 63.2216 258.04C63.5473 258.195 63.9735 258.273 64.5 258.273C65.2045 258.273 65.786 258.102 66.2443 257.761C66.7027 257.42 66.9318 256.886 66.9318 256.159V254.386H66.8182C66.7197 254.545 66.5795 254.742 66.3977 254.977C66.2197 255.208 65.9621 255.415 65.625 255.597C65.2917 255.775 64.8409 255.864 64.2727 255.864C63.5682 255.864 62.9356 255.697 62.375 255.364C61.8182 255.03 61.3769 254.545 61.0511 253.909C60.7292 253.273 60.5682 252.5 60.5682 251.591C60.5682 250.697 60.7254 249.919 61.0398 249.256C61.3542 248.589 61.7917 248.074 62.3523 247.71C62.9129 247.343 63.5606 247.159 64.2955 247.159C64.8636 247.159 65.3144 247.254 65.6477 247.443C65.9848 247.629 66.2424 247.841 66.4205 248.08C66.6023 248.314 66.7424 248.508 66.8409 248.659H66.9773V247.273H68.2727V256.25C68.2727 257 68.1023 257.61 67.7614 258.08C67.4242 258.553 66.9697 258.9 66.3977 259.119C65.8295 259.343 65.197 259.455 64.5 259.455ZM64.4545 254.659C64.9924 254.659 65.447 254.536 65.8182 254.29C66.1894 254.044 66.4716 253.689 66.6648 253.227C66.858 252.765 66.9545 252.212 66.9545 251.568C66.9545 250.939 66.8598 250.384 66.6705 249.903C66.4811 249.422 66.2008 249.045 65.8295 248.773C65.4583 248.5 65 248.364 64.4545 248.364C63.8864 248.364 63.4129 248.508 63.0341 248.795C62.6591 249.083 62.3769 249.47 62.1875 249.955C62.0019 250.439 61.9091 250.977 61.9091 251.568C61.9091 252.174 62.0038 252.71 62.1932 253.176C62.3864 253.638 62.6705 254.002 63.0455 254.267C63.4242 254.528 63.8939 254.659 64.4545 254.659ZM76.9091 249.227L75.7045 249.568C75.6288 249.367 75.517 249.172 75.3693 248.983C75.2254 248.79 75.0284 248.631 74.7784 248.506C74.5284 248.381 74.2083 248.318 73.8182 248.318C73.2841 248.318 72.839 248.441 72.483 248.688C72.1307 248.93 71.9545 249.239 71.9545 249.614C71.9545 249.947 72.0758 250.21 72.3182 250.403C72.5606 250.597 72.9394 250.758 73.4545 250.886L74.75 251.205C75.5303 251.394 76.1117 251.684 76.4943 252.074C76.8769 252.46 77.0682 252.958 77.0682 253.568C77.0682 254.068 76.9242 254.515 76.6364 254.909C76.3523 255.303 75.9545 255.614 75.4432 255.841C74.9318 256.068 74.3371 256.182 73.6591 256.182C72.7689 256.182 72.0322 255.989 71.4489 255.602C70.8655 255.216 70.4962 254.652 70.3409 253.909L71.6136 253.591C71.7348 254.061 71.964 254.413 72.3011 254.648C72.642 254.883 73.0871 255 73.6364 255C74.2614 255 74.7576 254.867 75.125 254.602C75.4962 254.333 75.6818 254.011 75.6818 253.636C75.6818 253.333 75.5758 253.08 75.3636 252.875C75.1515 252.667 74.8258 252.511 74.3864 252.409L72.9318 252.068C72.1326 251.879 71.5455 251.585 71.1705 251.188C70.7992 250.786 70.6136 250.284 70.6136 249.682C70.6136 249.189 70.7519 248.754 71.0284 248.375C71.3087 247.996 71.6894 247.699 72.1705 247.483C72.6553 247.267 73.2045 247.159 73.8182 247.159C74.6818 247.159 75.3598 247.348 75.8523 247.727C76.3485 248.106 76.7008 248.606 76.9091 249.227Z" fill="#0A66C2"/>
<path d="M81.759 155.904L70.512 144.657C70.0891 144.234 69.5265 144 68.928 144C68.3295 144 67.7669 144.233 67.344 144.657L64.8919 147.109H61.172V150.828L56 155.999V172.965H81.856V156.001L81.7599 155.905L81.759 155.904ZM80.6881 156.297L76.683 160.302V152.292L80.6881 156.297V156.297ZM68.0744 145.387C68.5303 144.931 69.3247 144.931 69.7806 145.387L71.5014 147.108H66.3536L68.0744 145.387ZM72.5344 148.142L75.649 151.257V161.336L73.2541 163.73L70.51 160.986C70.0871 160.563 69.5245 160.33 68.926 160.33C68.3276 160.33 67.765 160.563 67.3421 160.986L64.5572 163.77L62.204 161.417V148.143H72.5334L72.5344 148.142ZM57.6558 155.805L61.171 152.29V160.382L57.1242 156.335L57.6558 155.805ZM57.033 158.538V157.708L63.8259 164.501L63.7492 164.578L63.7483 164.577L57.033 171.293V158.538ZM57.8585 171.93L58.4143 171.374H58.4162L68.0744 161.717C68.5303 161.261 69.3247 161.261 69.7806 161.717L79.9955 171.93H57.8585ZM80.821 157.861V171.293L73.9865 164.462L80.821 157.627V157.862V157.861Z" fill="#0A66C2"/>
<path d="M65.3071 151.762C65.3071 151.476 65.5386 151.245 65.8241 151.245H72.0301C72.3156 151.245 72.5471 151.476 72.5471 151.762C72.5471 152.047 72.3156 152.279 72.0301 152.279H65.8241C65.5386 152.279 65.3071 152.047 65.3071 151.762Z" fill="#0A66C2"/>
<path d="M65.3071 157.968C65.3071 157.682 65.5386 157.451 65.8241 157.451H72.0301C72.3156 157.451 72.5471 157.682 72.5471 157.968C72.5471 158.253 72.3156 158.485 72.0301 158.485H65.8241C65.5386 158.485 65.3071 158.253 65.3071 157.968Z" fill="#0A66C2"/>
<path d="M65.3071 154.865C65.3071 154.579 65.5386 154.348 65.8241 154.348H69.9611C70.2467 154.348 70.4781 154.579 70.4781 154.865C70.4781 155.15 70.2467 155.382 69.9611 155.382H65.8241C65.5386 155.382 65.3071 155.15 65.3071 154.865Z" fill="#0A66C2"/>
<path d="M360.379 127.379H354.749V118.56C354.749 116.457 354.711 113.75 351.82 113.75C348.887 113.75 348.438 116.042 348.438 118.405V127.379H342.807V109.244H348.213V111.723H348.289C349.391 109.842 351.443 108.715 353.622 108.794C359.328 108.794 360.382 112.546 360.382 117.433L360.379 127.376V127.379ZM336.455 106.764C335.59 106.76 334.762 106.415 334.15 105.804C333.538 105.192 333.192 104.364 333.187 103.499C333.187 101.707 334.663 100.231 336.455 100.231C338.247 100.231 339.72 101.707 339.723 103.499C339.723 105.292 338.247 106.764 336.455 106.764ZM339.27 127.379H333.634V109.244H339.27V127.379ZM363.182 95H330.803C330.068 94.9958 329.362 95.2814 328.837 95.7949C328.313 96.3084 328.012 97.0083 328 97.7424V130.258C328.012 130.992 328.313 131.692 328.837 132.205C329.362 132.719 330.068 133.004 330.803 133H363.185C363.921 133.006 364.629 132.721 365.156 132.208C365.683 131.694 365.987 130.993 366 130.258V97.7392C365.987 97.004 365.683 96.3038 365.156 95.7914C364.629 95.2789 363.92 94.9956 363.185 95.0032L363.182 95Z" fill="#0A66C2"/>
<path d="M182.012 194.987H223.989" stroke="#0A66C2" stroke-width="1.8" stroke-miterlimit="10" stroke-linecap="round" stroke-linejoin="round"/>
<path d="M182.012 219.01H223.989" stroke="#0A66C2" stroke-width="1.8" stroke-miterlimit="10" stroke-linecap="round" stroke-linejoin="round"/>
<path d="M182.012 206.998H223.989" stroke="#0A66C2" stroke-width="1.8" stroke-miterlimit="10" stroke-linecap="round" stroke-linejoin="round"/>
<path d="M230 164.99H176C172.686 164.99 170 167.676 170 170.99V224.99C170 228.303 172.686 230.99 176 230.99H230C233.314 230.99 236 228.303 236 224.99V170.99C236 167.676 233.314 164.99 230 164.99Z" stroke="#0A66C2" stroke-width="1.8" stroke-miterlimit="10" stroke-linecap="round" stroke-linejoin="round"/>
<path d="M236 177.007C236 180.321 233.314 183.007 230 183.007H216.388H210.382H176C172.686 183.007 170 180.321 170 177.007V170.99C170 167.676 172.686 164.99 176 164.99H230C233.314 164.99 236 167.676 236 170.99V177.007Z" stroke="#0A66C2" stroke-width="1.8" stroke-miterlimit="10" stroke-linecap="round" stroke-linejoin="round"/>
<path d="M179.008 173.998H185.013" stroke="#0A66C2" stroke-width="2.5" stroke-miterlimit="10" stroke-linecap="round" stroke-linejoin="round"/>
<path d="M190.989 173.998H196.995" stroke="#0A66C2" stroke-width="2.5" stroke-miterlimit="10" stroke-linecap="round" stroke-linejoin="round"/>
<path d="M203 173.998H209.005" stroke="#0A66C2" stroke-width="2.5" stroke-miterlimit="10" stroke-linecap="round" stroke-linejoin="round"/>
<defs>
<filter id="filter0_d_87_23" x="117" y="112" width="191" height="191" filterUnits="userSpaceOnUse" color-interpolation-filters="sRGB">
<feFlood flood-opacity="0" result="BackgroundImageFix"/>
<feColorMatrix in="SourceAlpha" type="matrix" values="0 0 0 0 0 0 0 0 0 0 0 0 0 0 0 0 0 0 127 0" result="hardAlpha"/>
<feMorphology radius="10" operator="erode" in="SourceAlpha" result="effect1_dropShadow_87_23"/>
<feOffset dx="10" dy="10"/>
<feGaussianBlur stdDeviation="15"/>
<feComposite in2="hardAlpha" operator="out"/>
<feColorMatrix type="matrix" values="0 0 0 0 0.774083 0 0 0 0 0.860636 0 0 0 0 0.953846 0 0 0 1 0"/>
<feBlend mode="normal" in2="BackgroundImageFix" result="effect1_dropShadow_87_23"/>
<feBlend mode="normal" in="SourceGraphic" in2="effect1_dropShadow_87_23" result="shape"/>
</filter>
<filter id="filter1_dd_87_23" x="104" y="99" width="207" height="207" filterUnits="userSpaceOnUse" color-interpolation-filters="sRGB">
<feFlood flood-opacity="0" result="BackgroundImageFix"/>
<feColorMatrix in="SourceAlpha" type="matrix" values="0 0 0 0 0 0 0 0 0 0 0 0 0 0 0 0 0 0 127 0" result="hardAlpha"/>
<feOffset dx="5" dy="5"/>
<feGaussianBlur stdDeviation="18.5"/>
<feComposite in2="hardAlpha" operator="out"/>
<feColorMatrix type="matrix" values="0 0 0 0 0.830769 0 0 0 0 0.866578 0 0 0 0 0.9 0 0 0 1 0"/>
<feBlend mode="normal" in2="BackgroundImageFix" result="effect1_dropShadow_87_23"/>
<feColorMatrix in="SourceAlpha" type="matrix" values="0 0 0 0 0 0 0 0 0 0 0 0 0 0 0 0 0 0 127 0" result="hardAlpha"/>
<feOffset dx="-5" dy="-5"/>
<feGaussianBlur stdDeviation="5"/>
<feComposite in2="hardAlpha" operator="out"/>
<feColorMatrix type="matrix" values="0 0 0 0 1 0 0 0 0 1 0 0 0 0 1 0 0 0 0.25 0"/>
<feBlend mode="normal" in2="effect1_dropShadow_87_23" result="effect2_dropShadow_87_23"/>
<feBlend mode="normal" in="SourceGraphic" in2="effect2_dropShadow_87_23" result="shape"/>
</filter>
<filter id="filter2_d_87_23" x="292" y="61" width="110" height="110" filterUnits="userSpaceOnUse" color-interpolation-filters="sRGB">
<feFlood flood-opacity="0" result="BackgroundImageFix"/>
<feColorMatrix in="SourceAlpha" type="matrix" values="0 0 0 0 0 0 0 0 0 0 0 0 0 0 0 0 0 0 127 0" result="hardAlpha"/>
<feOffset dy="2"/>
<feGaussianBlur stdDeviation="3"/>
<feComposite in2="hardAlpha" operator="out"/>
<feColorMatrix type="matrix" values="0 0 0 0 0.732337 0 0 0 0 0.802849 0 0 0 0 0.857692 0 0 0 0.4 0"/>
<feBlend mode="normal" in2="BackgroundImageFix" result="effect1_dropShadow_87_23"/>
<feBlend mode="normal" in="SourceGraphic" in2="effect1_dropShadow_87_23" result="shape"/>
</filter>
<filter id="filter3_d_87_23" x="176" y="0" width="110" height="110" filterUnits="userSpaceOnUse" color-interpolation-filters="sRGB">
<feFlood flood-opacity="0" result="BackgroundImageFix"/>
<feColorMatrix in="SourceAlpha" type="matrix" values="0 0 0 0 0 0 0 0 0 0 0 0 0 0 0 0 0 0 127 0" result="hardAlpha"/>
<feOffset dy="2"/>
<feGaussianBlur stdDeviation="3"/>
<feComposite in2="hardAlpha" operator="out"/>
<feColorMatrix type="matrix" values="0 0 0 0 0.732337 0 0 0 0 0.802849 0 0 0 0 0.857692 0 0 0 0.4 0"/>
<feBlend mode="normal" in2="BackgroundImageFix" result="effect1_dropShadow_87_23"/>
<feBlend mode="normal" in="SourceGraphic" in2="effect1_dropShadow_87_23" result="shape"/>
</filter>
<filter id="filter4_d_87_23" x="101" y="37" width="71" height="71" filterUnits="userSpaceOnUse" color-interpolation-filters="sRGB">
<feFlood flood-opacity="0" result="BackgroundImageFix"/>
<feColorMatrix in="SourceAlpha" type="matrix" values="0 0 0 0 0 0 0 0 0 0 0 0 0 0 0 0 0 0 127 0" result="hardAlpha"/>
<feOffset dy="2"/>
<feGaussianBlur stdDeviation="3"/>
<feComposite in2="hardAlpha" operator="out"/>
<feColorMatrix type="matrix" values="0 0 0 0 0.732337 0 0 0 0 0.802849 0 0 0 0 0.857692 0 0 0 0.4 0"/>
<feBlend mode="normal" in2="BackgroundImageFix" result="effect1_dropShadow_87_23"/>
<feBlend mode="normal" in="SourceGraphic" in2="effect1_dropShadow_87_23" result="shape"/>
</filter>
<filter id="filter5_d_87_23" x="14" y="25" width="83" height="83" filterUnits="userSpaceOnUse" color-interpolation-filters="sRGB">
<feFlood flood-opacity="0" result="BackgroundImageFix"/>
<feColorMatrix in="SourceAlpha" type="matrix" values="0 0 0 0 0 0 0 0 0 0 0 0 0 0 0 0 0 0 127 0" result="hardAlpha"/>
<feOffset dy="2"/>
<feGaussianBlur stdDeviation="3"/>
<feComposite in2="hardAlpha" operator="out"/>
<feColorMatrix type="matrix" values="0 0 0 0 0.732337 0 0 0 0 0.802849 0 0 0 0 0.857692 0 0 0 0.4 0"/>
<feBlend mode="normal" in2="BackgroundImageFix" result="effect1_dropShadow_87_23"/>
<feBlend mode="normal" in="SourceGraphic" in2="effect1_dropShadow_87_23" result="shape"/>
</filter>
<filter id="filter6_d_87_23" x="111" y="286" width="86" height="86" filterUnits="userSpaceOnUse" color-interpolation-filters="sRGB">
<feFlood flood-opacity="0" result="BackgroundImageFix"/>
<feColorMatrix in="SourceAlpha" type="matrix" values="0 0 0 0 0 0 0 0 0 0 0 0 0 0 0 0 0 0 127 0" result="hardAlpha"/>
<feOffset dy="2"/>
<feGaussianBlur stdDeviation="3"/>
<feComposite in2="hardAlpha" operator="out"/>
<feColorMatrix type="matrix" values="0 0 0 0 0.732337 0 0 0 0 0.802849 0 0 0 0 0.857692 0 0 0 0.4 0"/>
<feBlend mode="normal" in2="BackgroundImageFix" result="effect1_dropShadow_87_23"/>
<feBlend mode="normal" in="SourceGraphic" in2="effect1_dropShadow_87_23" result="shape"/>
</filter>
<filter id="filter7_d_87_23" x="292" y="266" width="66" height="66" filterUnits="userSpaceOnUse" color-interpolation-filters="sRGB">
<feFlood flood-opacity="0" result="BackgroundImageFix"/>
<feColorMatrix in="SourceAlpha" type="matrix" values="0 0 0 0 0 0 0 0 0 0 0 0 0 0 0 0 0 0 127 0" result="hardAlpha"/>
<feOffset dy="2"/>
<feGaussianBlur stdDeviation="3"/>
<feComposite in2="hardAlpha" operator="out"/>
<feColorMatrix type="matrix" values="0 0 0 0 0.732337 0 0 0 0 0.802849 0 0 0 0 0.857692 0 0 0 0.4 0"/>
<feBlend mode="normal" in2="BackgroundImageFix" result="effect1_dropShadow_87_23"/>
<feBlend mode="normal" in="SourceGraphic" in2="effect1_dropShadow_87_23" result="shape"/>
</filter>
<filter id="filter8_d_87_23" x="38" y="296" width="66" height="66" filterUnits="userSpaceOnUse" color-interpolation-filters="sRGB">
<feFlood flood-opacity="0" result="BackgroundImageFix"/>
<feColorMatrix in="SourceAlpha" type="matrix" values="0 0 0 0 0 0 0 0 0 0 0 0 0 0 0 0 0 0 127 0" result="hardAlpha"/>
<feOffset dy="2"/>
<feGaussianBlur stdDeviation="3"/>
<feComposite in2="hardAlpha" operator="out"/>
<feColorMatrix type="matrix" values="0 0 0 0 0.732337 0 0 0 0 0.802849 0 0 0 0 0.857692 0 0 0 0.4 0"/>
<feBlend mode="normal" in2="BackgroundImageFix" result="effect1_dropShadow_87_23"/>
<feBlend mode="normal" in="SourceGraphic" in2="effect1_dropShadow_87_23" result="shape"/>
</filter>
<filter id="filter9_d_87_23" x="21" y="113" width="95" height="95" filterUnits="userSpaceOnUse" color-interpolation-filters="sRGB">
<feFlood flood-opacity="0" result="BackgroundImageFix"/>
<feColorMatrix in="SourceAlpha" type="matrix" values="0 0 0 0 0 0 0 0 0 0 0 0 0 0 0 0 0 0 127 0" result="hardAlpha"/>
<feOffset dy="2"/>
<feGaussianBlur stdDeviation="3"/>
<feComposite in2="hardAlpha" operator="out"/>
<feColorMatrix type="matrix" values="0 0 0 0 0.732337 0 0 0 0 0.802849 0 0 0 0 0.857692 0 0 0 0.4 0"/>
<feBlend mode="normal" in2="BackgroundImageFix" result="effect1_dropShadow_87_23"/>
<feBlend mode="normal" in="SourceGraphic" in2="effect1_dropShadow_87_23" result="shape"/>
</filter>
<filter id="filter10_d_87_23" x="300" y="188" width="257" height="96" filterUnits="userSpaceOnUse" color-interpolation-filters="sRGB">
<feFlood flood-opacity="0" result="BackgroundImageFix"/>
<feColorMatrix in="SourceAlpha" type="matrix" values="0 0 0 0 0 0 0 0 0 0 0 0 0 0 0 0 0 0 127 0" result="hardAlpha"/>
<feMorphology radius="20" operator="erode" in="SourceAlpha" result="effect1_dropShadow_87_23"/>
<feOffset dx="15" dy="15"/>
<feGaussianBlur stdDeviation="18"/>
<feComposite in2="hardAlpha" operator="out"/>
<feColorMatrix type="matrix" values="0 0 0 0 0.732337 0 0 0 0 0.802849 0 0 0 0 0.857692 0 0 0 0.4 0"/>
<feBlend mode="normal" in2="BackgroundImageFix" result="effect1_dropShadow_87_23"/>
<feBlend mode="normal" in="SourceGraphic" in2="effect1_dropShadow_87_23" result="shape"/>
</filter>
<filter id="filter11_d_87_23" x="0" y="215" width="116" height="76" filterUnits="userSpaceOnUse" color-interpolation-filters="sRGB">
<feFlood flood-opacity="0" result="BackgroundImageFix"/>
<feColorMatrix in="SourceAlpha" type="matrix" values="0 0 0 0 0 0 0 0 0 0 0 0 0 0 0 0 0 0 127 0" result="hardAlpha"/>
<feOffset dy="2"/>
<feGaussianBlur stdDeviation="3"/>
<feComposite in2="hardAlpha" operator="out"/>
<feColorMatrix type="matrix" values="0 0 0 0 0.732337 0 0 0 0 0.802849 0 0 0 0 0.857692 0 0 0 0.4 0"/>
<feBlend mode="normal" in2="BackgroundImageFix" result="effect1_dropShadow_87_23"/>
<feBlend mode="normal" in="SourceGraphic" in2="effect1_dropShadow_87_23" result="shape"/>
</filter>
</defs>
</svg>
