<svg width="309" height="281" viewBox="0 0 309 281" fill="none" xmlns="http://www.w3.org/2000/svg">
<path d="M145.75 51.0518C150.546 48.283 156.454 48.283 161.25 51.0518L227.09 89.0645C231.885 91.8333 234.84 96.95 234.84 102.487V178.513C234.84 184.05 231.885 189.167 227.09 191.936L161.25 229.948C156.454 232.717 150.546 232.717 145.75 229.948L79.9102 191.936C75.1148 189.167 72.1603 184.05 72.1602 178.513V102.487C72.1603 96.95 75.1148 91.8333 79.9102 89.0645L145.75 51.0518Z" stroke="white" stroke-opacity="0.6"/>
<path d="M145.25 31.0518C149.896 28.3695 155.586 28.2862 160.297 30.8008L160.75 31.0518L243.477 78.8145C248.272 81.5832 251.226 86.6998 251.227 92.2373V187.763C251.226 193.3 248.272 198.417 243.477 201.186L160.75 248.948C155.954 251.717 150.046 251.717 145.25 248.948L62.5234 201.186C57.7278 198.417 54.7735 193.3 54.7734 187.763V92.2373C54.7735 86.6998 57.7278 81.5832 62.5234 78.8145L145.25 31.0518Z" stroke="white" stroke-opacity="0.3"/>
<path d="M144.75 11.0518C149.546 8.28297 155.454 8.28297 160.25 11.0518L259.864 68.5645C264.66 71.3332 267.614 76.4498 267.614 81.9873V197.013C267.614 202.55 264.66 207.667 259.864 210.436L160.25 267.948C155.454 270.717 149.546 270.717 144.75 267.948L45.1357 210.436C40.3401 207.667 37.3859 202.55 37.3857 197.013V81.9873C37.3858 76.4498 40.3401 71.3332 45.1357 68.5645L144.75 11.0518Z" stroke="white" stroke-opacity="0.1"/>
<g filter="url(#filter0_d_105_44)">
<path d="M148 83.0415C152.332 80.5406 157.668 80.5406 162 83.0415L199.095 104.459C203.427 106.959 206.095 111.581 206.095 116.583V159.417C206.095 164.419 203.427 169.041 199.095 171.541L162 192.959C157.668 195.459 152.332 195.459 148 192.959L110.905 171.541C106.573 169.041 103.905 164.419 103.905 159.417V116.583C103.905 111.581 106.573 106.959 110.905 104.459L148 83.0415Z" fill="#E7F4FF"/>
<path d="M148.5 83.9072C152.396 81.6577 157.169 81.5874 161.12 83.6963L161.5 83.9072L198.596 105.324C202.618 107.646 205.096 111.939 205.096 116.583V159.417C205.096 164.061 202.618 168.354 198.596 170.676L161.5 192.093C157.604 194.342 152.831 194.413 148.88 192.304L148.5 192.093L111.404 170.676C107.382 168.354 104.904 164.061 104.904 159.417V116.583C104.904 111.939 107.382 107.646 111.404 105.324L148.5 83.9072Z" stroke="white" stroke-width="2"/>
</g>
<path d="M173.733 125.493C173.434 125.063 173.12 124.644 172.793 124.237C168.755 119.211 162.633 116 155.791 116C148.949 116 142.827 119.211 138.789 124.237C138.462 124.644 138.148 125.063 137.849 125.493C135.295 129.168 133.791 133.658 133.791 138.5C133.791 143.37 135.312 147.883 137.894 151.57C138.194 151.999 138.508 152.417 138.837 152.823C142.875 157.814 148.976 161 155.791 161C162.606 161 168.707 157.814 172.745 152.823C173.074 152.417 173.388 151.999 173.688 151.57C176.27 147.883 177.791 143.37 177.791 138.5C177.791 133.658 176.288 129.168 173.733 125.493ZM171.532 125.157C171.182 125.388 170.815 125.612 170.428 125.83C169.281 126.475 168.021 127.034 166.672 127.503C166.146 125.793 165.494 124.201 164.723 122.768C163.752 120.961 162.638 119.492 161.426 118.389C165.431 119.565 168.937 121.961 171.532 125.157ZM167.123 132.024C167.345 132.024 167.555 132.075 167.744 132.164C168.26 132.406 168.62 132.938 168.62 133.555C168.62 134.033 168.404 134.46 168.067 134.741C167.809 134.956 167.481 135.086 167.123 135.086C166.914 135.086 166.716 135.042 166.535 134.963C166.001 134.728 165.625 134.186 165.625 133.555C165.625 133.062 165.855 132.625 166.209 132.345C166.462 132.144 166.778 132.024 167.123 132.024ZM156.564 117.634C159.103 117.983 161.495 120.045 163.368 123.53C164.09 124.871 164.702 126.364 165.196 127.97C162.547 128.729 159.615 129.158 156.564 129.22V117.634ZM156.564 130.801C159.757 130.738 162.833 130.288 165.621 129.489C165.722 129.888 165.816 130.294 165.902 130.705C164.831 131.187 164.08 132.282 164.08 133.555C164.08 135.106 165.195 136.394 166.648 136.628C166.665 137.003 166.677 137.38 166.684 137.759H158.746C158.481 136.654 157.638 135.779 156.564 135.49V130.801ZM165.598 147.604C162.815 146.809 159.748 146.361 156.564 146.298V141.51C157.605 141.23 158.43 140.398 158.72 139.34H166.682C166.622 142.246 166.251 145.045 165.598 147.604ZM165.915 153.341C165.914 154.185 165.243 154.872 164.418 154.872C164.4 154.872 164.383 154.87 164.365 154.869C163.794 154.849 163.305 154.501 163.07 154.003C162.975 153.803 162.92 153.579 162.92 153.341C162.92 152.586 163.458 151.959 164.161 151.834C164.245 151.819 164.33 151.81 164.418 151.81C164.9 151.81 165.328 152.045 165.602 152.409C165.797 152.668 165.915 152.99 165.915 153.341ZM155.018 117.634V129.22C151.967 129.158 149.036 128.729 146.386 127.97C146.503 127.59 146.627 127.216 146.757 126.848C146.82 126.852 146.882 126.855 146.946 126.855C148.623 126.855 149.989 125.459 149.989 123.743C149.989 122.992 149.727 122.302 149.292 121.764C150.968 119.349 152.944 117.919 155.018 117.634ZM145.961 129.489C148.749 130.288 151.826 130.738 155.018 130.801V135.49C153.944 135.779 153.101 136.654 152.836 137.759H144.898C144.951 134.853 145.315 132.051 145.961 129.489ZM145.449 123.743C145.449 122.899 146.12 122.212 146.946 122.212C147.019 122.212 147.09 122.219 147.16 122.229C147.724 122.313 148.187 122.717 148.364 123.257C148.414 123.41 148.443 123.573 148.443 123.743C148.443 124.423 148.007 125 147.406 125.199C147.261 125.247 147.107 125.274 146.946 125.274C146.53 125.274 146.153 125.099 145.882 124.819C145.614 124.542 145.449 124.162 145.449 123.743ZM150.157 118.389C149.409 119.069 148.699 119.887 148.038 120.839C147.698 120.705 147.33 120.631 146.946 120.631C145.268 120.631 143.903 122.027 143.903 123.743C143.903 124.835 144.456 125.796 145.29 126.352C145.157 126.729 145.03 127.113 144.91 127.503C143.562 127.034 142.301 126.475 141.154 125.83C140.767 125.612 140.4 125.388 140.05 125.157C142.644 121.961 146.151 119.565 150.157 118.389ZM139.105 126.414C139.517 126.69 139.951 126.958 140.409 127.215C141.654 127.915 143.021 128.519 144.483 129.023C143.793 131.735 143.406 134.695 143.352 137.759H135.35C135.494 133.544 136.864 129.641 139.105 126.414ZM145.067 142.254C145.471 142.528 145.738 142.997 145.738 143.53C145.738 143.92 145.593 144.276 145.356 144.547C145.082 144.861 144.684 145.06 144.241 145.06H144.241C144.111 145.06 143.986 145.042 143.865 145.01C143.221 144.838 142.744 144.241 142.744 143.53C142.744 142.957 143.053 142.457 143.509 142.195C143.726 142.07 143.975 141.998 144.241 141.998C144.546 141.998 144.83 142.093 145.067 142.254ZM135.353 139.34H143.354C143.362 139.742 143.375 140.143 143.395 140.541C142.127 140.917 141.198 142.114 141.198 143.53C141.198 145.222 142.526 146.602 144.172 146.639C144.274 147.122 144.386 147.599 144.507 148.068C143.036 148.573 141.66 149.18 140.409 149.884C139.969 150.132 139.551 150.389 139.152 150.653C136.901 147.438 135.516 143.547 135.353 139.34ZM140.103 151.907C140.437 151.689 140.787 151.476 141.154 151.27C142.309 150.62 143.579 150.057 144.938 149.587C145.459 151.262 146.102 152.824 146.859 154.232C147.831 156.039 148.944 157.508 150.157 158.611C146.178 157.444 142.692 155.071 140.103 151.907ZM155.018 159.366C152.479 159.017 150.087 156.955 148.214 153.47C147.506 152.154 146.904 150.692 146.414 149.121C149.057 148.367 151.978 147.941 155.018 147.879V159.366ZM155.018 146.298C151.835 146.361 148.767 146.809 145.984 147.604C145.873 147.167 145.77 146.723 145.675 146.273C146.631 145.748 147.283 144.715 147.283 143.53C147.283 142.06 146.282 140.825 144.94 140.501C144.921 140.116 144.908 139.729 144.9 139.34H152.862C153.152 140.398 153.977 141.23 155.018 141.51V146.298ZM155.018 139.809C154.827 139.69 154.664 139.53 154.541 139.34C154.385 139.099 154.294 138.81 154.294 138.5C154.294 138.231 154.363 137.979 154.482 137.759C154.609 137.525 154.795 137.33 155.018 137.191C155.244 137.051 155.508 136.969 155.791 136.969C156.074 136.969 156.338 137.051 156.564 137.191C156.787 137.33 156.973 137.525 157.1 137.759C157.22 137.979 157.288 138.231 157.288 138.5C157.288 138.81 157.197 139.099 157.041 139.34C156.918 139.53 156.755 139.69 156.564 139.809C156.338 139.949 156.074 140.031 155.791 140.031C155.508 140.031 155.244 139.949 155.018 139.809ZM156.564 159.366V147.879C159.604 147.941 162.526 148.367 165.168 149.121C165.048 149.505 164.922 149.883 164.789 150.253C164.667 150.238 164.543 150.229 164.417 150.229C162.74 150.229 161.375 151.625 161.375 153.341C161.375 154.141 161.672 154.872 162.159 155.424C160.512 157.725 158.584 159.088 156.564 159.366ZM161.425 158.611C162.138 157.963 162.816 157.187 163.452 156.291C163.755 156.396 164.08 156.453 164.418 156.453C166.095 156.453 167.46 155.057 167.46 153.341C167.46 152.317 166.974 151.407 166.225 150.839C166.372 150.43 166.512 150.012 166.644 149.587C168.003 150.058 169.273 150.62 170.428 151.27C170.795 151.476 171.145 151.689 171.48 151.907C168.89 155.071 165.404 157.444 161.425 158.611ZM172.43 150.653C172.031 150.389 171.613 150.132 171.173 149.884C169.922 149.18 168.546 148.573 167.075 148.068C167.772 145.361 168.167 142.403 168.228 139.34H176.229C176.24 139.062 176.245 138.781 176.245 138.5C176.245 138.5 176.245 138.5 176.245 138.5C176.245 138.781 176.24 139.061 176.229 139.34C176.066 143.547 174.681 147.438 172.43 150.653ZM176.232 137.759H168.23C168.223 137.327 168.209 136.897 168.188 136.469C169.342 136.027 170.165 134.887 170.165 133.555C170.165 131.945 168.965 130.617 167.431 130.459C167.33 129.973 167.219 129.494 167.099 129.023C168.561 128.519 169.929 127.915 171.173 127.215C171.631 126.958 172.065 126.69 172.478 126.414C174.718 129.641 176.088 133.544 176.232 137.759Z" fill="#329FFF"/>
<g filter="url(#filter1_d_105_44)">
<path d="M205 5.88675C208.094 4.10042 211.906 4.10042 215 5.88675L244.837 23.1132C247.931 24.8996 249.837 28.2008 249.837 31.7735V66.2265C249.837 69.7992 247.931 73.1004 244.837 74.8867L215 92.1133C211.906 93.8996 208.094 93.8996 205 92.1133L175.163 74.8867C172.069 73.1004 170.163 69.7992 170.163 66.2265V31.7735C170.163 28.2008 172.069 24.8996 175.163 23.1132L205 5.88675Z" fill="#DDEBFA"/>
<path d="M205.25 6.31934C208.098 4.67541 211.585 4.62466 214.473 6.16602L214.75 6.31934L244.587 23.5459C247.526 25.2429 249.337 28.3794 249.337 31.7734V66.2266C249.337 69.6206 247.526 72.7571 244.587 74.4541L214.75 91.6807C211.902 93.3246 208.415 93.3753 205.527 91.834L205.25 91.6807L175.413 74.4541C172.474 72.7571 170.663 69.6206 170.663 66.2266V31.7734C170.663 28.3794 172.474 25.2429 175.413 23.5459L205.25 6.31934Z" stroke="white" stroke-opacity="0.6"/>
</g>
<g filter="url(#filter2_d_105_44)">
<path d="M258 95.8868C261.094 94.1004 264.906 94.1004 268 95.8868L297.837 113.113C300.931 114.9 302.837 118.201 302.837 121.774V156.226C302.837 159.799 300.931 163.1 297.837 164.887L268 182.113C264.906 183.9 261.094 183.9 258 182.113L228.163 164.887C225.069 163.1 223.163 159.799 223.163 156.226V121.774C223.163 118.201 225.069 114.9 228.163 113.113L258 95.8868Z" fill="#E4F0FD"/>
<path d="M258.25 96.3193C261.098 94.6754 264.585 94.6247 267.473 96.166L267.75 96.3193L297.587 113.546C300.526 115.243 302.337 118.379 302.337 121.773V156.227C302.337 159.621 300.526 162.757 297.587 164.454L267.75 181.681C264.902 183.325 261.415 183.375 258.527 181.834L258.25 181.681L228.413 164.454C225.474 162.757 223.663 159.621 223.663 156.227V121.773C223.663 118.379 225.474 115.243 228.413 113.546L258.25 96.3193Z" stroke="white" stroke-opacity="0.6"/>
</g>
<g filter="url(#filter3_d_105_44)">
<path d="M205 188.887C208.094 187.1 211.906 187.1 215 188.887L244.837 206.113C247.931 207.9 249.837 211.201 249.837 214.774V249.226C249.837 252.799 247.931 256.1 244.837 257.887L215 275.113C211.906 276.9 208.094 276.9 205 275.113L175.163 257.887C172.069 256.1 170.163 252.799 170.163 249.226V214.774C170.163 211.201 172.069 207.9 175.163 206.113L205 188.887Z" fill="#DDEBFA"/>
<path d="M205.25 189.319C208.098 187.675 211.585 187.625 214.473 189.166L214.75 189.319L244.587 206.546C247.526 208.243 249.337 211.379 249.337 214.773V249.227C249.337 252.621 247.526 255.757 244.587 257.454L214.75 274.681C211.902 276.325 208.415 276.375 205.527 274.834L205.25 274.681L175.413 257.454C172.474 255.757 170.663 252.621 170.663 249.227V214.773C170.663 211.379 172.474 208.243 175.413 206.546L205.25 189.319Z" stroke="white" stroke-opacity="0.6"/>
</g>
<g filter="url(#filter4_d_105_44)">
<path d="M91 188.887C94.094 187.1 97.906 187.1 101 188.887L130.837 206.113C133.931 207.9 135.837 211.201 135.837 214.774V249.226C135.837 252.799 133.931 256.1 130.837 257.887L101 275.113C97.906 276.9 94.094 276.9 91 275.113L61.1628 257.887C58.0688 256.1 56.1628 252.799 56.1628 249.226V214.774C56.1628 211.201 58.0688 207.9 61.1628 206.113L91 188.887Z" fill="#E4F0FD"/>
<path d="M91.25 189.319C94.0975 187.675 97.5852 187.625 100.473 189.166L100.75 189.319L130.587 206.546C133.526 208.243 135.337 211.379 135.337 214.773V249.227C135.337 252.621 133.526 255.757 130.587 257.454L100.75 274.681C97.9025 276.325 94.4148 276.375 91.5273 274.834L91.25 274.681L61.4131 257.454C58.4738 255.757 56.6631 252.621 56.6631 249.227V214.773C56.6631 211.379 58.4738 208.243 61.4131 206.546L91.25 189.319Z" stroke="white" stroke-opacity="0.6"/>
</g>
<g filter="url(#filter5_d_105_44)">
<path d="M41 95.8868C44.094 94.1004 47.906 94.1004 51 95.8868L80.8372 113.113C83.9312 114.9 85.8372 118.201 85.8372 121.774V156.226C85.8372 159.799 83.9312 163.1 80.8372 164.887L51 182.113C47.906 183.9 44.094 183.9 41 182.113L11.1628 164.887C8.06882 163.1 6.16283 159.799 6.16283 156.226V121.774C6.16283 118.201 8.06882 114.9 11.1628 113.113L41 95.8868Z" fill="#E4F0FD"/>
<path d="M41.25 96.3193C44.0975 94.6754 47.5852 94.6247 50.4727 96.166L50.75 96.3193L80.5869 113.546C83.5262 115.243 85.3369 118.379 85.3369 121.773V156.227C85.3369 159.621 83.5262 162.757 80.5869 164.454L50.75 181.681C47.9025 183.325 44.4148 183.375 41.5273 181.834L41.25 181.681L11.4131 164.454C8.4738 162.757 6.66311 159.621 6.66309 156.227V121.773C6.66311 118.379 8.47379 115.243 11.4131 113.546L41.25 96.3193Z" stroke="white" stroke-opacity="0.6"/>
</g>
<g filter="url(#filter6_d_105_44)">
<path d="M91 2.88675C94.094 1.10042 97.906 1.10042 101 2.88675L130.837 20.1132C133.931 21.8996 135.837 25.2008 135.837 28.7735V63.2265C135.837 66.7992 133.931 70.1004 130.837 71.8867L101 89.1133C97.906 90.8996 94.094 90.8996 91 89.1133L61.1628 71.8867C58.0688 70.1004 56.1628 66.7992 56.1628 63.2265V28.7735C56.1628 25.2008 58.0688 21.8996 61.1628 20.1132L91 2.88675Z" fill="#DDEBFA"/>
<path d="M91.25 3.31934C94.0975 1.67541 97.5852 1.62466 100.473 3.16602L100.75 3.31934L130.587 20.5459C133.526 22.2429 135.337 25.3794 135.337 28.7734V63.2266C135.337 66.6206 133.526 69.7571 130.587 71.4541L100.75 88.6807C97.9025 90.3246 94.4148 90.3753 91.5273 88.834L91.25 88.6807L61.4131 71.4541C58.4738 69.7571 56.6631 66.6206 56.6631 63.2266V28.7734C56.6631 25.3794 58.4738 22.2429 61.4131 20.5459L91.25 3.31934Z" stroke="white" stroke-opacity="0.6"/>
</g>
<path d="M96.4331 220C90.1194 220 85 225.175 85 231.56C85 237.944 90.1189 243.119 96.4331 243.119C102.748 243.119 107.866 237.944 107.866 231.56C107.866 225.175 102.748 220 96.4331 220ZM96.4331 223.456C98.5223 223.456 100.215 225.169 100.215 227.28C100.215 229.392 98.5223 231.104 96.4331 231.104C94.345 231.104 92.652 229.392 92.652 227.28C92.652 225.169 94.345 223.456 96.4331 223.456ZM96.4306 240.097C94.347 240.097 92.4386 239.33 90.9666 238.06C90.6081 237.751 90.4012 237.297 90.4012 236.821C90.4012 234.68 92.1152 232.966 94.2335 232.966H98.6337C100.753 232.966 102.46 234.68 102.46 236.821C102.46 237.298 102.254 237.75 101.895 238.059C100.424 239.33 98.5147 240.097 96.4306 240.097Z" fill="#A6D5FF"/>
<path d="M45.4331 127C39.1194 127 34 132.175 34 138.56C34 144.944 39.1189 150.119 45.4331 150.119C51.7478 150.119 56.8662 144.944 56.8662 138.56C56.8662 132.175 51.7478 127 45.4331 127ZM45.4331 130.456C47.5223 130.456 49.2152 132.169 49.2152 134.28C49.2152 136.392 47.5223 138.104 45.4331 138.104C43.345 138.104 41.652 136.392 41.652 134.28C41.652 132.169 43.345 130.456 45.4331 130.456ZM45.4306 147.097C43.347 147.097 41.4386 146.33 39.9666 145.06C39.6081 144.751 39.4012 144.297 39.4012 143.821C39.4012 141.68 41.1152 139.966 43.2335 139.966H47.6337C49.7525 139.966 51.46 141.68 51.46 143.821C51.46 144.298 51.2541 144.75 50.895 145.059C49.4236 146.33 47.5147 147.097 45.4306 147.097Z" fill="#A6D5FF"/>
<path d="M210.433 220C204.119 220 199 225.175 199 231.56C199 237.944 204.119 243.119 210.433 243.119C216.748 243.119 221.866 237.944 221.866 231.56C221.866 225.175 216.748 220 210.433 220ZM210.433 223.456C212.522 223.456 214.215 225.169 214.215 227.28C214.215 229.392 212.522 231.104 210.433 231.104C208.345 231.104 206.652 229.392 206.652 227.28C206.652 225.169 208.345 223.456 210.433 223.456ZM210.431 240.097C208.347 240.097 206.439 239.33 204.967 238.06C204.608 237.751 204.401 237.297 204.401 236.821C204.401 234.68 206.115 232.966 208.233 232.966H212.634C214.753 232.966 216.46 234.68 216.46 236.821C216.46 237.298 216.254 237.75 215.895 238.059C214.424 239.33 212.515 240.097 210.431 240.097Z" fill="#A6D5FF"/>
<path d="M96.4331 34C90.1194 34 85 39.1753 85 45.5597C85 51.944 90.1189 57.1194 96.4331 57.1194C102.748 57.1194 107.866 51.944 107.866 45.5597C107.866 39.1753 102.748 34 96.4331 34ZM96.4331 37.4565C98.5223 37.4565 100.215 39.1687 100.215 41.2801C100.215 43.392 98.5223 45.1037 96.4331 45.1037C94.345 45.1037 92.652 43.392 92.652 41.2801C92.652 39.1687 94.345 37.4565 96.4331 37.4565ZM96.4306 54.097C94.347 54.097 92.4386 53.3298 90.9666 52.0598C90.6081 51.7506 90.4012 51.2971 90.4012 50.8213C90.4012 48.68 92.1152 46.9662 94.2335 46.9662H98.6337C100.753 46.9662 102.46 48.68 102.46 50.8213C102.46 51.2976 102.254 51.7501 101.895 52.0593C100.424 53.3298 98.5147 54.097 96.4306 54.097Z" fill="#A6D5FF"/>
<path d="M210.433 37C204.119 37 199 42.1753 199 48.5597C199 54.944 204.119 60.1194 210.433 60.1194C216.748 60.1194 221.866 54.944 221.866 48.5597C221.866 42.1753 216.748 37 210.433 37ZM210.433 40.4565C212.522 40.4565 214.215 42.1687 214.215 44.2801C214.215 46.392 212.522 48.1037 210.433 48.1037C208.345 48.1037 206.652 46.392 206.652 44.2801C206.652 42.1687 208.345 40.4565 210.433 40.4565ZM210.431 57.097C208.347 57.097 206.439 56.3298 204.967 55.0598C204.608 54.7506 204.401 54.2971 204.401 53.8213C204.401 51.68 206.115 49.9662 208.233 49.9662H212.634C214.753 49.9662 216.46 51.68 216.46 53.8213C216.46 54.2976 216.254 54.7501 215.895 55.0593C214.424 56.3298 212.515 57.097 210.431 57.097Z" fill="#A6D5FF"/>
<path d="M262.433 127C256.119 127 251 132.175 251 138.56C251 144.944 256.119 150.119 262.433 150.119C268.748 150.119 273.866 144.944 273.866 138.56C273.866 132.175 268.748 127 262.433 127ZM262.433 130.456C264.522 130.456 266.215 132.169 266.215 134.28C266.215 136.392 264.522 138.104 262.433 138.104C260.345 138.104 258.652 136.392 258.652 134.28C258.652 132.169 260.345 130.456 262.433 130.456ZM262.431 147.097C260.347 147.097 258.439 146.33 256.967 145.06C256.608 144.751 256.401 144.297 256.401 143.821C256.401 141.68 258.115 139.966 260.233 139.966H264.634C266.753 139.966 268.46 141.68 268.46 143.821C268.46 144.298 268.254 144.75 267.895 145.059C266.424 146.33 264.515 147.097 262.431 147.097Z" fill="#A6D5FF"/>
<defs>
<filter id="filter0_d_105_44" x="93.9043" y="71.1658" width="142.191" height="153.668" filterUnits="userSpaceOnUse" color-interpolation-filters="sRGB">
<feFlood flood-opacity="0" result="BackgroundImageFix"/>
<feColorMatrix in="SourceAlpha" type="matrix" values="0 0 0 0 0 0 0 0 0 0 0 0 0 0 0 0 0 0 127 0" result="hardAlpha"/>
<feMorphology radius="10" operator="erode" in="SourceAlpha" result="effect1_dropShadow_105_44"/>
<feOffset dx="10" dy="10"/>
<feGaussianBlur stdDeviation="15"/>
<feComposite in2="hardAlpha" operator="out"/>
<feColorMatrix type="matrix" values="0 0 0 0 0.717707 0 0 0 0 0.814737 0 0 0 0 0.919231 0 0 0 1 0"/>
<feBlend mode="normal" in2="BackgroundImageFix" result="effect1_dropShadow_105_44"/>
<feBlend mode="normal" in="SourceGraphic" in2="effect1_dropShadow_105_44" result="shape"/>
</filter>
<filter id="filter1_d_105_44" x="168.163" y="4.54701" width="83.6738" height="92.906" filterUnits="userSpaceOnUse" color-interpolation-filters="sRGB">
<feFlood flood-opacity="0" result="BackgroundImageFix"/>
<feColorMatrix in="SourceAlpha" type="matrix" values="0 0 0 0 0 0 0 0 0 0 0 0 0 0 0 0 0 0 127 0" result="hardAlpha"/>
<feOffset dy="2"/>
<feGaussianBlur stdDeviation="1"/>
<feComposite in2="hardAlpha" operator="out"/>
<feColorMatrix type="matrix" values="0 0 0 0 0.732337 0 0 0 0 0.802849 0 0 0 0 0.857692 0 0 0 0.4 0"/>
<feBlend mode="normal" in2="BackgroundImageFix" result="effect1_dropShadow_105_44"/>
<feBlend mode="normal" in="SourceGraphic" in2="effect1_dropShadow_105_44" result="shape"/>
</filter>
<filter id="filter2_d_105_44" x="221.163" y="94.547" width="83.6738" height="92.906" filterUnits="userSpaceOnUse" color-interpolation-filters="sRGB">
<feFlood flood-opacity="0" result="BackgroundImageFix"/>
<feColorMatrix in="SourceAlpha" type="matrix" values="0 0 0 0 0 0 0 0 0 0 0 0 0 0 0 0 0 0 127 0" result="hardAlpha"/>
<feOffset dy="2"/>
<feGaussianBlur stdDeviation="1"/>
<feComposite in2="hardAlpha" operator="out"/>
<feColorMatrix type="matrix" values="0 0 0 0 0.732337 0 0 0 0 0.802849 0 0 0 0 0.857692 0 0 0 0.4 0"/>
<feBlend mode="normal" in2="BackgroundImageFix" result="effect1_dropShadow_105_44"/>
<feBlend mode="normal" in="SourceGraphic" in2="effect1_dropShadow_105_44" result="shape"/>
</filter>
<filter id="filter3_d_105_44" x="168.163" y="187.547" width="83.6738" height="92.906" filterUnits="userSpaceOnUse" color-interpolation-filters="sRGB">
<feFlood flood-opacity="0" result="BackgroundImageFix"/>
<feColorMatrix in="SourceAlpha" type="matrix" values="0 0 0 0 0 0 0 0 0 0 0 0 0 0 0 0 0 0 127 0" result="hardAlpha"/>
<feOffset dy="2"/>
<feGaussianBlur stdDeviation="1"/>
<feComposite in2="hardAlpha" operator="out"/>
<feColorMatrix type="matrix" values="0 0 0 0 0.732337 0 0 0 0 0.802849 0 0 0 0 0.857692 0 0 0 0.4 0"/>
<feBlend mode="normal" in2="BackgroundImageFix" result="effect1_dropShadow_105_44"/>
<feBlend mode="normal" in="SourceGraphic" in2="effect1_dropShadow_105_44" result="shape"/>
</filter>
<filter id="filter4_d_105_44" x="54.1631" y="187.547" width="83.6738" height="92.906" filterUnits="userSpaceOnUse" color-interpolation-filters="sRGB">
<feFlood flood-opacity="0" result="BackgroundImageFix"/>
<feColorMatrix in="SourceAlpha" type="matrix" values="0 0 0 0 0 0 0 0 0 0 0 0 0 0 0 0 0 0 127 0" result="hardAlpha"/>
<feOffset dy="2"/>
<feGaussianBlur stdDeviation="1"/>
<feComposite in2="hardAlpha" operator="out"/>
<feColorMatrix type="matrix" values="0 0 0 0 0.732337 0 0 0 0 0.802849 0 0 0 0 0.857692 0 0 0 0.4 0"/>
<feBlend mode="normal" in2="BackgroundImageFix" result="effect1_dropShadow_105_44"/>
<feBlend mode="normal" in="SourceGraphic" in2="effect1_dropShadow_105_44" result="shape"/>
</filter>
<filter id="filter5_d_105_44" x="4.16309" y="94.547" width="83.6738" height="92.906" filterUnits="userSpaceOnUse" color-interpolation-filters="sRGB">
<feFlood flood-opacity="0" result="BackgroundImageFix"/>
<feColorMatrix in="SourceAlpha" type="matrix" values="0 0 0 0 0 0 0 0 0 0 0 0 0 0 0 0 0 0 127 0" result="hardAlpha"/>
<feOffset dy="2"/>
<feGaussianBlur stdDeviation="1"/>
<feComposite in2="hardAlpha" operator="out"/>
<feColorMatrix type="matrix" values="0 0 0 0 0.732337 0 0 0 0 0.802849 0 0 0 0 0.857692 0 0 0 0.4 0"/>
<feBlend mode="normal" in2="BackgroundImageFix" result="effect1_dropShadow_105_44"/>
<feBlend mode="normal" in="SourceGraphic" in2="effect1_dropShadow_105_44" result="shape"/>
</filter>
<filter id="filter6_d_105_44" x="54.1631" y="1.54701" width="83.6738" height="92.906" filterUnits="userSpaceOnUse" color-interpolation-filters="sRGB">
<feFlood flood-opacity="0" result="BackgroundImageFix"/>
<feColorMatrix in="SourceAlpha" type="matrix" values="0 0 0 0 0 0 0 0 0 0 0 0 0 0 0 0 0 0 127 0" result="hardAlpha"/>
<feOffset dy="2"/>
<feGaussianBlur stdDeviation="1"/>
<feComposite in2="hardAlpha" operator="out"/>
<feColorMatrix type="matrix" values="0 0 0 0 0.732337 0 0 0 0 0.802849 0 0 0 0 0.857692 0 0 0 0.4 0"/>
<feBlend mode="normal" in2="BackgroundImageFix" result="effect1_dropShadow_105_44"/>
<feBlend mode="normal" in="SourceGraphic" in2="effect1_dropShadow_105_44" result="shape"/>
</filter>
</defs>
</svg>
