<svg width="367" height="308" viewBox="0 0 367 308" fill="none" xmlns="http://www.w3.org/2000/svg">
<g filter="url(#filter0_d_93_100)">
<circle cx="169.5" cy="152.5" r="56.5" fill="#EFFFFB"/>
<circle cx="169.5" cy="152.5" r="56" stroke="white"/>
</g>
<g filter="url(#filter1_d_93_100)">
<circle cx="169.5" cy="152.5" r="49.5" fill="#E9FFFA"/>
<circle cx="169.5" cy="152.5" r="49" stroke="white"/>
</g>
<path d="M193.182 167.303C191.321 167.86 189.494 168.826 187.656 170.655L187.654 170.658C185.261 173.068 184.321 175.463 183.905 177.935C183.496 180.406 183.698 182.935 183.741 185.356C183.746 185.761 183.748 186.165 183.739 186.566L203.567 166.736C202.937 166.751 202.303 166.742 201.663 166.726C198.875 166.643 195.965 166.473 193.182 167.303Z" fill="#8FE6D2"/>
<path d="M170.001 115C149.012 115 132 132.011 132 152.997C132 173.986 149.012 190.998 170.001 190.998C173.143 190.998 176.185 190.592 179.107 189.871C179.482 189.457 179.72 188.945 179.875 188.118C180.032 187.251 180.045 186.096 180.007 184.762C179.943 182.092 179.68 178.709 180.734 175.124C181.436 172.736 182.758 170.283 185.023 168.025C185.023 168.025 185.023 168.024 185.026 168.023C187.986 165.045 191.292 163.719 194.334 163.232C197.381 162.737 200.187 162.992 202.415 163.019C203.899 163.049 205.108 162.958 205.892 162.677C206.305 162.53 206.603 162.347 206.873 162.1C207.593 159.182 208 156.138 208 152.997C208 132.011 190.987 115 170.001 115ZM155.507 158.757L150.09 159.968C150.009 159.986 149.977 160.036 149.996 160.12L151.226 165.618C151.254 165.741 151.188 165.843 151.065 165.87L149.046 166.323C148.924 166.35 148.821 166.285 148.794 166.162L145.752 152.569C145.725 152.445 145.791 152.344 145.913 152.317L154.687 150.354C154.81 150.327 154.912 150.39 154.94 150.514L155.335 152.285C155.364 152.409 155.299 152.509 155.175 152.537L148.75 153.975C148.668 153.993 148.636 154.044 148.655 154.127L149.452 157.689C149.47 157.771 149.52 157.803 149.602 157.785L155.018 156.574C155.142 156.545 155.244 156.61 155.272 156.733L155.668 158.504C155.696 158.627 155.631 158.729 155.507 158.757ZM171.043 161.4L168.757 161.913C168.592 161.949 168.496 161.906 168.402 161.775L164.504 156.917L162.093 157.455C162.011 157.473 161.979 157.524 161.998 157.607L163.192 162.941C163.219 163.065 163.154 163.166 163.031 163.193L161.013 163.645C160.889 163.672 160.788 163.608 160.761 163.485L157.718 149.892C157.691 149.769 157.756 149.667 157.88 149.64L163.296 148.429C165.87 147.852 168.148 149.137 168.7 151.608C169.11 153.442 168.377 155.098 166.905 156.056L171.128 161.101C171.241 161.226 171.187 161.369 171.043 161.4ZM182.534 158.83L173.761 160.793C173.638 160.82 173.537 160.756 173.51 160.632L170.469 147.039C170.441 146.915 170.505 146.815 170.628 146.788L179.401 144.825C179.525 144.797 179.626 144.862 179.655 144.984L180.05 146.756C180.078 146.879 180.014 146.979 179.89 147.007L173.464 148.444C173.383 148.464 173.351 148.514 173.369 148.597L174.135 152.015C174.153 152.098 174.203 152.13 174.285 152.111L179.701 150.899C179.825 150.872 179.926 150.936 179.954 151.059L180.35 152.83C180.378 152.954 180.313 153.055 180.189 153.082L174.773 154.294C174.691 154.313 174.659 154.363 174.677 154.446L175.47 157.988C175.489 158.07 175.539 158.102 175.62 158.084L182.045 156.646C182.169 156.619 182.272 156.682 182.299 156.806L182.695 158.577C182.723 158.7 182.658 158.802 182.534 158.83ZM194.275 156.203L185.501 158.166C185.378 158.193 185.276 158.13 185.249 158.006L182.208 144.413C182.18 144.289 182.245 144.189 182.368 144.161L191.142 142.199C191.265 142.17 191.365 142.234 191.394 142.358L191.789 144.129C191.817 144.253 191.754 144.353 191.63 144.381L185.205 145.818C185.122 145.836 185.09 145.887 185.108 145.97L185.874 149.388C185.892 149.471 185.942 149.503 186.025 149.485L191.442 148.273C191.565 148.244 191.665 148.309 191.694 148.433L192.089 150.203C192.117 150.328 192.054 150.428 191.93 150.456L186.514 151.668C186.431 151.686 186.399 151.736 186.417 151.818L187.21 155.36C187.228 155.443 187.278 155.476 187.361 155.457L193.786 154.02C193.91 153.992 194.011 154.056 194.038 154.18L194.435 155.951C194.462 156.074 194.399 156.176 194.275 156.203Z" fill="#8FE6D2"/>
<path d="M163.702 150.629L160.716 151.298C160.634 151.316 160.602 151.366 160.62 151.449L161.454 155.176C161.473 155.259 161.523 155.29 161.605 155.272L164.592 154.604C165.87 154.319 166.559 153.343 166.291 152.148C166.019 150.932 164.98 150.344 163.702 150.629Z" fill="#8FE6D2"/>
<circle cx="170" cy="153" r="88.5" stroke="white" stroke-opacity="0.6"/>
<circle cx="170" cy="153" r="120.5" stroke="white" stroke-opacity="0.3"/>
<circle cx="170" cy="153" r="152.5" stroke="white" stroke-opacity="0.2"/>
<g filter="url(#filter2_d_93_100)">
<circle cx="226.5" cy="52.5" r="32.5" fill="#DAFBF3"/>
<circle cx="226.5" cy="52.5" r="32" stroke="white" stroke-opacity="0.4"/>
</g>
<g filter="url(#filter3_d_93_100)">
<circle cx="332.5" cy="150.5" r="28.5" fill="#CFF2EB"/>
<circle cx="332.5" cy="150.5" r="28" stroke="white" stroke-opacity="0.3"/>
</g>
<g filter="url(#filter4_d_93_100)">
<circle cx="151.5" cy="269.5" r="32.5" fill="#CFF2EB"/>
<circle cx="151.5" cy="269.5" r="32" stroke="white" stroke-opacity="0.3"/>
</g>
<g filter="url(#filter5_d_93_100)">
<circle cx="74" cy="104" r="25" fill="#D9F5EE"/>
<circle cx="74" cy="104" r="24.5" stroke="white" stroke-opacity="0.3"/>
</g>
<g filter="url(#filter6_d_93_100)">
<circle cx="27" cy="205" r="25" fill="#CFF2EB"/>
<circle cx="27" cy="205" r="24.5" stroke="white" stroke-opacity="0.4"/>
</g>
<path opacity="0.5" d="M65.4645 113.535C66.9289 115 69.286 115 74 115C78.714 115 81.0711 115 82.5355 113.535C84 112.071 84 109.714 84 105C84 100.286 84 97.9289 82.5355 96.4645C81.0711 95 78.714 95 74 95C69.286 95 66.9289 95 65.4645 96.4645C64 97.9289 64 100.286 64 105C64 109.714 64 112.071 65.4645 113.535Z" fill="white"/>
<path d="M71.5 101.75C69.7051 101.75 68.25 103.205 68.25 105C68.25 106.795 69.7051 108.25 71.5 108.25C73.2949 108.25 74.75 106.795 74.75 105C74.75 104.586 75.0858 104.25 75.5 104.25C75.9142 104.25 76.25 104.586 76.25 105C76.25 107.623 74.1234 109.75 71.5 109.75C68.8767 109.75 66.75 107.623 66.75 105C66.75 102.377 68.8767 100.25 71.5 100.25C71.9142 100.25 72.25 100.586 72.25 101C72.25 101.414 71.9142 101.75 71.5 101.75Z" fill="#6DC4B0"/>
<path d="M79.75 105C79.75 106.795 78.2949 108.25 76.5 108.25C76.0858 108.25 75.75 108.586 75.75 109C75.75 109.414 76.0858 109.75 76.5 109.75C79.1234 109.75 81.25 107.623 81.25 105C81.25 102.377 79.1234 100.25 76.5 100.25C73.8766 100.25 71.75 102.377 71.75 105C71.75 105.414 72.0858 105.75 72.5 105.75C72.9142 105.75 73.25 105.414 73.25 105C73.25 103.205 74.7051 101.75 76.5 101.75C78.2949 101.75 79.75 103.205 79.75 105Z" fill="#6DC4B0"/>
<path opacity="0.5" d="M323 151C323 146.286 323 143.929 324.464 142.464C325.929 141 328.286 141 333 141C337.714 141 340.071 141 341.535 142.464C343 143.929 343 146.286 343 151C343 155.714 343 158.071 341.535 159.535C340.071 161 337.714 161 333 161C328.286 161 325.929 161 324.464 159.535C323 158.071 323 155.714 323 151Z" fill="white"/>
<path fill-rule="evenodd" clip-rule="evenodd" d="M332.718 146.215C332.837 145.819 332.612 145.401 332.215 145.282C331.819 145.163 331.401 145.388 331.282 145.784L330.542 148.25H328C327.586 148.25 327.25 148.586 327.25 149C327.25 149.414 327.586 149.75 328 149.75H330.092L329.342 152.25H327C326.586 152.25 326.25 152.586 326.25 153C326.25 153.414 326.586 153.75 327 153.75H328.892L328.282 155.784C328.163 156.181 328.388 156.599 328.784 156.718C329.181 156.837 329.599 156.612 329.718 156.216L330.458 153.75H333.892L333.282 155.784C333.163 156.181 333.388 156.599 333.785 156.718C334.181 156.837 334.599 156.612 334.718 156.216L335.458 153.75H338C338.414 153.75 338.75 153.414 338.75 153C338.75 152.586 338.414 152.25 338 152.25H335.908L336.658 149.75H339C339.414 149.75 339.75 149.414 339.75 149C339.75 148.586 339.414 148.25 339 148.25H337.108L337.718 146.215C337.837 145.819 337.612 145.401 337.215 145.282C336.819 145.163 336.401 145.388 336.282 145.784L335.542 148.25H332.108L332.718 146.215ZM335.092 149.75L334.342 152.25H330.908L331.658 149.75H335.092Z" fill="#6DC4B0"/>
<path opacity="0.5" d="M16.7574 215.243C18.5147 217 21.3431 217 27 217C32.6568 217 35.4853 217 37.2426 215.243C39 213.485 39 210.657 39 205C39 199.343 39 196.515 37.2426 194.757C35.4853 193 32.6568 193 27 193C21.3431 193 18.5147 193 16.7574 194.757C15 196.515 15 199.343 15 205C15 210.657 15 213.485 16.7574 215.243Z" fill="white"/>
<path opacity="0.5" d="M216.757 63.2426C218.515 65 221.343 65 227 65C232.657 65 235.485 65 237.243 63.2426C239 61.4853 239 58.6568 239 53C239 47.3431 239 44.5147 237.243 42.7574C235.485 41 232.657 41 227 41C221.343 41 218.515 41 216.757 42.7574C215 44.5147 215 47.3431 215 53C215 58.6568 215 61.4853 216.757 63.2426Z" fill="white"/>
<path d="M221.181 59H223.619V49.9813H221.181V59ZM222.4 46C221.587 46 220.938 46.65 220.938 47.4625C220.938 48.275 221.587 48.925 222.4 48.925C223.212 48.925 223.863 48.275 223.863 47.4625C223.863 46.65 223.212 46 222.4 46ZM227.763 51.3625V49.9813H225.325V59H227.763V54.3688C227.763 51.7688 231.094 51.6063 231.094 54.3688V59H233.531V53.475C233.531 49.0875 228.9 49.25 227.763 51.3625Z" fill="#6DC4B0"/>
<path fill-rule="evenodd" clip-rule="evenodd" d="M23.6957 197.098C22.3934 197.157 21.2647 197.475 20.3532 198.383C19.4386 199.295 19.1241 200.429 19.0652 201.717C19.0286 202.522 18.8145 208.599 19.4354 210.192C19.8541 211.267 20.6788 212.094 21.7637 212.514C22.27 212.711 22.848 212.844 23.6957 212.883C30.7844 213.204 33.4121 213.029 34.5201 210.192C34.7168 209.687 34.8521 209.11 34.8895 208.264C35.2135 201.157 34.837 199.617 33.6015 198.383C32.6216 197.405 31.469 196.74 23.6957 197.098ZM23.761 211.454C22.9849 211.419 22.5638 211.29 22.2828 211.181C21.5759 210.906 21.0449 210.377 20.7719 209.675C20.2991 208.464 20.4559 202.712 20.4981 201.782C20.5395 200.87 20.7241 200.037 21.3673 199.394C22.1634 198.6 23.1918 198.211 30.1945 198.527C31.1083 198.568 31.9434 198.752 32.5882 199.394C33.3842 200.188 33.779 201.224 33.4574 208.2C33.4224 208.974 33.2927 209.394 33.1836 209.675C32.4632 211.521 30.8059 211.777 23.761 211.454ZM30.2717 200.752C30.2717 201.277 30.6992 201.705 31.227 201.705C31.7547 201.705 32.183 201.277 32.183 200.752C32.183 200.226 31.7547 199.799 31.227 199.799C30.6992 199.799 30.2717 200.226 30.2717 200.752ZM22.8901 204.99C22.8901 207.242 24.7202 209.068 26.9778 209.068C29.2353 209.068 31.0654 207.242 31.0654 204.99C31.0654 202.738 29.2353 200.914 26.9778 200.914C24.7202 200.914 22.8901 202.738 22.8901 204.99ZM24.3246 204.99C24.3246 203.529 25.5123 202.344 26.9778 202.344C28.4432 202.344 29.6309 203.529 29.6309 204.99C29.6309 206.452 28.4432 207.638 26.9778 207.638C25.5123 207.638 24.3246 206.452 24.3246 204.99Z" fill="#6DC4B0"/>
<defs>
<filter id="filter0_d_93_100" x="98" y="81" width="173" height="173" filterUnits="userSpaceOnUse" color-interpolation-filters="sRGB">
<feFlood flood-opacity="0" result="BackgroundImageFix"/>
<feColorMatrix in="SourceAlpha" type="matrix" values="0 0 0 0 0 0 0 0 0 0 0 0 0 0 0 0 0 0 127 0" result="hardAlpha"/>
<feOffset dx="15" dy="15"/>
<feGaussianBlur stdDeviation="15"/>
<feComposite in2="hardAlpha" operator="out"/>
<feColorMatrix type="matrix" values="0 0 0 0 0.720946 0 0 0 0 0.889423 0 0 0 0 0.847304 0 0 0 1 0"/>
<feBlend mode="normal" in2="BackgroundImageFix" result="effect1_dropShadow_93_100"/>
<feBlend mode="normal" in="SourceGraphic" in2="effect1_dropShadow_93_100" result="shape"/>
</filter>
<filter id="filter1_d_93_100" x="105" y="88" width="159" height="159" filterUnits="userSpaceOnUse" color-interpolation-filters="sRGB">
<feFlood flood-opacity="0" result="BackgroundImageFix"/>
<feColorMatrix in="SourceAlpha" type="matrix" values="0 0 0 0 0 0 0 0 0 0 0 0 0 0 0 0 0 0 127 0" result="hardAlpha"/>
<feOffset dx="15" dy="15"/>
<feGaussianBlur stdDeviation="15"/>
<feComposite in2="hardAlpha" operator="out"/>
<feColorMatrix type="matrix" values="0 0 0 0 0.720946 0 0 0 0 0.889423 0 0 0 0 0.847304 0 0 0 1 0"/>
<feBlend mode="normal" in2="BackgroundImageFix" result="effect1_dropShadow_93_100"/>
<feBlend mode="normal" in="SourceGraphic" in2="effect1_dropShadow_93_100" result="shape"/>
</filter>
<filter id="filter2_d_93_100" x="192" y="18" width="73" height="73" filterUnits="userSpaceOnUse" color-interpolation-filters="sRGB">
<feFlood flood-opacity="0" result="BackgroundImageFix"/>
<feColorMatrix in="SourceAlpha" type="matrix" values="0 0 0 0 0 0 0 0 0 0 0 0 0 0 0 0 0 0 127 0" result="hardAlpha"/>
<feOffset dx="2" dy="2"/>
<feGaussianBlur stdDeviation="2"/>
<feComposite in2="hardAlpha" operator="out"/>
<feColorMatrix type="matrix" values="0 0 0 0 0.646154 0 0 0 0 0.8 0 0 0 0 0.764835 0 0 0 0.3 0"/>
<feBlend mode="normal" in2="BackgroundImageFix" result="effect1_dropShadow_93_100"/>
<feBlend mode="normal" in="SourceGraphic" in2="effect1_dropShadow_93_100" result="shape"/>
</filter>
<filter id="filter3_d_93_100" x="302" y="120" width="65" height="65" filterUnits="userSpaceOnUse" color-interpolation-filters="sRGB">
<feFlood flood-opacity="0" result="BackgroundImageFix"/>
<feColorMatrix in="SourceAlpha" type="matrix" values="0 0 0 0 0 0 0 0 0 0 0 0 0 0 0 0 0 0 127 0" result="hardAlpha"/>
<feOffset dx="2" dy="2"/>
<feGaussianBlur stdDeviation="2"/>
<feComposite in2="hardAlpha" operator="out"/>
<feColorMatrix type="matrix" values="0 0 0 0 0.646154 0 0 0 0 0.8 0 0 0 0 0.764835 0 0 0 0.3 0"/>
<feBlend mode="normal" in2="BackgroundImageFix" result="effect1_dropShadow_93_100"/>
<feBlend mode="normal" in="SourceGraphic" in2="effect1_dropShadow_93_100" result="shape"/>
</filter>
<filter id="filter4_d_93_100" x="117" y="235" width="73" height="73" filterUnits="userSpaceOnUse" color-interpolation-filters="sRGB">
<feFlood flood-opacity="0" result="BackgroundImageFix"/>
<feColorMatrix in="SourceAlpha" type="matrix" values="0 0 0 0 0 0 0 0 0 0 0 0 0 0 0 0 0 0 127 0" result="hardAlpha"/>
<feOffset dx="2" dy="2"/>
<feGaussianBlur stdDeviation="2"/>
<feComposite in2="hardAlpha" operator="out"/>
<feColorMatrix type="matrix" values="0 0 0 0 0.646154 0 0 0 0 0.8 0 0 0 0 0.764835 0 0 0 0.3 0"/>
<feBlend mode="normal" in2="BackgroundImageFix" result="effect1_dropShadow_93_100"/>
<feBlend mode="normal" in="SourceGraphic" in2="effect1_dropShadow_93_100" result="shape"/>
</filter>
<filter id="filter5_d_93_100" x="47" y="77" width="58" height="58" filterUnits="userSpaceOnUse" color-interpolation-filters="sRGB">
<feFlood flood-opacity="0" result="BackgroundImageFix"/>
<feColorMatrix in="SourceAlpha" type="matrix" values="0 0 0 0 0 0 0 0 0 0 0 0 0 0 0 0 0 0 127 0" result="hardAlpha"/>
<feOffset dx="2" dy="2"/>
<feGaussianBlur stdDeviation="2"/>
<feComposite in2="hardAlpha" operator="out"/>
<feColorMatrix type="matrix" values="0 0 0 0 0.646154 0 0 0 0 0.8 0 0 0 0 0.764835 0 0 0 0.3 0"/>
<feBlend mode="normal" in2="BackgroundImageFix" result="effect1_dropShadow_93_100"/>
<feBlend mode="normal" in="SourceGraphic" in2="effect1_dropShadow_93_100" result="shape"/>
</filter>
<filter id="filter6_d_93_100" x="0" y="178" width="58" height="58" filterUnits="userSpaceOnUse" color-interpolation-filters="sRGB">
<feFlood flood-opacity="0" result="BackgroundImageFix"/>
<feColorMatrix in="SourceAlpha" type="matrix" values="0 0 0 0 0 0 0 0 0 0 0 0 0 0 0 0 0 0 127 0" result="hardAlpha"/>
<feOffset dx="2" dy="2"/>
<feGaussianBlur stdDeviation="2"/>
<feComposite in2="hardAlpha" operator="out"/>
<feColorMatrix type="matrix" values="0 0 0 0 0.646154 0 0 0 0 0.8 0 0 0 0 0.764835 0 0 0 0.3 0"/>
<feBlend mode="normal" in2="BackgroundImageFix" result="effect1_dropShadow_93_100"/>
<feBlend mode="normal" in="SourceGraphic" in2="effect1_dropShadow_93_100" result="shape"/>
</filter>
</defs>
</svg>
