<svg width="443" height="287" viewBox="0 0 443 287" fill="none" xmlns="http://www.w3.org/2000/svg">
<g filter="url(#filter0_d_107_113)">
<rect x="150" y="75" width="248" height="125" rx="12" fill="#F6FFFD"/>
<rect x="150.5" y="75.5" width="247" height="124" rx="11.5" stroke="white"/>
</g>
<g filter="url(#filter1_i_107_113)">
<rect x="167" y="121" width="99" height="3" rx="1.5" fill="#BDE5DB"/>
</g>
<g filter="url(#filter2_d_107_113)">
<rect x="40" y="150" width="194" height="92" rx="12" fill="#F6FFFD"/>
<rect x="40.5" y="150.5" width="193" height="91" rx="11.5" stroke="white"/>
</g>
<path d="M64.3017 207.053H73.9323C74.2254 207.053 74.4766 206.948 74.686 206.739C74.8953 206.53 75 206.278 75 205.985V205.504C75 205.211 74.8953 204.959 74.686 204.75C74.4766 204.541 74.2254 204.436 73.9323 204.436H64.3017C64.0086 204.436 63.7574 204.541 63.548 204.75C63.3387 204.959 63.234 205.211 63.234 205.504V205.985C63.234 206.278 63.3387 206.53 63.548 206.739C63.7574 206.948 64.0086 207.053 64.3017 207.053ZM64.3017 201.17H73.9323C74.2254 201.17 74.4766 201.065 74.686 200.856C74.8953 200.647 75 200.388 75 200.081V199.621C75 199.314 74.8953 199.059 74.686 198.857C74.4766 198.654 74.2254 198.553 73.9323 198.553H64.3017C64.0086 198.553 63.7574 198.654 63.548 198.857C63.3387 199.059 63.234 199.314 63.234 199.621V200.081C63.234 200.388 63.3387 200.643 63.548 200.845C63.7574 201.048 64.0086 201.149 64.3017 201.149V201.17ZM64.3017 195.266H73.9323C74.2254 195.266 74.4766 195.161 74.686 194.952C74.8953 194.743 75 194.491 75 194.198V193.717C75 193.424 74.8953 193.172 74.686 192.963C74.4766 192.754 74.2254 192.649 73.9323 192.649H64.3017C64.0086 192.649 63.7574 192.754 63.548 192.963C63.3387 193.172 63.234 193.424 63.234 193.717V194.198C63.234 194.491 63.3387 194.743 63.548 194.952C63.7574 195.161 64.0086 195.266 64.3017 195.266ZM59.0887 207.702H60.8264C61.1195 207.702 61.3742 207.594 61.5905 207.377C61.8069 207.161 61.915 206.899 61.915 206.592V204.876C61.915 204.569 61.8069 204.307 61.5905 204.091C61.3742 203.874 61.1195 203.766 60.8264 203.766H59.0887C58.7956 203.78 58.5408 203.892 58.3245 204.101C58.1082 204.31 58 204.569 58 204.876V206.592C58 206.899 58.1082 207.161 58.3245 207.377C58.5408 207.594 58.7956 207.702 59.0887 207.702ZM59.0887 201.819H60.8264C61.1195 201.819 61.3742 201.711 61.5905 201.494C61.8069 201.278 61.915 201.016 61.915 200.709V198.993C61.915 198.686 61.8069 198.424 61.5905 198.208C61.3742 197.991 61.1195 197.883 60.8264 197.883H59.0887C58.7956 197.883 58.5408 197.991 58.3245 198.208C58.1082 198.424 58 198.686 58 198.993V200.709C58 201.016 58.1082 201.278 58.3245 201.494C58.5408 201.711 58.7956 201.819 59.0887 201.819ZM59.0887 195.936H60.8264C61.1195 195.936 61.3742 195.828 61.5905 195.611C61.8069 195.395 61.915 195.133 61.915 194.826V193.11C61.915 192.803 61.8069 192.541 61.5905 192.325C61.3742 192.108 61.1195 192 60.8264 192H59.0887C58.7956 192 58.5408 192.108 58.3245 192.325C58.1082 192.541 58 192.803 58 193.11V194.826C58 195.133 58.1082 195.395 58.3245 195.611C58.5408 195.828 58.7956 195.929 59.0887 195.915V195.936Z" fill="#D1ECE5"/>
<g filter="url(#filter3_i_107_113)">
<rect x="167" y="141" width="99" height="3" rx="1.5" fill="#BDE5DB"/>
</g>
<g filter="url(#filter4_i_107_113)">
<rect x="167" y="131" width="99" height="3" rx="1.5" fill="#BDE5DB"/>
</g>
<g filter="url(#filter5_i_107_113)">
<rect x="167" y="151" width="99" height="3" rx="1.5" fill="#BDE5DB"/>
</g>
<path d="M168.233 103V92.8182H169.466V101.906H174.199V103H168.233ZM175.949 103V95.3636H177.122V103H175.949ZM176.545 94.0909C176.317 94.0909 176.12 94.013 175.954 93.8572C175.791 93.7015 175.71 93.5142 175.71 93.2955C175.71 93.0767 175.791 92.8894 175.954 92.7337C176.12 92.5779 176.317 92.5 176.545 92.5C176.774 92.5 176.97 92.5779 177.132 92.7337C177.298 92.8894 177.381 93.0767 177.381 93.2955C177.381 93.5142 177.298 93.7015 177.132 93.8572C176.97 94.013 176.774 94.0909 176.545 94.0909ZM185.515 95.3636L182.692 103H181.498L178.675 95.3636H179.947L182.055 101.449H182.135L184.243 95.3636H185.515ZM189.992 103.159C189.257 103.159 188.622 102.997 188.088 102.672C187.558 102.344 187.149 101.886 186.86 101.3C186.575 100.71 186.433 100.024 186.433 99.2415C186.433 98.4593 186.575 97.7699 186.86 97.1733C187.149 96.5734 187.55 96.1061 188.063 95.7713C188.58 95.4332 189.184 95.2642 189.873 95.2642C190.271 95.2642 190.664 95.3305 191.051 95.4631C191.439 95.5956 191.792 95.8111 192.11 96.1094C192.428 96.4044 192.682 96.7955 192.871 97.2827C193.06 97.7699 193.154 98.3698 193.154 99.0824V99.5795H187.268V98.5653H191.961C191.961 98.1345 191.875 97.75 191.703 97.4119C191.534 97.0739 191.292 96.8071 190.977 96.6115C190.665 96.416 190.297 96.3182 189.873 96.3182C189.406 96.3182 189.001 96.4342 188.66 96.6662C188.322 96.8949 188.062 97.1932 187.879 97.5611C187.697 97.929 187.606 98.3234 187.606 98.7443V99.4205C187.606 99.9972 187.705 100.486 187.904 100.887C188.106 101.285 188.387 101.588 188.744 101.797C189.102 102.002 189.518 102.105 189.992 102.105C190.301 102.105 190.579 102.062 190.828 101.976C191.079 101.886 191.297 101.754 191.479 101.578C191.661 101.399 191.802 101.177 191.901 100.912L193.035 101.23C192.916 101.615 192.715 101.953 192.433 102.244C192.152 102.533 191.804 102.758 191.389 102.92C190.975 103.08 190.509 103.159 189.992 103.159ZM199.036 92.8182H200.507L203.968 101.27H204.087L207.547 92.8182H209.019V103H207.865V95.2642H207.766L204.584 103H203.47L200.289 95.2642H200.189V103H199.036V92.8182ZM214.533 103.159C213.798 103.159 213.163 102.997 212.629 102.672C212.099 102.344 211.69 101.886 211.401 101.3C211.116 100.71 210.974 100.024 210.974 99.2415C210.974 98.4593 211.116 97.7699 211.401 97.1733C211.69 96.5734 212.091 96.1061 212.604 95.7713C213.121 95.4332 213.725 95.2642 214.414 95.2642C214.812 95.2642 215.205 95.3305 215.592 95.4631C215.98 95.5956 216.333 95.8111 216.651 96.1094C216.969 96.4044 217.223 96.7955 217.412 97.2827C217.601 97.7699 217.695 98.3698 217.695 99.0824V99.5795H211.809V98.5653H216.502C216.502 98.1345 216.416 97.75 216.244 97.4119C216.075 97.0739 215.833 96.8071 215.518 96.6115C215.206 96.416 214.838 96.3182 214.414 96.3182C213.947 96.3182 213.542 96.4342 213.201 96.6662C212.863 96.8949 212.603 97.1932 212.42 97.5611C212.238 97.929 212.147 98.3234 212.147 98.7443V99.4205C212.147 99.9972 212.246 100.486 212.445 100.887C212.647 101.285 212.928 101.588 213.286 101.797C213.643 102.002 214.059 102.105 214.533 102.105C214.842 102.105 215.12 102.062 215.369 101.976C215.621 101.886 215.838 101.754 216.02 101.578C216.202 101.399 216.343 101.177 216.442 100.912L217.576 101.23C217.457 101.615 217.256 101.953 216.974 102.244C216.693 102.533 216.345 102.758 215.93 102.92C215.516 103.08 215.05 103.159 214.533 103.159ZM222.801 95.3636V96.358H218.844V95.3636H222.801ZM219.997 93.5341H221.17V100.812C221.17 101.144 221.219 101.393 221.315 101.558C221.414 101.721 221.54 101.83 221.692 101.886C221.848 101.939 222.012 101.966 222.185 101.966C222.314 101.966 222.42 101.959 222.503 101.946C222.586 101.929 222.652 101.916 222.702 101.906L222.94 102.96C222.861 102.99 222.75 103.02 222.607 103.05C222.465 103.083 222.284 103.099 222.065 103.099C221.734 103.099 221.409 103.028 221.091 102.886C220.776 102.743 220.514 102.526 220.305 102.234C220.1 101.943 219.997 101.575 219.997 101.131V93.5341ZM224.566 103V95.3636H225.7V96.517H225.779C225.918 96.1392 226.17 95.8326 226.535 95.5973C226.899 95.362 227.31 95.2443 227.768 95.2443C227.854 95.2443 227.962 95.246 228.091 95.2493C228.22 95.2526 228.318 95.2576 228.384 95.2642V96.4574C228.344 96.4474 228.253 96.4325 228.111 96.4126C227.972 96.3894 227.824 96.3778 227.668 96.3778C227.297 96.3778 226.966 96.4557 226.674 96.6115C226.386 96.764 226.157 96.9761 225.988 97.2479C225.822 97.5163 225.739 97.8229 225.739 98.1676V103H224.566ZM229.775 103V95.3636H230.948V103H229.775ZM230.372 94.0909C230.143 94.0909 229.946 94.013 229.78 93.8572C229.618 93.7015 229.536 93.5142 229.536 93.2955C229.536 93.0767 229.618 92.8894 229.78 92.7337C229.946 92.5779 230.143 92.5 230.372 92.5C230.6 92.5 230.796 92.5779 230.958 92.7337C231.124 92.8894 231.207 93.0767 231.207 93.2955C231.207 93.5142 231.124 93.7015 230.958 93.8572C230.796 94.013 230.6 94.0909 230.372 94.0909ZM236.2 103.159C235.484 103.159 234.867 102.99 234.35 102.652C233.833 102.314 233.435 101.848 233.157 101.255C232.879 100.662 232.739 99.9839 232.739 99.2216C232.739 98.446 232.882 97.7616 233.167 97.1683C233.455 96.5717 233.856 96.1061 234.37 95.7713C234.887 95.4332 235.49 95.2642 236.18 95.2642C236.717 95.2642 237.201 95.3636 237.631 95.5625C238.062 95.7614 238.415 96.0398 238.69 96.3977C238.965 96.7557 239.136 97.1733 239.202 97.6506H238.029C237.94 97.3026 237.741 96.9943 237.433 96.7259C237.128 96.4541 236.717 96.3182 236.2 96.3182C235.742 96.3182 235.341 96.4375 234.996 96.6761C234.655 96.9115 234.388 97.2446 234.196 97.6754C234.007 98.103 233.913 98.6051 233.913 99.1818C233.913 99.7718 234.005 100.286 234.191 100.723C234.38 101.161 234.645 101.5 234.987 101.742C235.331 101.984 235.736 102.105 236.2 102.105C236.504 102.105 236.781 102.052 237.03 101.946C237.278 101.84 237.489 101.688 237.661 101.489C237.834 101.29 237.956 101.051 238.029 100.773H239.202C239.136 101.223 238.972 101.629 238.71 101.991C238.452 102.349 238.109 102.634 237.681 102.846C237.257 103.055 236.763 103.159 236.2 103.159ZM246.327 97.0739L245.273 97.3722C245.206 97.1965 245.109 97.0258 244.979 96.8601C244.853 96.6911 244.681 96.5518 244.462 96.4425C244.244 96.3331 243.964 96.2784 243.622 96.2784C243.155 96.2784 242.765 96.3861 242.454 96.6016C242.146 96.8137 241.991 97.0838 241.991 97.4119C241.991 97.7036 242.098 97.9339 242.31 98.103C242.522 98.272 242.853 98.4129 243.304 98.5256L244.438 98.804C245.12 98.9697 245.629 99.2232 245.964 99.5646C246.299 99.9027 246.466 100.339 246.466 100.872C246.466 101.31 246.34 101.701 246.088 102.045C245.839 102.39 245.491 102.662 245.044 102.861C244.597 103.06 244.076 103.159 243.483 103.159C242.704 103.159 242.059 102.99 241.549 102.652C241.039 102.314 240.715 101.82 240.58 101.17L241.693 100.892C241.799 101.303 242 101.611 242.295 101.817C242.593 102.022 242.982 102.125 243.463 102.125C244.01 102.125 244.444 102.009 244.766 101.777C245.09 101.542 245.253 101.26 245.253 100.932C245.253 100.667 245.16 100.445 244.974 100.266C244.789 100.083 244.504 99.9474 244.119 99.858L242.847 99.5597C242.147 99.3939 241.634 99.1371 241.305 98.7891C240.981 98.4377 240.818 97.9986 240.818 97.4716C240.818 97.0407 240.939 96.6596 241.181 96.3281C241.426 95.9967 241.759 95.7365 242.18 95.5476C242.605 95.3587 243.085 95.2642 243.622 95.2642C244.378 95.2642 244.971 95.4299 245.402 95.7614C245.836 96.0928 246.144 96.5303 246.327 97.0739Z" fill="#77BBAB"/>
<g filter="url(#filter6_d_107_113)">
<rect x="15" y="44" width="248" height="125" rx="12" fill="#F6FFFD"/>
<rect x="15.5" y="44.5" width="247" height="124" rx="11.5" stroke="white"/>
</g>
<g filter="url(#filter7_i_107_113)">
<rect x="32" y="90" width="99" height="3" rx="1.5" fill="#BDE5DB"/>
</g>
<g filter="url(#filter8_i_107_113)">
<rect x="32" y="110" width="99" height="3" rx="1.5" fill="#BDE5DB"/>
</g>
<g filter="url(#filter9_i_107_113)">
<rect x="32" y="100" width="99" height="3" rx="1.5" fill="#BDE5DB"/>
</g>
<g filter="url(#filter10_i_107_113)">
<rect x="32" y="120" width="99" height="3" rx="1.5" fill="#BDE5DB"/>
</g>
<path d="M33.233 72V61.8182H34.4659V70.9062H39.1989V72H33.233ZM40.9489 72V64.3636H42.1222V72H40.9489ZM41.5455 63.0909C41.3168 63.0909 41.1196 63.013 40.9538 62.8572C40.7914 62.7015 40.7102 62.5142 40.7102 62.2955C40.7102 62.0767 40.7914 61.8894 40.9538 61.7337C41.1196 61.5779 41.3168 61.5 41.5455 61.5C41.7741 61.5 41.9697 61.5779 42.1321 61.7337C42.2978 61.8894 42.3807 62.0767 42.3807 62.2955C42.3807 62.5142 42.2978 62.7015 42.1321 62.8572C41.9697 63.013 41.7741 63.0909 41.5455 63.0909ZM50.5154 64.3636L47.6916 72H46.4984L43.6745 64.3636H44.9473L47.0552 70.4489H47.1348L49.2427 64.3636H50.5154ZM54.9924 72.1591C54.2566 72.1591 53.6219 71.9967 53.0882 71.6719C52.5579 71.3438 52.1486 70.8864 51.8603 70.2997C51.5752 69.7098 51.4327 69.0237 51.4327 68.2415C51.4327 67.4593 51.5752 66.7699 51.8603 66.1733C52.1486 65.5734 52.5497 65.1061 53.0634 64.7713C53.5804 64.4332 54.1837 64.2642 54.873 64.2642C55.2708 64.2642 55.6635 64.3305 56.0513 64.4631C56.4391 64.5956 56.7921 64.8111 57.1103 65.1094C57.4284 65.4044 57.682 65.7955 57.8709 66.2827C58.0598 66.7699 58.1543 67.3698 58.1543 68.0824V68.5795H52.2679V67.5653H56.9611C56.9611 67.1345 56.8749 66.75 56.7026 66.4119C56.5336 66.0739 56.2916 65.8071 55.9767 65.6115C55.6652 65.416 55.2973 65.3182 54.873 65.3182C54.4057 65.3182 54.0014 65.4342 53.66 65.6662C53.3219 65.8949 53.0617 66.1932 52.8794 66.5611C52.6971 66.929 52.606 67.3234 52.606 67.7443V68.4205C52.606 68.9972 52.7054 69.486 52.9043 69.8871C53.1065 70.2848 53.3865 70.5881 53.7445 70.7969C54.1025 71.0024 54.5184 71.1051 54.9924 71.1051C55.3006 71.1051 55.579 71.062 55.8276 70.9759C56.0795 70.8864 56.2966 70.7538 56.4789 70.5781C56.6612 70.3991 56.802 70.1771 56.9015 69.9119L58.035 70.2301C57.9157 70.6146 57.7151 70.9527 57.4334 71.2443C57.1517 71.5327 56.8037 71.758 56.3894 71.9205C55.9751 72.0795 55.5094 72.1591 54.9924 72.1591ZM64.0357 61.8182H65.5073L68.9675 70.2699H69.0868L72.5471 61.8182H74.0186V72H72.8652V64.2642H72.7658L69.584 72H68.4703L65.2885 64.2642H65.1891V72H64.0357V61.8182ZM79.5334 72.1591C78.7976 72.1591 78.1629 71.9967 77.6293 71.6719C77.099 71.3438 76.6896 70.8864 76.4013 70.2997C76.1162 69.7098 75.9737 69.0237 75.9737 68.2415C75.9737 67.4593 76.1162 66.7699 76.4013 66.1733C76.6896 65.5734 77.0907 65.1061 77.6044 64.7713C78.1214 64.4332 78.7247 64.2642 79.4141 64.2642C79.8118 64.2642 80.2045 64.3305 80.5923 64.4631C80.9801 64.5956 81.3331 64.8111 81.6513 65.1094C81.9695 65.4044 82.223 65.7955 82.4119 66.2827C82.6009 66.7699 82.6953 67.3698 82.6953 68.0824V68.5795H76.8089V67.5653H81.5021C81.5021 67.1345 81.416 66.75 81.2436 66.4119C81.0746 66.0739 80.8326 65.8071 80.5178 65.6115C80.2062 65.416 79.8383 65.3182 79.4141 65.3182C78.9467 65.3182 78.5424 65.4342 78.201 65.6662C77.8629 65.8949 77.6027 66.1932 77.4205 66.5611C77.2382 66.929 77.147 67.3234 77.147 67.7443V68.4205C77.147 68.9972 77.2464 69.486 77.4453 69.8871C77.6475 70.2848 77.9276 70.5881 78.2855 70.7969C78.6435 71.0024 79.0594 71.1051 79.5334 71.1051C79.8416 71.1051 80.12 71.062 80.3686 70.9759C80.6205 70.8864 80.8376 70.7538 81.0199 70.5781C81.2022 70.3991 81.343 70.1771 81.4425 69.9119L82.576 70.2301C82.4567 70.6146 82.2562 70.9527 81.9744 71.2443C81.6927 71.5327 81.3447 71.758 80.9304 71.9205C80.5161 72.0795 80.0504 72.1591 79.5334 72.1591ZM87.8011 64.3636V65.358H83.8438V64.3636H87.8011ZM84.9972 62.5341H86.1705V69.8125C86.1705 70.1439 86.2185 70.3925 86.3146 70.5582C86.4141 70.7206 86.54 70.83 86.6925 70.8864C86.8482 70.9394 87.0123 70.9659 87.1847 70.9659C87.3139 70.9659 87.42 70.9593 87.5028 70.946C87.5857 70.9295 87.652 70.9162 87.7017 70.9062L87.9403 71.9602C87.8608 71.9901 87.7498 72.0199 87.6072 72.0497C87.4647 72.0829 87.2841 72.0994 87.0653 72.0994C86.7339 72.0994 86.4091 72.0282 86.0909 71.8857C85.776 71.7431 85.5142 71.526 85.3054 71.2344C85.0999 70.9427 84.9972 70.5748 84.9972 70.1307V62.5341ZM89.5661 72V64.3636H90.6996V65.517H90.7791C90.9183 65.1392 91.1702 64.8326 91.5348 64.5973C91.8994 64.362 92.3104 64.2443 92.7678 64.2443C92.8539 64.2443 92.9616 64.246 93.0909 64.2493C93.2202 64.2526 93.3179 64.2576 93.3842 64.2642V65.4574C93.3445 65.4474 93.2533 65.4325 93.1108 65.4126C92.9716 65.3894 92.8241 65.3778 92.6683 65.3778C92.2971 65.3778 91.9657 65.4557 91.674 65.6115C91.3857 65.764 91.157 65.9761 90.9879 66.2479C90.8222 66.5163 90.7393 66.8229 90.7393 67.1676V72H89.5661ZM94.775 72V64.3636H95.9483V72H94.775ZM95.3716 63.0909C95.1429 63.0909 94.9457 63.013 94.78 62.8572C94.6176 62.7015 94.5364 62.5142 94.5364 62.2955C94.5364 62.0767 94.6176 61.8894 94.78 61.7337C94.9457 61.5779 95.1429 61.5 95.3716 61.5C95.6003 61.5 95.7959 61.5779 95.9583 61.7337C96.124 61.8894 96.2069 62.0767 96.2069 62.2955C96.2069 62.5142 96.124 62.7015 95.9583 62.8572C95.7959 63.013 95.6003 63.0909 95.3716 63.0909ZM101.2 72.1591C100.484 72.1591 99.8672 71.9901 99.3501 71.652C98.8331 71.3139 98.4354 70.8482 98.157 70.255C97.8786 69.6617 97.7393 68.9839 97.7393 68.2216C97.7393 67.446 97.8819 66.7616 98.1669 66.1683C98.4553 65.5717 98.8563 65.1061 99.37 64.7713C99.8871 64.4332 100.49 64.2642 101.18 64.2642C101.717 64.2642 102.201 64.3636 102.631 64.5625C103.062 64.7614 103.415 65.0398 103.69 65.3977C103.965 65.7557 104.136 66.1733 104.202 66.6506H103.029C102.94 66.3026 102.741 65.9943 102.433 65.7259C102.128 65.4541 101.717 65.3182 101.2 65.3182C100.742 65.3182 100.341 65.4375 99.9964 65.6761C99.6551 65.9115 99.3883 66.2446 99.196 66.6754C99.0071 67.103 98.9126 67.6051 98.9126 68.1818C98.9126 68.7718 99.0054 69.2855 99.1911 69.723C99.38 70.1605 99.6451 70.5002 99.9865 70.7422C100.331 70.9841 100.736 71.1051 101.2 71.1051C101.504 71.1051 101.781 71.0521 102.03 70.946C102.278 70.84 102.489 70.6875 102.661 70.4886C102.834 70.2898 102.956 70.0511 103.029 69.7727H104.202C104.136 70.2235 103.972 70.6295 103.71 70.9908C103.452 71.3487 103.109 71.6338 102.681 71.8459C102.257 72.0547 101.763 72.1591 101.2 72.1591ZM111.327 66.0739L110.273 66.3722C110.206 66.1965 110.109 66.0258 109.979 65.8601C109.853 65.6911 109.681 65.5518 109.462 65.4425C109.244 65.3331 108.964 65.2784 108.622 65.2784C108.155 65.2784 107.765 65.3861 107.454 65.6016C107.146 65.8137 106.991 66.0838 106.991 66.4119C106.991 66.7036 107.098 66.9339 107.31 67.103C107.522 67.272 107.853 67.4129 108.304 67.5256L109.438 67.804C110.12 67.9697 110.629 68.2232 110.964 68.5646C111.299 68.9027 111.466 69.3385 111.466 69.8722C111.466 70.3097 111.34 70.7008 111.088 71.0455C110.839 71.3902 110.491 71.6619 110.044 71.8608C109.597 72.0597 109.076 72.1591 108.483 72.1591C107.704 72.1591 107.059 71.9901 106.549 71.652C106.039 71.3139 105.715 70.8201 105.58 70.1705L106.693 69.892C106.799 70.303 107 70.6113 107.295 70.8168C107.593 71.0223 107.982 71.125 108.463 71.125C109.01 71.125 109.444 71.009 109.766 70.777C110.09 70.5417 110.253 70.2599 110.253 69.9318C110.253 69.6667 110.16 69.4446 109.974 69.2656C109.789 69.0833 109.504 68.9474 109.119 68.858L107.847 68.5597C107.147 68.3939 106.634 68.1371 106.305 67.7891C105.981 67.4377 105.818 66.9986 105.818 66.4716C105.818 66.0407 105.939 65.6596 106.181 65.3281C106.426 64.9967 106.759 64.7365 107.18 64.5476C107.605 64.3587 108.085 64.2642 108.622 64.2642C109.378 64.2642 109.971 64.4299 110.402 64.7614C110.836 65.0928 111.144 65.5303 111.327 66.0739Z" fill="#77BBAB"/>
<g filter="url(#filter11_d_107_113)">
<path d="M211.298 64.7535C204.35 62.7311 197.011 62.4534 189.931 63.9449C182.85 65.4363 176.247 68.651 170.705 73.3041C165.164 77.9571 160.856 83.905 158.162 90.6208C155.469 97.3366 154.473 104.613 155.263 111.806C156.054 118.998 158.605 125.885 162.693 131.856C166.78 137.826 172.277 142.697 178.697 146.036C185.116 149.375 192.26 151.079 199.496 150.997C206.731 150.916 213.835 149.051 220.177 145.568L211.901 130.496C208.037 132.618 203.71 133.754 199.302 133.803C194.894 133.853 190.542 132.815 186.631 130.781C182.721 128.747 179.372 125.779 176.882 122.142C174.392 118.505 172.837 114.309 172.355 109.928C171.874 105.546 172.481 101.113 174.122 97.0218C175.762 92.9305 178.387 89.307 181.763 86.4723C185.139 83.6377 189.161 81.6793 193.475 80.7707C197.788 79.8621 202.259 80.0313 206.492 81.2633L211.298 64.7535Z" fill="#E4FCF6"/>
</g>
<g filter="url(#filter12_d_107_113)">
<path d="M199 151C208.428 151 217.607 147.971 225.184 142.361C232.761 136.75 238.336 128.854 241.086 119.835L224.639 114.819C222.964 120.313 219.568 125.124 214.952 128.542C210.336 131.96 204.744 133.805 199 133.805L199 151Z" fill="#ACEADC"/>
</g>
<g filter="url(#filter13_d_107_113)">
<path d="M229.17 139.028C234.796 133.728 238.926 127.041 241.146 119.637C243.366 112.234 243.597 104.377 241.815 96.8564C240.033 89.3358 236.302 82.4171 230.996 76.7968C225.691 71.1765 218.999 67.0528 211.593 64.8407L206.672 81.3165C211.183 82.6641 215.26 85.1763 218.492 88.6002C221.724 92.0241 223.997 96.2389 225.083 100.82C226.168 105.402 226.028 110.189 224.676 114.699C223.323 119.209 220.807 123.283 217.38 126.511L229.17 139.028Z" fill="#9ED8CA"/>
</g>
<rect x="304" y="131" width="11" height="48" fill="#D3EEE7"/>
<rect x="315" y="147" width="11" height="32" fill="#E2FDF6"/>
<rect x="326" y="139" width="11" height="40" fill="#D3EEE7"/>
<rect x="337" y="154" width="11" height="25" fill="#E2FDF6"/>
<rect x="348" y="151" width="11" height="28" fill="#D3EEE7"/>
<rect x="359" y="141" width="11" height="38" fill="#E2FDF6"/>
<rect x="370" y="118" width="11" height="61" fill="#D3EEE7"/>
<path d="M302 200V268" stroke="white" stroke-dasharray="4 4"/>
<path d="M150 0L150 44" stroke="white" stroke-dasharray="4 4"/>
<path d="M120 208.257C110.4 211.111 103.333 220.941 101 225.5H217V181.5C203 181.5 194.5 192.797 185.5 202.311C176.5 211.824 169.5 211.23 154 208.257C138.5 205.284 132 204.689 120 208.257Z" fill="#BDE5DB" fill-opacity="0.3"/>
<defs>
<filter id="filter0_d_107_113" x="135" y="60" width="308" height="185" filterUnits="userSpaceOnUse" color-interpolation-filters="sRGB">
<feFlood flood-opacity="0" result="BackgroundImageFix"/>
<feColorMatrix in="SourceAlpha" type="matrix" values="0 0 0 0 0 0 0 0 0 0 0 0 0 0 0 0 0 0 127 0" result="hardAlpha"/>
<feOffset dx="15" dy="15"/>
<feGaussianBlur stdDeviation="15"/>
<feComposite in2="hardAlpha" operator="out"/>
<feColorMatrix type="matrix" values="0 0 0 0 0.720946 0 0 0 0 0.889423 0 0 0 0 0.847304 0 0 0 1 0"/>
<feBlend mode="normal" in2="BackgroundImageFix" result="effect1_dropShadow_107_113"/>
<feBlend mode="normal" in="SourceGraphic" in2="effect1_dropShadow_107_113" result="shape"/>
</filter>
<filter id="filter1_i_107_113" x="167" y="121" width="99" height="7" filterUnits="userSpaceOnUse" color-interpolation-filters="sRGB">
<feFlood flood-opacity="0" result="BackgroundImageFix"/>
<feBlend mode="normal" in="SourceGraphic" in2="BackgroundImageFix" result="shape"/>
<feColorMatrix in="SourceAlpha" type="matrix" values="0 0 0 0 0 0 0 0 0 0 0 0 0 0 0 0 0 0 127 0" result="hardAlpha"/>
<feOffset dy="4"/>
<feGaussianBlur stdDeviation="2"/>
<feComposite in2="hardAlpha" operator="arithmetic" k2="-1" k3="1"/>
<feColorMatrix type="matrix" values="0 0 0 0 0.721775 0 0 0 0 0.876923 0 0 0 0 0.838136 0 0 0 1 0"/>
<feBlend mode="normal" in2="shape" result="effect1_innerShadow_107_113"/>
</filter>
<filter id="filter2_d_107_113" x="25" y="135" width="254" height="152" filterUnits="userSpaceOnUse" color-interpolation-filters="sRGB">
<feFlood flood-opacity="0" result="BackgroundImageFix"/>
<feColorMatrix in="SourceAlpha" type="matrix" values="0 0 0 0 0 0 0 0 0 0 0 0 0 0 0 0 0 0 127 0" result="hardAlpha"/>
<feOffset dx="15" dy="15"/>
<feGaussianBlur stdDeviation="15"/>
<feComposite in2="hardAlpha" operator="out"/>
<feColorMatrix type="matrix" values="0 0 0 0 0.793252 0 0 0 0 0.910577 0 0 0 0 0.881246 0 0 0 0.8 0"/>
<feBlend mode="normal" in2="BackgroundImageFix" result="effect1_dropShadow_107_113"/>
<feBlend mode="normal" in="SourceGraphic" in2="effect1_dropShadow_107_113" result="shape"/>
</filter>
<filter id="filter3_i_107_113" x="167" y="141" width="99" height="7" filterUnits="userSpaceOnUse" color-interpolation-filters="sRGB">
<feFlood flood-opacity="0" result="BackgroundImageFix"/>
<feBlend mode="normal" in="SourceGraphic" in2="BackgroundImageFix" result="shape"/>
<feColorMatrix in="SourceAlpha" type="matrix" values="0 0 0 0 0 0 0 0 0 0 0 0 0 0 0 0 0 0 127 0" result="hardAlpha"/>
<feOffset dy="4"/>
<feGaussianBlur stdDeviation="2"/>
<feComposite in2="hardAlpha" operator="arithmetic" k2="-1" k3="1"/>
<feColorMatrix type="matrix" values="0 0 0 0 0.721775 0 0 0 0 0.876923 0 0 0 0 0.838136 0 0 0 1 0"/>
<feBlend mode="normal" in2="shape" result="effect1_innerShadow_107_113"/>
</filter>
<filter id="filter4_i_107_113" x="167" y="131" width="99" height="7" filterUnits="userSpaceOnUse" color-interpolation-filters="sRGB">
<feFlood flood-opacity="0" result="BackgroundImageFix"/>
<feBlend mode="normal" in="SourceGraphic" in2="BackgroundImageFix" result="shape"/>
<feColorMatrix in="SourceAlpha" type="matrix" values="0 0 0 0 0 0 0 0 0 0 0 0 0 0 0 0 0 0 127 0" result="hardAlpha"/>
<feOffset dy="4"/>
<feGaussianBlur stdDeviation="2"/>
<feComposite in2="hardAlpha" operator="arithmetic" k2="-1" k3="1"/>
<feColorMatrix type="matrix" values="0 0 0 0 0.721775 0 0 0 0 0.876923 0 0 0 0 0.838136 0 0 0 1 0"/>
<feBlend mode="normal" in2="shape" result="effect1_innerShadow_107_113"/>
</filter>
<filter id="filter5_i_107_113" x="167" y="151" width="99" height="7" filterUnits="userSpaceOnUse" color-interpolation-filters="sRGB">
<feFlood flood-opacity="0" result="BackgroundImageFix"/>
<feBlend mode="normal" in="SourceGraphic" in2="BackgroundImageFix" result="shape"/>
<feColorMatrix in="SourceAlpha" type="matrix" values="0 0 0 0 0 0 0 0 0 0 0 0 0 0 0 0 0 0 127 0" result="hardAlpha"/>
<feOffset dy="4"/>
<feGaussianBlur stdDeviation="2"/>
<feComposite in2="hardAlpha" operator="arithmetic" k2="-1" k3="1"/>
<feColorMatrix type="matrix" values="0 0 0 0 0.721775 0 0 0 0 0.876923 0 0 0 0 0.838136 0 0 0 1 0"/>
<feBlend mode="normal" in2="shape" result="effect1_innerShadow_107_113"/>
</filter>
<filter id="filter6_d_107_113" x="0" y="29" width="308" height="185" filterUnits="userSpaceOnUse" color-interpolation-filters="sRGB">
<feFlood flood-opacity="0" result="BackgroundImageFix"/>
<feColorMatrix in="SourceAlpha" type="matrix" values="0 0 0 0 0 0 0 0 0 0 0 0 0 0 0 0 0 0 127 0" result="hardAlpha"/>
<feOffset dx="15" dy="15"/>
<feGaussianBlur stdDeviation="15"/>
<feComposite in2="hardAlpha" operator="out"/>
<feColorMatrix type="matrix" values="0 0 0 0 0.793252 0 0 0 0 0.910577 0 0 0 0 0.881246 0 0 0 0.8 0"/>
<feBlend mode="normal" in2="BackgroundImageFix" result="effect1_dropShadow_107_113"/>
<feBlend mode="normal" in="SourceGraphic" in2="effect1_dropShadow_107_113" result="shape"/>
</filter>
<filter id="filter7_i_107_113" x="32" y="90" width="99" height="7" filterUnits="userSpaceOnUse" color-interpolation-filters="sRGB">
<feFlood flood-opacity="0" result="BackgroundImageFix"/>
<feBlend mode="normal" in="SourceGraphic" in2="BackgroundImageFix" result="shape"/>
<feColorMatrix in="SourceAlpha" type="matrix" values="0 0 0 0 0 0 0 0 0 0 0 0 0 0 0 0 0 0 127 0" result="hardAlpha"/>
<feOffset dy="4"/>
<feGaussianBlur stdDeviation="2"/>
<feComposite in2="hardAlpha" operator="arithmetic" k2="-1" k3="1"/>
<feColorMatrix type="matrix" values="0 0 0 0 0.721775 0 0 0 0 0.876923 0 0 0 0 0.838136 0 0 0 1 0"/>
<feBlend mode="normal" in2="shape" result="effect1_innerShadow_107_113"/>
</filter>
<filter id="filter8_i_107_113" x="32" y="110" width="99" height="7" filterUnits="userSpaceOnUse" color-interpolation-filters="sRGB">
<feFlood flood-opacity="0" result="BackgroundImageFix"/>
<feBlend mode="normal" in="SourceGraphic" in2="BackgroundImageFix" result="shape"/>
<feColorMatrix in="SourceAlpha" type="matrix" values="0 0 0 0 0 0 0 0 0 0 0 0 0 0 0 0 0 0 127 0" result="hardAlpha"/>
<feOffset dy="4"/>
<feGaussianBlur stdDeviation="2"/>
<feComposite in2="hardAlpha" operator="arithmetic" k2="-1" k3="1"/>
<feColorMatrix type="matrix" values="0 0 0 0 0.721775 0 0 0 0 0.876923 0 0 0 0 0.838136 0 0 0 1 0"/>
<feBlend mode="normal" in2="shape" result="effect1_innerShadow_107_113"/>
</filter>
<filter id="filter9_i_107_113" x="32" y="100" width="99" height="7" filterUnits="userSpaceOnUse" color-interpolation-filters="sRGB">
<feFlood flood-opacity="0" result="BackgroundImageFix"/>
<feBlend mode="normal" in="SourceGraphic" in2="BackgroundImageFix" result="shape"/>
<feColorMatrix in="SourceAlpha" type="matrix" values="0 0 0 0 0 0 0 0 0 0 0 0 0 0 0 0 0 0 127 0" result="hardAlpha"/>
<feOffset dy="4"/>
<feGaussianBlur stdDeviation="2"/>
<feComposite in2="hardAlpha" operator="arithmetic" k2="-1" k3="1"/>
<feColorMatrix type="matrix" values="0 0 0 0 0.721775 0 0 0 0 0.876923 0 0 0 0 0.838136 0 0 0 1 0"/>
<feBlend mode="normal" in2="shape" result="effect1_innerShadow_107_113"/>
</filter>
<filter id="filter10_i_107_113" x="32" y="120" width="99" height="7" filterUnits="userSpaceOnUse" color-interpolation-filters="sRGB">
<feFlood flood-opacity="0" result="BackgroundImageFix"/>
<feBlend mode="normal" in="SourceGraphic" in2="BackgroundImageFix" result="shape"/>
<feColorMatrix in="SourceAlpha" type="matrix" values="0 0 0 0 0 0 0 0 0 0 0 0 0 0 0 0 0 0 127 0" result="hardAlpha"/>
<feOffset dy="4"/>
<feGaussianBlur stdDeviation="2"/>
<feComposite in2="hardAlpha" operator="arithmetic" k2="-1" k3="1"/>
<feColorMatrix type="matrix" values="0 0 0 0 0.721775 0 0 0 0 0.876923 0 0 0 0 0.838136 0 0 0 1 0"/>
<feBlend mode="normal" in2="shape" result="effect1_innerShadow_107_113"/>
</filter>
<filter id="filter11_d_107_113" x="155" y="63" width="73.1768" height="96" filterUnits="userSpaceOnUse" color-interpolation-filters="sRGB">
<feFlood flood-opacity="0" result="BackgroundImageFix"/>
<feColorMatrix in="SourceAlpha" type="matrix" values="0 0 0 0 0 0 0 0 0 0 0 0 0 0 0 0 0 0 127 0" result="hardAlpha"/>
<feOffset dx="4" dy="4"/>
<feGaussianBlur stdDeviation="2"/>
<feComposite in2="hardAlpha" operator="out"/>
<feColorMatrix type="matrix" values="0 0 0 0 0.820325 0 0 0 0 0.896154 0 0 0 0 0.879303 0 0 0 1 0"/>
<feBlend mode="normal" in2="BackgroundImageFix" result="effect1_dropShadow_107_113"/>
<feBlend mode="normal" in="SourceGraphic" in2="effect1_dropShadow_107_113" result="shape"/>
</filter>
<filter id="filter12_d_107_113" x="199" y="114.819" width="50.0859" height="44.1806" filterUnits="userSpaceOnUse" color-interpolation-filters="sRGB">
<feFlood flood-opacity="0" result="BackgroundImageFix"/>
<feColorMatrix in="SourceAlpha" type="matrix" values="0 0 0 0 0 0 0 0 0 0 0 0 0 0 0 0 0 0 127 0" result="hardAlpha"/>
<feOffset dx="4" dy="4"/>
<feGaussianBlur stdDeviation="2"/>
<feComposite in2="hardAlpha" operator="out"/>
<feColorMatrix type="matrix" values="0 0 0 0 0.820325 0 0 0 0 0.896154 0 0 0 0 0.879303 0 0 0 1 0"/>
<feBlend mode="normal" in2="BackgroundImageFix" result="effect1_dropShadow_107_113"/>
<feBlend mode="normal" in="SourceGraphic" in2="effect1_dropShadow_107_113" result="shape"/>
</filter>
<filter id="filter13_d_107_113" x="206.672" y="64.8407" width="44.3281" height="82.1871" filterUnits="userSpaceOnUse" color-interpolation-filters="sRGB">
<feFlood flood-opacity="0" result="BackgroundImageFix"/>
<feColorMatrix in="SourceAlpha" type="matrix" values="0 0 0 0 0 0 0 0 0 0 0 0 0 0 0 0 0 0 127 0" result="hardAlpha"/>
<feOffset dx="4" dy="4"/>
<feGaussianBlur stdDeviation="2"/>
<feComposite in2="hardAlpha" operator="out"/>
<feColorMatrix type="matrix" values="0 0 0 0 0.820325 0 0 0 0 0.896154 0 0 0 0 0.879303 0 0 0 1 0"/>
<feBlend mode="normal" in2="BackgroundImageFix" result="effect1_dropShadow_107_113"/>
<feBlend mode="normal" in="SourceGraphic" in2="effect1_dropShadow_107_113" result="shape"/>
</filter>
</defs>
</svg>
