<svg width="403" height="306" viewBox="0 0 403 306" fill="none" xmlns="http://www.w3.org/2000/svg">
<circle cx="250" cy="153" r="88.5" stroke="white" stroke-opacity="0.6"/>
<circle cx="250" cy="153" r="120.5" stroke="white" stroke-opacity="0.3"/>
<circle cx="250" cy="153" r="152.5" stroke="white" stroke-opacity="0.2"/>
<g filter="url(#filter0_d_99_23)">
<rect x="23" y="64" width="326" height="191" rx="12" fill="url(#paint0_linear_99_23)"/>
<rect x="23.5" y="64.5" width="325" height="190" rx="11.5" stroke="white"/>
</g>
<g filter="url(#filter1_d_99_23)">
<circle cx="37" cy="61" r="32" fill="#F4FFE8"/>
<circle cx="37" cy="61" r="31.5" stroke="white"/>
</g>
<g filter="url(#filter2_d_99_23)">
<circle cx="249.5" cy="65.5" r="22.5" fill="#F4FFE8"/>
<circle cx="249.5" cy="65.5" r="22" stroke="white"/>
</g>
<path d="M39 60V72H29C28.4696 72 27.9609 71.7893 27.5858 71.4142C27.2107 71.0391 27 70.5304 27 70V60H39Z" fill="#C2E29D"/>
<path d="M47 60V70C47 70.5304 46.7893 71.0391 46.4142 71.4142C46.0391 71.7893 45.5304 72 45 72H41V60H47Z" fill="#C2E29D"/>
<path d="M47 54V58H27V54C27 53.4696 27.2107 52.9609 27.5858 52.5858C27.9609 52.2107 28.4696 52 29 52H45C45.5304 52 46.0391 52.2107 46.4142 52.5858C46.7893 52.9609 47 53.4696 47 54Z" fill="#C2E29D"/>
<path d="M87.483 81.5085V80.7273H92.9375V81.5085H90.6506V88H89.7699V81.5085H87.483ZM95.679 88.1136C95.1534 88.1136 94.7 87.9976 94.3189 87.7656C93.9401 87.5312 93.6477 87.2045 93.4418 86.7855C93.2382 86.3641 93.1364 85.8741 93.1364 85.3153C93.1364 84.7566 93.2382 84.2642 93.4418 83.8381C93.6477 83.4096 93.9342 83.0758 94.3011 82.8366C94.6705 82.5952 95.1013 82.4744 95.5938 82.4744C95.8778 82.4744 96.1584 82.5218 96.4354 82.6165C96.7124 82.7112 96.9645 82.8651 97.1918 83.0781C97.419 83.2888 97.6001 83.5682 97.7351 83.9162C97.87 84.2642 97.9375 84.6927 97.9375 85.2017V85.5568H93.733V84.8324H97.0852C97.0852 84.5246 97.0237 84.25 96.9006 84.0085C96.7798 83.767 96.607 83.5765 96.3821 83.4368C96.1596 83.2971 95.8968 83.2273 95.5938 83.2273C95.2599 83.2273 94.9711 83.3101 94.7273 83.4759C94.4858 83.6392 94.3 83.8523 94.1697 84.1151C94.0395 84.3778 93.9744 84.6596 93.9744 84.9602V85.4432C93.9744 85.8551 94.0455 86.2043 94.1875 86.4908C94.3319 86.7749 94.532 86.9915 94.7876 87.1406C95.0433 87.2874 95.3404 87.3608 95.679 87.3608C95.8991 87.3608 96.098 87.33 96.2756 87.2685C96.4555 87.2045 96.6106 87.1098 96.7408 86.9844C96.871 86.8565 96.9716 86.6979 97.0426 86.5085L97.8523 86.7358C97.767 87.0104 97.6238 87.2519 97.4226 87.4602C97.2214 87.6662 96.9728 87.8272 96.6768 87.9432C96.3809 88.0568 96.0483 88.1136 95.679 88.1136ZM99.2124 88V82.5455H100.022V83.3977H100.093C100.207 83.1065 100.39 82.8804 100.643 82.7195C100.897 82.5561 101.201 82.4744 101.556 82.4744C101.916 82.4744 102.215 82.5561 102.455 82.7195C102.696 82.8804 102.884 83.1065 103.019 83.3977H103.076C103.216 83.116 103.425 82.8923 103.705 82.7266C103.984 82.5585 104.319 82.4744 104.71 82.4744C105.197 82.4744 105.596 82.6271 105.906 82.9325C106.216 83.2356 106.371 83.7079 106.371 84.3494V88H105.533V84.3494C105.533 83.947 105.423 83.6593 105.203 83.4865C104.983 83.3137 104.724 83.2273 104.425 83.2273C104.042 83.2273 103.745 83.3433 103.534 83.5753C103.323 83.8049 103.218 84.0961 103.218 84.4489V88H102.366V84.2642C102.366 83.9541 102.265 83.7043 102.064 83.5149C101.863 83.3232 101.603 83.2273 101.286 83.2273C101.068 83.2273 100.865 83.2853 100.675 83.4013C100.488 83.5173 100.337 83.6783 100.221 83.8842C100.107 84.0878 100.05 84.3234 100.05 84.5909V88H99.2124ZM107.904 90.0455V82.5455H108.713V83.4119H108.813C108.874 83.3172 108.96 83.1965 109.069 83.0497C109.18 82.9006 109.338 82.768 109.544 82.652C109.753 82.5336 110.034 82.4744 110.39 82.4744C110.849 82.4744 111.254 82.5893 111.604 82.8189C111.954 83.0485 112.228 83.3741 112.424 83.7955C112.621 84.2169 112.719 84.714 112.719 85.2869C112.719 85.8646 112.621 86.3653 112.424 86.7891C112.228 87.2105 111.956 87.5372 111.608 87.7692C111.26 87.9988 110.858 88.1136 110.404 88.1136C110.053 88.1136 109.773 88.0556 109.562 87.9396C109.351 87.8213 109.189 87.6875 109.076 87.5384C108.962 87.3868 108.874 87.2614 108.813 87.1619H108.742V90.0455H107.904ZM108.728 85.2727C108.728 85.6847 108.788 86.0481 108.909 86.3629C109.029 86.6754 109.206 86.9205 109.438 87.098C109.67 87.2732 109.954 87.3608 110.29 87.3608C110.641 87.3608 110.933 87.2685 111.167 87.0838C111.404 86.8968 111.582 86.6458 111.7 86.331C111.821 86.0137 111.881 85.661 111.881 85.2727C111.881 84.8892 111.822 84.5436 111.703 84.2358C111.587 83.9257 111.411 83.6806 111.174 83.5007C110.94 83.3184 110.645 83.2273 110.29 83.2273C109.949 83.2273 109.663 83.3137 109.431 83.4865C109.199 83.657 109.024 83.8961 108.905 84.2038C108.787 84.5092 108.728 84.8655 108.728 85.2727ZM114.836 80.7273V88H113.998V80.7273H114.836ZM117.976 88.1278C117.63 88.1278 117.316 88.0627 117.035 87.9325C116.753 87.8 116.529 87.6094 116.363 87.3608C116.198 87.1098 116.115 86.8068 116.115 86.4517C116.115 86.1392 116.176 85.8859 116.3 85.6918C116.423 85.4953 116.587 85.3414 116.793 85.2301C116.999 85.1188 117.226 85.036 117.475 84.9815C117.726 84.9247 117.978 84.8797 118.231 84.8466C118.563 84.804 118.831 84.772 119.037 84.7507C119.246 84.727 119.397 84.688 119.492 84.6335C119.589 84.5791 119.638 84.4844 119.638 84.3494V84.321C119.638 83.9706 119.542 83.6984 119.35 83.5043C119.161 83.3101 118.873 83.2131 118.487 83.2131C118.087 83.2131 117.773 83.3007 117.546 83.4759C117.319 83.651 117.159 83.8381 117.067 84.0369L116.271 83.7528C116.413 83.4214 116.603 83.1634 116.839 82.9787C117.078 82.7917 117.339 82.6615 117.621 82.5881C117.905 82.5123 118.184 82.4744 118.459 82.4744C118.634 82.4744 118.835 82.4957 119.062 82.5384C119.292 82.5786 119.513 82.6626 119.726 82.7905C119.942 82.9183 120.121 83.1113 120.263 83.3693C120.405 83.6274 120.476 83.973 120.476 84.4062V88H119.638V87.2614H119.595C119.538 87.3797 119.443 87.5064 119.311 87.6413C119.178 87.7763 119.002 87.8911 118.782 87.9858C118.562 88.0805 118.293 88.1278 117.976 88.1278ZM118.104 87.375C118.435 87.375 118.714 87.3099 118.942 87.1797C119.171 87.0495 119.344 86.8814 119.46 86.6754C119.578 86.4695 119.638 86.2528 119.638 86.0256V85.2585C119.602 85.3011 119.524 85.3402 119.403 85.3757C119.285 85.4089 119.148 85.4384 118.991 85.4645C118.837 85.4882 118.687 85.5095 118.54 85.5284C118.396 85.545 118.279 85.5592 118.189 85.571C117.971 85.5994 117.767 85.6456 117.578 85.7095C117.391 85.7711 117.239 85.8646 117.123 85.9901C117.01 86.1132 116.953 86.2812 116.953 86.4943C116.953 86.7855 117.061 87.0057 117.276 87.1548C117.494 87.3016 117.77 87.375 118.104 87.375ZM124.377 82.5455V83.2557H121.551V82.5455H124.377ZM122.375 81.2386H123.213V86.4375C123.213 86.6742 123.247 86.8518 123.316 86.9702C123.387 87.0862 123.477 87.1643 123.586 87.2045C123.697 87.2424 123.814 87.2614 123.937 87.2614C124.029 87.2614 124.105 87.2566 124.164 87.2472C124.224 87.2353 124.271 87.2259 124.306 87.2188L124.477 87.9716C124.42 87.9929 124.341 88.0142 124.239 88.0355C124.137 88.0592 124.008 88.071 123.852 88.071C123.615 88.071 123.383 88.0201 123.156 87.9183C122.931 87.8165 122.744 87.6615 122.595 87.4531C122.448 87.2448 122.375 86.982 122.375 86.6648V81.2386ZM127.866 88.1136C127.341 88.1136 126.888 87.9976 126.506 87.7656C126.128 87.5312 125.835 87.2045 125.629 86.7855C125.426 86.3641 125.324 85.8741 125.324 85.3153C125.324 84.7566 125.426 84.2642 125.629 83.8381C125.835 83.4096 126.122 83.0758 126.489 82.8366C126.858 82.5952 127.289 82.4744 127.781 82.4744C128.065 82.4744 128.346 82.5218 128.623 82.6165C128.9 82.7112 129.152 82.8651 129.379 83.0781C129.607 83.2888 129.788 83.5682 129.923 83.9162C130.058 84.2642 130.125 84.6927 130.125 85.2017V85.5568H125.92V84.8324H129.273C129.273 84.5246 129.211 84.25 129.088 84.0085C128.967 83.767 128.795 83.5765 128.57 83.4368C128.347 83.2971 128.084 83.2273 127.781 83.2273C127.447 83.2273 127.159 83.3101 126.915 83.4759C126.673 83.6392 126.487 83.8523 126.357 84.1151C126.227 84.3778 126.162 84.6596 126.162 84.9602V85.4432C126.162 85.8551 126.233 86.2043 126.375 86.4908C126.519 86.7749 126.719 86.9915 126.975 87.1406C127.231 87.2874 127.528 87.3608 127.866 87.3608C128.087 87.3608 128.286 87.33 128.463 87.2685C128.643 87.2045 128.798 87.1098 128.928 86.9844C129.058 86.8565 129.159 86.6979 129.23 86.5085L130.04 86.7358C129.955 87.0104 129.811 87.2519 129.61 87.4602C129.409 87.6662 129.16 87.8272 128.864 87.9432C128.568 88.0568 128.236 88.1136 127.866 88.1136Z" fill="#A8C982"/>
<circle cx="306.5" cy="82.5" r="3.5" fill="#C2E29D"/>
<circle cx="318.5" cy="82.5" r="3.5" fill="#C2E29D"/>
<circle cx="330.5" cy="82.5" r="3.5" fill="#C2E29D"/>
<g filter="url(#filter3_d_99_23)">
<rect x="36" y="107" width="128" height="92" rx="6" fill="#F3FFE5"/>
<rect x="36.5" y="107.5" width="127" height="91" rx="5.5" stroke="white"/>
</g>
<path d="M107.691 148.869C107.606 148.506 107.438 148.176 107.206 147.91C106.975 147.644 106.686 147.453 106.369 147.355C105.195 147 100.5 147 100.5 147C100.5 147 95.805 147 94.6307 147.355C93.9879 147.552 93.4821 148.133 93.3086 148.869C93 150.212 93 153 93 153C93 153 93 155.801 93.3086 157.131C93.4821 157.867 93.9889 158.448 94.6307 158.645C95.805 159 100.5 159 100.5 159C100.5 159 105.195 159 106.369 158.645C106.686 158.547 106.975 158.356 107.206 158.09C107.438 157.824 107.606 157.494 107.691 157.131C108 155.788 108 153 108 153C108 153 108 150.212 107.691 148.869Z" fill="#FF0000"/>
<path d="M99 155L103 153.006L99 151V155Z" fill="white"/>
<g filter="url(#filter4_d_99_23)">
<rect x="173" y="107" width="77" height="55" rx="6" fill="#F3FFE5"/>
<rect x="173.5" y="107.5" width="76" height="54" rx="5.5" stroke="white"/>
</g>
<g filter="url(#filter5_d_99_23)">
<rect x="259" y="107" width="77" height="55" rx="6" fill="#F3FFE5"/>
<rect x="259.5" y="107.5" width="76" height="54" rx="5.5" stroke="white"/>
</g>
<g filter="url(#filter6_d_99_23)">
<rect x="173" y="171" width="163" height="51" rx="6" fill="#F3FFE5"/>
<rect x="173.5" y="171.5" width="162" height="50" rx="5.5" stroke="white"/>
</g>
<g filter="url(#filter7_i_99_23)">
<rect x="36" y="206" width="128" height="3" rx="1.5" fill="#FAFFF4"/>
</g>
<g filter="url(#filter8_i_99_23)">
<rect x="36" y="214" width="128" height="3" rx="1.5" fill="#FAFFF4"/>
</g>
<g filter="url(#filter9_i_99_23)">
<rect x="36" y="222" width="128" height="3" rx="1.5" fill="#FAFFF4"/>
</g>
<rect x="36" y="230" width="45" height="11" rx="2" fill="#C2E29D"/>
<g filter="url(#filter10_i_99_23)">
<rect x="173" y="230" width="161" height="3" rx="1.5" fill="#FAFFF4"/>
</g>
<g filter="url(#filter11_i_99_23)">
<rect x="173" y="238" width="161" height="3" rx="1.5" fill="#FAFFF4"/>
</g>
<path fill-rule="evenodd" clip-rule="evenodd" d="M292 130.8C292 129.806 292.806 129 293.8 129H302.2C303.194 129 304 129.806 304 130.8V139.2C304 140.194 303.194 141 302.2 141H293.8C292.806 141 292 140.194 292 139.2V130.8ZM295.3 133.8C296.128 133.8 296.8 133.128 296.8 132.3C296.8 131.472 296.128 130.8 295.3 130.8C294.472 130.8 293.8 131.472 293.8 132.3C293.8 133.128 294.472 133.8 295.3 133.8ZM297.012 135.812L298.3 137.1L301.688 133.712C301.877 133.523 302.2 133.657 302.2 133.924V139.2H293.8V138.6L296.588 135.812C296.705 135.695 296.895 135.695 297.012 135.812Z" fill="#D3EAB9"/>
<path fill-rule="evenodd" clip-rule="evenodd" d="M206 130.8C206 129.806 206.806 129 207.8 129H216.2C217.194 129 218 129.806 218 130.8V139.2C218 140.194 217.194 141 216.2 141H207.8C206.806 141 206 140.194 206 139.2V130.8ZM209.3 133.8C210.128 133.8 210.8 133.128 210.8 132.3C210.8 131.472 210.128 130.8 209.3 130.8C208.472 130.8 207.8 131.472 207.8 132.3C207.8 133.128 208.472 133.8 209.3 133.8ZM211.012 135.812L212.3 137.1L215.688 133.712C215.877 133.523 216.2 133.657 216.2 133.924V139.2H207.8V138.6L210.588 135.812C210.705 135.695 210.895 135.695 211.012 135.812Z" fill="#D3EAB9"/>
<path d="M249.406 67.4236C250.52 67.4236 251.423 66.5204 251.423 65.4063C251.423 64.2921 250.52 63.3889 249.406 63.3889C248.292 63.3889 247.389 64.2921 247.389 65.4063C247.389 66.5204 248.292 67.4236 249.406 67.4236Z" stroke="#C2E29D" stroke-width="1.5" stroke-miterlimit="10"/>
<path d="M251.423 62.7118V66.9439C251.423 67.2563 251.547 67.5559 251.768 67.7769C251.989 67.9978 252.289 68.1219 252.601 68.1219C252.817 68.124 253.029 68.0657 253.214 67.9535C253.398 67.8413 253.548 67.6797 253.645 67.487C254.037 66.6841 254.191 65.786 254.09 64.8984C253.978 63.9201 253.562 63.0014 252.902 62.271C252.241 61.5405 251.369 61.035 250.407 60.8252C249.445 60.6154 248.441 60.7118 247.537 61.1009C246.632 61.49 245.872 62.1523 245.363 62.9951C244.853 63.8379 244.621 64.8188 244.697 65.8006C244.773 66.7823 245.154 67.7157 245.787 68.4698C246.421 69.224 247.274 69.7612 248.228 70.0061C249.181 70.2511 250.188 70.1916 251.106 69.8359" stroke="#C2E29D" stroke-width="1.5" stroke-miterlimit="10"/>
<path d="M255.544 56H243.456C241.547 56 240 57.5474 240 59.4562V71.5438C240 73.4526 241.547 75 243.456 75H255.544C257.453 75 259 73.4526 259 71.5438V59.4562C259 57.5474 257.453 56 255.544 56Z" stroke="#C2E29D" stroke-width="1.5" stroke-miterlimit="10"/>
<defs>
<filter id="filter0_d_99_23" x="23" y="64" width="366" height="231" filterUnits="userSpaceOnUse" color-interpolation-filters="sRGB">
<feFlood flood-opacity="0" result="BackgroundImageFix"/>
<feColorMatrix in="SourceAlpha" type="matrix" values="0 0 0 0 0 0 0 0 0 0 0 0 0 0 0 0 0 0 127 0" result="hardAlpha"/>
<feMorphology radius="10" operator="erode" in="SourceAlpha" result="effect1_dropShadow_99_23"/>
<feOffset dx="20" dy="20"/>
<feGaussianBlur stdDeviation="15"/>
<feComposite in2="hardAlpha" operator="out"/>
<feColorMatrix type="matrix" values="0 0 0 0 0.821833 0 0 0 0 0.896154 0 0 0 0 0.737604 0 0 0 1 0"/>
<feBlend mode="normal" in2="BackgroundImageFix" result="effect1_dropShadow_99_23"/>
<feBlend mode="normal" in="SourceGraphic" in2="effect1_dropShadow_99_23" result="shape"/>
</filter>
<filter id="filter1_d_99_23" x="0" y="24" width="84" height="84" filterUnits="userSpaceOnUse" color-interpolation-filters="sRGB">
<feFlood flood-opacity="0" result="BackgroundImageFix"/>
<feColorMatrix in="SourceAlpha" type="matrix" values="0 0 0 0 0 0 0 0 0 0 0 0 0 0 0 0 0 0 127 0" result="hardAlpha"/>
<feOffset dx="5" dy="5"/>
<feGaussianBlur stdDeviation="5"/>
<feComposite in2="hardAlpha" operator="out"/>
<feColorMatrix type="matrix" values="0 0 0 0 0.851726 0 0 0 0 0.934615 0 0 0 0 0.758476 0 0 0 1 0"/>
<feBlend mode="normal" in2="BackgroundImageFix" result="effect1_dropShadow_99_23"/>
<feBlend mode="normal" in="SourceGraphic" in2="effect1_dropShadow_99_23" result="shape"/>
</filter>
<filter id="filter2_d_99_23" x="222" y="38" width="65" height="65" filterUnits="userSpaceOnUse" color-interpolation-filters="sRGB">
<feFlood flood-opacity="0" result="BackgroundImageFix"/>
<feColorMatrix in="SourceAlpha" type="matrix" values="0 0 0 0 0 0 0 0 0 0 0 0 0 0 0 0 0 0 127 0" result="hardAlpha"/>
<feOffset dx="5" dy="5"/>
<feGaussianBlur stdDeviation="5"/>
<feComposite in2="hardAlpha" operator="out"/>
<feColorMatrix type="matrix" values="0 0 0 0 0.851726 0 0 0 0 0.934615 0 0 0 0 0.758476 0 0 0 1 0"/>
<feBlend mode="normal" in2="BackgroundImageFix" result="effect1_dropShadow_99_23"/>
<feBlend mode="normal" in="SourceGraphic" in2="effect1_dropShadow_99_23" result="shape"/>
</filter>
<filter id="filter3_d_99_23" x="36" y="107" width="132" height="96" filterUnits="userSpaceOnUse" color-interpolation-filters="sRGB">
<feFlood flood-opacity="0" result="BackgroundImageFix"/>
<feColorMatrix in="SourceAlpha" type="matrix" values="0 0 0 0 0 0 0 0 0 0 0 0 0 0 0 0 0 0 127 0" result="hardAlpha"/>
<feMorphology radius="2" operator="erode" in="SourceAlpha" result="effect1_dropShadow_99_23"/>
<feOffset dx="2" dy="2"/>
<feGaussianBlur stdDeviation="2"/>
<feComposite in2="hardAlpha" operator="out"/>
<feColorMatrix type="matrix" values="0 0 0 0 0.802559 0 0 0 0 0.873077 0 0 0 0 0.721967 0 0 0 0.93 0"/>
<feBlend mode="normal" in2="BackgroundImageFix" result="effect1_dropShadow_99_23"/>
<feBlend mode="normal" in="SourceGraphic" in2="effect1_dropShadow_99_23" result="shape"/>
</filter>
<filter id="filter4_d_99_23" x="173" y="107" width="81" height="59" filterUnits="userSpaceOnUse" color-interpolation-filters="sRGB">
<feFlood flood-opacity="0" result="BackgroundImageFix"/>
<feColorMatrix in="SourceAlpha" type="matrix" values="0 0 0 0 0 0 0 0 0 0 0 0 0 0 0 0 0 0 127 0" result="hardAlpha"/>
<feMorphology radius="2" operator="erode" in="SourceAlpha" result="effect1_dropShadow_99_23"/>
<feOffset dx="2" dy="2"/>
<feGaussianBlur stdDeviation="2"/>
<feComposite in2="hardAlpha" operator="out"/>
<feColorMatrix type="matrix" values="0 0 0 0 0.802559 0 0 0 0 0.873077 0 0 0 0 0.721967 0 0 0 0.93 0"/>
<feBlend mode="normal" in2="BackgroundImageFix" result="effect1_dropShadow_99_23"/>
<feBlend mode="normal" in="SourceGraphic" in2="effect1_dropShadow_99_23" result="shape"/>
</filter>
<filter id="filter5_d_99_23" x="259" y="107" width="81" height="59" filterUnits="userSpaceOnUse" color-interpolation-filters="sRGB">
<feFlood flood-opacity="0" result="BackgroundImageFix"/>
<feColorMatrix in="SourceAlpha" type="matrix" values="0 0 0 0 0 0 0 0 0 0 0 0 0 0 0 0 0 0 127 0" result="hardAlpha"/>
<feMorphology radius="2" operator="erode" in="SourceAlpha" result="effect1_dropShadow_99_23"/>
<feOffset dx="2" dy="2"/>
<feGaussianBlur stdDeviation="2"/>
<feComposite in2="hardAlpha" operator="out"/>
<feColorMatrix type="matrix" values="0 0 0 0 0.802559 0 0 0 0 0.873077 0 0 0 0 0.721967 0 0 0 0.93 0"/>
<feBlend mode="normal" in2="BackgroundImageFix" result="effect1_dropShadow_99_23"/>
<feBlend mode="normal" in="SourceGraphic" in2="effect1_dropShadow_99_23" result="shape"/>
</filter>
<filter id="filter6_d_99_23" x="173" y="171" width="167" height="55" filterUnits="userSpaceOnUse" color-interpolation-filters="sRGB">
<feFlood flood-opacity="0" result="BackgroundImageFix"/>
<feColorMatrix in="SourceAlpha" type="matrix" values="0 0 0 0 0 0 0 0 0 0 0 0 0 0 0 0 0 0 127 0" result="hardAlpha"/>
<feMorphology radius="2" operator="erode" in="SourceAlpha" result="effect1_dropShadow_99_23"/>
<feOffset dx="2" dy="2"/>
<feGaussianBlur stdDeviation="2"/>
<feComposite in2="hardAlpha" operator="out"/>
<feColorMatrix type="matrix" values="0 0 0 0 0.802559 0 0 0 0 0.873077 0 0 0 0 0.721967 0 0 0 0.93 0"/>
<feBlend mode="normal" in2="BackgroundImageFix" result="effect1_dropShadow_99_23"/>
<feBlend mode="normal" in="SourceGraphic" in2="effect1_dropShadow_99_23" result="shape"/>
</filter>
<filter id="filter7_i_99_23" x="36" y="206" width="128" height="7" filterUnits="userSpaceOnUse" color-interpolation-filters="sRGB">
<feFlood flood-opacity="0" result="BackgroundImageFix"/>
<feBlend mode="normal" in="SourceGraphic" in2="BackgroundImageFix" result="shape"/>
<feColorMatrix in="SourceAlpha" type="matrix" values="0 0 0 0 0 0 0 0 0 0 0 0 0 0 0 0 0 0 127 0" result="hardAlpha"/>
<feOffset dy="4"/>
<feGaussianBlur stdDeviation="2"/>
<feComposite in2="hardAlpha" operator="arithmetic" k2="-1" k3="1"/>
<feColorMatrix type="matrix" values="0 0 0 0 0.889683 0 0 0 0 0.942308 0 0 0 0 0.822707 0 0 0 1 0"/>
<feBlend mode="normal" in2="shape" result="effect1_innerShadow_99_23"/>
</filter>
<filter id="filter8_i_99_23" x="36" y="214" width="128" height="7" filterUnits="userSpaceOnUse" color-interpolation-filters="sRGB">
<feFlood flood-opacity="0" result="BackgroundImageFix"/>
<feBlend mode="normal" in="SourceGraphic" in2="BackgroundImageFix" result="shape"/>
<feColorMatrix in="SourceAlpha" type="matrix" values="0 0 0 0 0 0 0 0 0 0 0 0 0 0 0 0 0 0 127 0" result="hardAlpha"/>
<feOffset dy="4"/>
<feGaussianBlur stdDeviation="2"/>
<feComposite in2="hardAlpha" operator="arithmetic" k2="-1" k3="1"/>
<feColorMatrix type="matrix" values="0 0 0 0 0.889683 0 0 0 0 0.942308 0 0 0 0 0.822707 0 0 0 1 0"/>
<feBlend mode="normal" in2="shape" result="effect1_innerShadow_99_23"/>
</filter>
<filter id="filter9_i_99_23" x="36" y="222" width="128" height="7" filterUnits="userSpaceOnUse" color-interpolation-filters="sRGB">
<feFlood flood-opacity="0" result="BackgroundImageFix"/>
<feBlend mode="normal" in="SourceGraphic" in2="BackgroundImageFix" result="shape"/>
<feColorMatrix in="SourceAlpha" type="matrix" values="0 0 0 0 0 0 0 0 0 0 0 0 0 0 0 0 0 0 127 0" result="hardAlpha"/>
<feOffset dy="4"/>
<feGaussianBlur stdDeviation="2"/>
<feComposite in2="hardAlpha" operator="arithmetic" k2="-1" k3="1"/>
<feColorMatrix type="matrix" values="0 0 0 0 0.889683 0 0 0 0 0.942308 0 0 0 0 0.822707 0 0 0 1 0"/>
<feBlend mode="normal" in2="shape" result="effect1_innerShadow_99_23"/>
</filter>
<filter id="filter10_i_99_23" x="173" y="230" width="161" height="7" filterUnits="userSpaceOnUse" color-interpolation-filters="sRGB">
<feFlood flood-opacity="0" result="BackgroundImageFix"/>
<feBlend mode="normal" in="SourceGraphic" in2="BackgroundImageFix" result="shape"/>
<feColorMatrix in="SourceAlpha" type="matrix" values="0 0 0 0 0 0 0 0 0 0 0 0 0 0 0 0 0 0 127 0" result="hardAlpha"/>
<feOffset dy="4"/>
<feGaussianBlur stdDeviation="2"/>
<feComposite in2="hardAlpha" operator="arithmetic" k2="-1" k3="1"/>
<feColorMatrix type="matrix" values="0 0 0 0 0.889683 0 0 0 0 0.942308 0 0 0 0 0.822707 0 0 0 1 0"/>
<feBlend mode="normal" in2="shape" result="effect1_innerShadow_99_23"/>
</filter>
<filter id="filter11_i_99_23" x="173" y="238" width="161" height="7" filterUnits="userSpaceOnUse" color-interpolation-filters="sRGB">
<feFlood flood-opacity="0" result="BackgroundImageFix"/>
<feBlend mode="normal" in="SourceGraphic" in2="BackgroundImageFix" result="shape"/>
<feColorMatrix in="SourceAlpha" type="matrix" values="0 0 0 0 0 0 0 0 0 0 0 0 0 0 0 0 0 0 127 0" result="hardAlpha"/>
<feOffset dy="4"/>
<feGaussianBlur stdDeviation="2"/>
<feComposite in2="hardAlpha" operator="arithmetic" k2="-1" k3="1"/>
<feColorMatrix type="matrix" values="0 0 0 0 0.889683 0 0 0 0 0.942308 0 0 0 0 0.822707 0 0 0 1 0"/>
<feBlend mode="normal" in2="shape" result="effect1_innerShadow_99_23"/>
</filter>
<linearGradient id="paint0_linear_99_23" x1="186" y1="64" x2="186" y2="255" gradientUnits="userSpaceOnUse">
<stop stop-color="#EDFFD8"/>
<stop offset="1" stop-color="#F4FFE6"/>
</linearGradient>
</defs>
</svg>
