<svg width="36" height="25" viewBox="0 0 36 25" fill="none" xmlns="http://www.w3.org/2000/svg">
<g filter="url(#filter0_i_78_5350)">
<path d="M4.36889 0.215554C2.99135 0.496085 1.76485 1.22895 1.16195 2.13428C0.150416 3.68626 0 4.78591 0 10.9513V16.6213L0.538361 17.1386C1.20519 17.829 2.69052 17.8934 3.50839 17.2467L4.04612 16.8156L4.13261 11.2537C4.19716 5.217 4.28302 4.87211 5.50951 3.90181C6.22022 3.34138 7.8986 3.29827 8.84558 3.79435C10.1373 4.46288 10.2018 4.91523 10.3309 13.2587L10.4387 20.8037L11.0623 22.0545C12.1603 24.2962 14.5274 25.2234 18.509 24.9429C20.9413 24.7704 21.8238 24.4905 22.8566 23.5415C24.5788 21.9676 24.6214 21.8171 24.7506 13.1506C24.8584 5.94988 24.8797 5.45442 25.2889 4.74279C26.4728 2.71659 29.5932 2.84592 30.5402 4.95834C30.7984 5.56189 30.8849 6.7265 30.9275 10.7789C30.9495 13.5605 31.0353 16.104 31.0786 16.4276C31.3581 17.9152 34.199 18.0877 34.8446 16.6644C35.2106 15.8884 35.1679 5.58375 34.78 4.20359C33.9195 0.94843 32.3483 0 27.8284 0C24.5569 0 23.6319 0.258671 22.3621 1.48763C20.7044 3.10459 20.6186 3.5788 20.4681 12.3315C20.3384 19.4672 20.3171 19.834 19.8865 20.4157C19.2843 21.2348 18.5955 21.5584 17.3903 21.5584C16.5505 21.5584 16.2277 21.4291 15.6255 20.9117C14.5707 19.9846 14.3983 18.9068 14.5494 14.5089C14.6139 12.5039 14.5707 9.35624 14.4629 7.50248C14.2912 4.41977 14.2266 4.0099 13.645 2.86716C12.8704 1.31518 11.8156 0.539197 9.9862 0.237423C8.50149 -0.0431075 5.70319 -0.0431098 4.36889 0.215554Z" fill="white"/>
</g>
<defs>
<filter id="filter0_i_78_5350" x="0" y="0" width="35.0964" height="26.9917" filterUnits="userSpaceOnUse" color-interpolation-filters="sRGB">
<feFlood flood-opacity="0" result="BackgroundImageFix"/>
<feBlend mode="normal" in="SourceGraphic" in2="BackgroundImageFix" result="shape"/>
<feColorMatrix in="SourceAlpha" type="matrix" values="0 0 0 0 0 0 0 0 0 0 0 0 0 0 0 0 0 0 127 0" result="hardAlpha"/>
<feOffset dy="2"/>
<feGaussianBlur stdDeviation="1"/>
<feComposite in2="hardAlpha" operator="arithmetic" k2="-1" k3="1"/>
<feColorMatrix type="matrix" values="0 0 0 0 0.333333 0 0 0 0 0.341176 0 0 0 0 0.454902 0 0 0 0.6 0"/>
<feBlend mode="normal" in2="shape" result="effect1_innerShadow_78_5350"/>
</filter>
</defs>
</svg>
