<svg width="114" height="114" viewBox="0 0 114 114" fill="none" xmlns="http://www.w3.org/2000/svg">
<g filter="url(#filter0_d_78_5357)">
<rect x="11.6" y="14.6001" width="84" height="84" rx="8" fill="url(#paint0_linear_78_5357)" shape-rendering="crispEdges"/>
<rect x="11.6" y="14.6001" width="84" height="84" rx="8" stroke="white" stroke-width="3" shape-rendering="crispEdges"/>
<path d="M68.7378 41.1028C64.2993 37.087 58.5088 35.003 52.5958 35.2933C46.6828 35.5836 41.113 38.2254 37.0691 42.6577C33.0252 47.09 30.8256 52.9638 30.9374 59.0318C31.0492 65.0998 33.4636 70.8842 37.668 75.1568C39.4433 76.9416 41.8323 77.9386 44.3188 77.9324H62.8359C65.1903 77.9652 67.467 77.0689 69.1948 75.4289C71.4678 73.2041 73.2688 70.5226 74.4853 67.5519C75.7017 64.5813 76.3074 61.3853 76.2646 58.1638C76.2217 54.9422 75.5311 51.7644 74.2361 48.8288C72.941 45.8933 71.0693 43.2632 68.7378 41.1028ZM66.5917 72.6047C65.5651 73.5588 64.2213 74.0741 62.8359 74.045H44.3188C42.8233 74.0498 41.3862 73.4507 40.3184 72.3773C37.6139 69.6671 35.7618 66.1897 35.0001 62.392C34.2384 58.5943 34.6019 54.6498 36.0439 51.0655C37.486 47.4812 39.9406 44.421 43.0923 42.2782C46.2441 40.1354 49.9489 39.0079 53.7305 39.0406C57.5122 39.0733 61.1979 40.2648 64.3139 42.4619C67.4299 44.659 69.8338 47.7612 71.2166 51.37C72.5994 54.9787 72.8979 58.9289 72.0737 62.7129C71.2496 66.4969 69.3404 69.9418 66.5917 72.6047ZM68.7378 58.4952C68.7436 60.5662 68.3424 62.6172 67.558 64.5258C66.7736 66.4343 65.6222 68.1613 64.1725 69.6036C63.813 69.9644 63.3284 70.1641 62.8253 70.1586C62.3222 70.1531 61.8418 69.943 61.4898 69.5744C61.1379 69.2058 60.9431 68.709 60.9485 68.1932C60.9538 67.6774 61.1588 67.1849 61.5183 66.8241C69.3692 59.1347 62.6558 45.2585 51.944 46.9534C51.6974 46.9899 51.4462 46.9763 51.2048 46.9133C50.9633 46.8502 50.7363 46.739 50.5368 46.5861C50.1337 46.2772 49.8669 45.8167 49.795 45.3061C49.7594 45.0533 49.7728 44.7958 49.8342 44.5482C49.8957 44.3007 50.0042 44.068 50.1534 43.8634C50.3026 43.6588 50.4896 43.4863 50.7038 43.3559C50.918 43.2254 51.1552 43.1394 51.4018 43.1029C53.5534 42.7926 55.7448 42.9583 57.8287 43.5888C59.9126 44.2194 61.8406 45.3002 63.4831 46.7584C65.1255 48.2167 66.4443 50.0187 67.3507 52.0432C68.2571 54.0677 68.7301 56.2677 68.7378 58.4952ZM45.6193 66.8221C45.9794 67.183 46.1848 67.6757 46.1905 68.1918C46.1962 68.708 46.0016 69.2053 45.6497 69.5744C45.2977 69.9435 44.8171 70.1541 44.3137 70.16C43.8102 70.1658 43.3251 69.9664 42.9651 69.6055C41.2553 67.8982 39.9642 65.8 39.1973 63.4828C38.4305 61.1655 38.2098 58.6951 38.5533 56.2736C38.5889 56.0207 38.6728 55.7776 38.8 55.558C38.9273 55.3383 39.0955 55.1466 39.2951 54.9936C39.4946 54.8406 39.7216 54.7295 39.9631 54.6664C40.2045 54.6034 40.4557 54.5898 40.7023 54.6263C40.9489 54.6628 41.1861 54.7487 41.4003 54.8792C41.6145 55.0096 41.8016 55.1821 41.9508 55.3867C42.1 55.5913 42.2084 55.824 42.2699 56.0715C42.3314 56.3191 42.3447 56.5766 42.3091 56.8295C42.0505 58.6448 42.2158 60.4971 42.7912 62.2342C43.3667 63.9713 44.3359 65.5437 45.6193 66.8221ZM57.3625 58.4952C57.3622 59.0485 57.2468 59.5953 57.0239 60.0991C56.8011 60.6029 56.4758 61.0522 56.07 61.4169C55.6642 61.7815 55.1872 62.0532 54.6708 62.2137C54.1543 62.3742 53.6105 62.4198 53.0755 62.3476C52.5405 62.2753 52.0267 62.0868 51.5684 61.7947C51.1102 61.5025 50.718 61.1135 50.4182 60.6535C50.1183 60.1935 49.9177 59.6733 49.8297 59.1274C49.7417 58.5816 49.7683 58.0228 49.9078 57.4884L42.7509 50.1508C42.4055 49.7843 42.2144 49.2933 42.2187 48.7836C42.223 48.274 42.4224 47.7865 42.7739 47.4261C43.1255 47.0657 43.601 46.8613 44.0981 46.8569C44.5952 46.8525 45.0741 47.0484 45.4316 47.4024L52.5886 54.74C53.1503 54.5887 53.7383 54.5713 54.3075 54.6889C54.8768 54.8065 55.4123 55.056 55.873 55.4184C56.3337 55.7808 56.7075 56.2465 56.9656 56.7798C57.2238 57.3131 57.3596 57.8999 57.3625 58.4952Z" fill="#475569" fill-opacity="0.5"/>
</g>
<defs>
<filter id="filter0_d_78_5357" x="5.72205e-06" y="9.72748e-05" width="113.2" height="113.2" filterUnits="userSpaceOnUse" color-interpolation-filters="sRGB">
<feFlood flood-opacity="0" result="BackgroundImageFix"/>
<feColorMatrix in="SourceAlpha" type="matrix" values="0 0 0 0 0 0 0 0 0 0 0 0 0 0 0 0 0 0 127 0" result="hardAlpha"/>
<feOffset dx="3"/>
<feGaussianBlur stdDeviation="6.55"/>
<feComposite in2="hardAlpha" operator="out"/>
<feColorMatrix type="matrix" values="0 0 0 0 0 0 0 0 0 0 0 0 0 0 0 0 0 0 0.1 0"/>
<feBlend mode="normal" in2="BackgroundImageFix" result="effect1_dropShadow_78_5357"/>
<feBlend mode="normal" in="SourceGraphic" in2="effect1_dropShadow_78_5357" result="shape"/>
</filter>
<linearGradient id="paint0_linear_78_5357" x1="53.6" y1="14.6001" x2="53.6" y2="98.6001" gradientUnits="userSpaceOnUse">
<stop stop-color="#F6F6F6"/>
<stop offset="1" stop-color="white"/>
</linearGradient>
</defs>
</svg>
