<svg width="114" height="114" viewBox="0 0 114 114" fill="none" xmlns="http://www.w3.org/2000/svg">
<g filter="url(#filter0_d_78_5339)">
<rect x="11.6" y="14.6001" width="84" height="84" rx="8" fill="url(#paint0_linear_78_5339)" shape-rendering="crispEdges"/>
<rect x="11.6" y="14.6001" width="84" height="84" rx="8" stroke="white" stroke-width="3" shape-rendering="crispEdges"/>
<path d="M35.265 52.4328C35.265 50.1312 37.13 48.2663 39.4316 48.2663C41.7333 48.2663 43.5983 50.1312 43.5983 52.4328C43.5983 54.7343 41.7333 56.5993 39.4316 56.5993C37.13 56.5993 35.265 54.7343 35.265 52.4328ZM58.5983 69.932H48.5983C46.76 69.932 45.265 71.427 45.265 73.2652V74.9318C45.265 75.8518 46.01 76.5984 46.9316 76.5984H60.265C61.1866 76.5984 61.9316 75.8518 61.9316 74.9318V73.2652C61.9316 71.427 60.4366 69.932 58.5983 69.932ZM67.765 56.5993C70.0666 56.5993 71.9316 54.7343 71.9316 52.4328C71.9316 50.1312 70.0666 48.2663 67.765 48.2663C65.4633 48.2663 63.5983 50.1312 63.5983 52.4328C63.5983 54.7343 65.4633 56.5993 67.765 56.5993ZM70.1183 58.3225C68.9133 58.1209 67.6666 58.4642 66.7333 59.2592C66.7 59.2875 61.69 63.2673 61.69 63.2673H56.9333C56.0116 63.2673 55.2666 64.014 55.2666 64.9339C55.2666 65.8539 56.0116 66.6005 56.9333 66.6005H62.275C62.6533 66.6005 63.02 66.4722 63.315 66.2355L65.2666 64.6773V73.2669C65.2666 75.1052 66.7616 76.6001 68.6 76.6001H70.2666C72.105 76.6001 73.6 75.1052 73.6 73.2669V62.5674C73.6 60.4708 72.105 58.6458 70.12 58.3242L70.1183 58.3225ZM51.9316 64.9323C51.9316 64.0123 51.1866 63.2657 50.265 63.2657H45.5083C45.5083 63.2657 40.4983 59.2875 40.465 59.2575C39.53 58.4625 38.2833 58.1209 37.08 58.3209C35.0966 58.6442 33.6 60.4691 33.6 62.564V73.2636C33.6 75.1018 35.095 76.5968 36.9333 76.5968H38.6C40.4383 76.5968 41.9333 75.1018 41.9333 73.2636V64.6739L43.885 66.2322C44.18 66.4689 44.5466 66.5972 44.925 66.5972H50.2666C51.1883 66.5972 51.9333 65.8505 51.9333 64.9306L51.9316 64.9323ZM53.5983 41.5999C54.52 41.5999 55.265 40.8533 55.265 39.9333V38.2667C55.265 37.3467 54.52 36.6001 53.5983 36.6001C52.6766 36.6001 51.9316 37.3467 51.9316 38.2667V39.9333C51.9316 40.8533 52.6766 41.5999 53.5983 41.5999ZM60.265 43.2665C60.6916 43.2665 61.1183 43.1032 61.4433 42.7782L62.61 41.6116C63.2616 40.9599 63.2616 39.9066 62.61 39.255C61.9583 38.6033 60.905 38.6033 60.2533 39.255L59.0866 40.4216C58.435 41.0732 58.435 42.1265 59.0866 42.7782C59.4116 43.1032 59.8383 43.2665 60.265 43.2665ZM45.7533 42.7782C46.405 43.4298 47.4583 43.4298 48.11 42.7782C48.7616 42.1265 48.7616 41.0732 48.11 40.4216L46.9433 39.255C46.2916 38.6033 45.2383 38.6033 44.5866 39.255C43.935 39.9066 43.935 40.9599 44.5866 41.6116L45.7533 42.7782ZM49.2166 54.9327H57.9733C59.405 53.6827 60.2666 51.8645 60.2666 49.9329C60.2666 47.9546 59.3983 46.093 57.88 44.8231C56.3633 43.5498 54.355 43.0248 52.3916 43.3731C49.6533 43.8598 47.4416 46.1214 47.0133 48.8779C46.6583 51.1812 47.5133 53.4477 49.2166 54.9327ZM52.765 61.5991H54.4316C55.3533 61.5991 56.0983 60.8524 56.0983 59.9325V58.2659H51.0983V59.9325C51.0983 60.8524 51.8433 61.5991 52.765 61.5991Z" fill="#475569" fill-opacity="0.5"/>
</g>
<defs>
<filter id="filter0_d_78_5339" x="-2.47955e-05" y="9.72748e-05" width="113.2" height="113.2" filterUnits="userSpaceOnUse" color-interpolation-filters="sRGB">
<feFlood flood-opacity="0" result="BackgroundImageFix"/>
<feColorMatrix in="SourceAlpha" type="matrix" values="0 0 0 0 0 0 0 0 0 0 0 0 0 0 0 0 0 0 127 0" result="hardAlpha"/>
<feOffset dx="3"/>
<feGaussianBlur stdDeviation="6.55"/>
<feComposite in2="hardAlpha" operator="out"/>
<feColorMatrix type="matrix" values="0 0 0 0 0 0 0 0 0 0 0 0 0 0 0 0 0 0 0.1 0"/>
<feBlend mode="normal" in2="BackgroundImageFix" result="effect1_dropShadow_78_5339"/>
<feBlend mode="normal" in="SourceGraphic" in2="effect1_dropShadow_78_5339" result="shape"/>
</filter>
<linearGradient id="paint0_linear_78_5339" x1="53.6" y1="14.6001" x2="53.6" y2="98.6001" gradientUnits="userSpaceOnUse">
<stop stop-color="#F6F6F6"/>
<stop offset="1" stop-color="white"/>
</linearGradient>
</defs>
</svg>
